<svg width="91" height="24" viewBox="0 0 91 24" fill="none" xmlns="http://www.w3.org/2000/svg"><path id="path671" d="M57.9379 13.0901C57.9379 13.46 57.6453 13.6998 57.0231 13.6998H55.3194V12.488H57.0231C57.6453 12.4884 57.9379 12.6902 57.9379 13.0901ZM57.7371 11.218C57.7371 11.479 57.5446 11.6596 57.0141 11.6596H55.3202V10.77H56.9483C57.509 10.77 57.7371 10.924 57.7371 11.218ZM59.2574 13.0778C59.2574 12.5633 58.8732 12.2217 58.3594 12.0547C58.7822 11.8678 59.0377 11.5455 59.0377 11.1439C59.0377 10.3419 58.2502 9.90621 57.005 9.90621H54.0638V14.59H56.977C58.351 14.59 59.2574 14.0614 59.2574 13.0778ZM63.252 12.6574H61.785L62.1979 11.8066C62.3267 11.5332 62.4535 11.2521 62.5178 11.0775C62.5837 11.2521 62.7104 11.5332 62.8391 11.8066L63.252 12.6574ZM65.606 14.59L63.1687 9.90621H61.9235L59.4695 14.59H60.8421L61.3468 13.5464H63.6916L64.1949 14.59H65.606ZM71.3497 14.59V9.90621H70.0849V11.8877C70.0849 12.1482 70.1034 12.7367 70.1034 12.9114C70.0201 12.7909 69.808 12.5562 69.6533 12.3822L67.3814 9.90621H66.1551V14.59H67.4185V12.5298C67.4185 12.2687 67.4 11.6796 67.4 11.5055C67.482 11.626 67.6926 11.8607 67.8487 12.0341L70.2026 14.5894H71.3484L71.3497 14.59ZM88.7294 13.1718C88.7294 12.1552 87.6032 11.9006 86.5854 11.7266C85.5698 11.5519 85.2948 11.4585 85.2948 11.1639C85.2948 10.957 85.5231 10.7429 86.211 10.7429C86.7975 10.7429 87.2539 10.9169 87.6669 11.2239L88.5908 10.5694C87.9867 10.1073 87.2539 9.83214 86.2558 9.83214C84.991 9.83214 83.9663 10.3543 83.9663 11.2051C83.9663 12.1276 84.7908 12.4022 85.9716 12.6027C87.1818 12.8038 87.4016 12.9367 87.4016 13.2377C87.4016 13.5916 87.0446 13.7463 86.2831 13.7463C85.6692 13.7463 85.0924 13.591 84.6438 13.2112L83.7185 13.8127C84.2049 14.3343 85.1386 14.6624 86.211 14.6624C87.9594 14.6633 88.7294 14.0614 88.7294 13.1718ZM91 9.90681H89.7177V14.59H91V9.90681ZM80.9901 11.8066C80.8613 11.5332 80.7332 11.2521 80.6688 11.0775C80.6045 11.2521 80.4762 11.5332 80.3489 11.8066L79.936 12.6574H81.4016L80.9901 11.8066ZM78.1714 14.59H77.6191H76.6322L74.8921 12.3293L73.8667 13.2118V14.59H72.5844V9.90621H73.8667V11.238C73.8667 11.412 73.8561 11.8336 73.8482 11.9818C73.94 11.8735 74.1779 11.6602 74.3515 11.5061L76.1476 9.90621H77.6944L75.8172 11.5255L77.8435 14.1632L80.075 9.90621H81.3201L83.756 14.59H82.3449L81.8401 13.5464H79.4953L78.992 14.59H78.1714ZM24.5373 9.00955C24.5373 8.67734 24.8586 8.40746 25.2554 8.40746C25.6509 8.40746 25.9722 8.67734 25.9722 9.00955C25.9722 9.34175 25.6509 9.61165 25.2554 9.61165C24.8586 9.61205 24.5373 9.34236 24.5373 9.00955ZM10.9808 12.5227V9.90621H9.69775V12.5362C9.69775 13.2847 9.19379 13.7469 8.37975 13.7469C7.565 13.7469 7.06945 13.2724 7.06945 12.5227V9.90621H5.78854V12.5362C5.78854 13.9003 6.83215 14.6629 8.38044 14.6629C10.0092 14.6639 10.9808 13.8803 10.9808 12.5227ZM6.69078 9.00132C6.69078 8.66854 7.01205 8.39807 7.40823 8.39807C7.80299 8.39807 8.12497 8.66854 8.12497 9.00132C8.12497 9.33293 7.80299 9.60283 7.40823 9.60283C7.01205 9.60322 6.69078 9.33353 6.69078 9.00132ZM8.66393 9.00132C8.66393 8.66854 8.98379 8.39807 9.38067 8.39807C9.77613 8.39807 10.0967 8.66854 10.0967 9.00132C10.0967 9.33293 9.77613 9.60283 9.38067 9.60283C8.98379 9.60322 8.66393 9.33353 8.66393 9.00132ZM37.6627 14.59V13.6734H34.3561V12.5433H36.1984V11.6331H34.3561V10.8229H37.5262V9.90621H33.0753V14.5894L37.6627 14.59ZM32.5986 9.90681H31.1427L30.2356 11.0181C29.9975 11.3121 29.6595 11.7601 29.5398 11.9341C29.4208 11.7601 29.0737 11.2986 28.8434 11.0181L27.9369 9.90681H26.4629L28.8903 12.7573V14.59H30.1726V12.7367L32.5986 9.90681ZM23.8828 14.59L21.5296 11.5255L23.4069 9.90681H21.8586L20.064 11.5055C19.8904 11.6602 19.6517 11.8742 19.56 11.9818C19.568 11.8335 19.5785 11.412 19.5785 11.2386V9.90681H18.2956V14.59H19.5786V13.2118L20.6047 12.3293L22.3441 14.59H23.8828ZM15.9973 11.4114C15.9973 11.8195 15.6767 12.0206 15.0817 12.0206H13.4047V10.8158H15.0817C15.6494 10.8158 15.9973 10.9898 15.9973 11.4114ZM17.316 14.59L16.089 12.7697C16.9037 12.5368 17.316 12.0947 17.316 11.392C17.316 10.3954 16.3171 9.90681 15.109 9.90681H12.1231V14.59H13.4054V12.9043H14.6968L15.8419 14.59H17.316ZM4.96541 10.8305V9.90681H0V10.8305H1.84153V14.59H3.12384V10.8305H4.96541ZM25.8959 9.90681H24.6136V14.59H25.8959V9.90681ZM42.3579 19.9106C42.5288 19.9442 43.3848 20.1923 43.3848 20.1923C44.0154 20.4151 44.5404 20.5744 45.1255 20.6632C44.6223 20.8732 44.2751 21.31 44.2751 21.8151C44.2751 22.3584 44.6768 22.7811 45.2424 22.9499C45.4665 23.0416 45.4937 23.1092 45.5581 23.2774C45.6126 23.4209 45.4343 24 45.4343 24H45.8305C45.8305 24 46.0873 23.7336 46.4471 23.3156C46.6045 23.1338 46.8461 22.7664 46.9896 22.6035C47.1822 22.366 47.3381 22.1396 47.3381 21.8157C47.3381 21.3711 47.0687 20.9796 46.6627 20.7479C46.7558 20.7455 46.7775 20.7412 46.7775 20.7412C47.6622 20.6976 48.4826 20.4137 48.4826 20.4137C51.2936 19.6123 51.9347 17.5279 51.9347 17.5279C52.0453 17.1751 52.1069 16.8035 52.1069 16.4208C52.1069 15.1542 51.3083 14.0136 50.2668 13.228C50.2668 13.228 49.9455 12.9676 49.6802 12.8041C49.1336 12.4466 47.3809 11.6617 47.3809 11.6617C47.3809 11.6617 44.4369 10.3182 43.695 9.92891C42.9537 9.53957 42.6038 9.23323 42.6038 9.23323C42.0354 8.82518 41.67 8.27014 41.67 7.56575C41.67 6.47092 42.8466 5.70598 44.2178 5.51253C44.2178 5.51253 44.3117 5.50362 44.4453 5.49697V9.69042L47.1359 10.9375V4.45335C47.1571 4.28579 47.0645 3.71366 47.7897 3.55022L48.1844 3.4631V3.14147H43.3975V3.4631L43.7741 3.54666C44.5195 3.70533 44.4236 4.28456 44.4453 4.4539V4.88665C44.334 4.89329 44.2157 4.89998 44.1108 4.91664C41.7023 5.20241 39.9468 6.80051 39.9468 8.73201C39.9468 10.1702 40.7601 11.0704 42.0571 11.8883C42.7305 12.3134 43.1882 12.4968 44.0002 12.8708L44.446 13.079V17.1778C44.4249 17.3478 44.5183 17.9186 43.793 18.0815L43.3975 18.1708V18.4913H48.1844V18.1708L47.8072 18.0868C47.0624 17.9275 47.1576 17.3483 47.1373 17.1772L47.1359 14.3397L47.6595 14.5866C47.6595 14.5866 49.2358 15.231 49.8426 16.3976C50.4523 17.5641 50.0548 19.2375 47.6266 19.9713C47.6266 19.9713 44.7372 20.7257 42.118 18.6642C42.118 18.6642 41.2144 17.8681 40.7685 16.7992C40.6984 16.6327 40.618 16.3641 40.618 16.3641H40.2393V20.4246H40.5606C40.5606 20.4246 40.7537 20.1883 40.9204 20.0742C40.9646 20.0431 40.9973 20.0213 41.0381 20.0006C41.2495 19.8924 41.5532 19.7525 42.3022 19.896L42.3579 19.9106ZM50.5249 5.29296V5.1054H50.1777L49.9944 5.33941C49.8277 5.51807 49.6773 5.58165 49.356 5.61048C48.9844 5.64582 48.507 5.4758 48.507 5.4758L47.8029 5.23945V5.83681C48.108 5.98081 48.2445 6.09729 48.3936 6.18902C48.5785 6.30436 48.8696 6.54298 49.2112 6.92868C49.5527 7.31498 49.8033 7.80537 49.8852 8.01408C49.9455 8.16586 50.026 8.48683 50.0643 8.67263L50.1119 8.92192H50.5249L50.5249 5.29296ZM44.2289 1.31178C44.2289 2.03558 44.9281 2.62354 45.7898 2.62354C46.6528 2.62354 47.3528 2.03558 47.3528 1.31178C47.3528 0.587395 46.6528 0 45.7898 0C44.9281 0 44.2289 0.587395 44.2289 1.31178Z" fill="white"/></svg>