<svg preserveAspectRatio="none" width="100%" height="100%" overflow="visible" style="display: block;" viewBox="0 0 149.907 149.907" fill="none" xmlns="http://www.w3.org/2000/svg">
<g id="NIVEA_Logo_2020">
<path id="Vector" d="M74.9535 119.119C99.3455 119.119 119.119 99.3453 119.119 74.9533C119.119 50.5613 99.3455 30.7877 74.9535 30.7877C50.5615 30.7877 30.7878 50.5613 30.7878 74.9533C30.7878 99.3453 50.5615 119.119 74.9535 119.119Z" fill="var(--fill-0, #0054A6)"/>
<path id="NIVEA wordmark" d="M54.8105 67.2408H51.0212V75.2743C47.7056 72.3015 44.39 69.3286 40.9965 66.3589V82.6659H44.7857V74.6324C47.9455 77.4431 51.336 80.578 54.8105 83.5509V67.2439V67.2408ZM63.2086 82.6659H59.4193V67.2408H63.2086V82.6659ZM73.0308 83.5477C70.3478 78.4871 67.6616 72.7003 64.9786 67.2408H69.2415L73.0308 75.5953L76.6643 67.2408H80.8493C78.2442 72.7034 75.639 78.4871 73.0308 83.5477ZM92.8186 70.6156H86.4023V73.2675H92.8186V76.6423H86.4023V79.291H92.8186V82.6659H82.6131V67.2408H92.8186V70.6156ZM102.423 66.3589C99.8175 71.5006 97.2124 77.0412 94.6072 82.6659H98.5554L99.3438 80.818H105.501L106.29 82.6659H110.394C107.708 77.0412 105.025 71.4196 102.416 66.3589H102.423ZM100.45 77.9262L102.423 73.4264L104.32 77.9262H100.45Z" fill="var(--fill-0, white)"/>
<g id="Minimum Clearspace">
</g>
</g>
</svg>
