<svg preserveAspectRatio="none" width="100%" height="100%" overflow="visible" style="display: block;" viewBox="0 0 59.21 27.0226" fill="none" xmlns="http://www.w3.org/2000/svg">
<g id="Isolation_Mode" clip-path="url(#clip0_0_4)">
<path id="Vector" d="M7.82373 6.86868C8.76953 6.86868 9.53452 7.63367 9.53452 8.57947V17.2725C9.53452 18.0143 9.39311 18.7121 9.10798 19.3658C8.82517 20.0195 8.43572 20.5921 7.94659 21.0835C7.45746 21.575 6.88257 21.9621 6.22885 22.2449C5.57513 22.5277 4.87737 22.6715 4.13557 22.6715C3.44244 22.6715 2.78873 22.5486 2.1721 22.3029C1.74556 22.1336 1.20543 21.8694 0.496082 21.3316C-0.0927258 20.8865 -0.166906 20.0311 0.331494 19.4886C0.908712 18.8627 1.86147 18.7515 2.56387 19.2383C3.11327 19.6185 3.60703 19.8109 4.13557 19.8109C4.49024 19.8109 4.82405 19.746 5.13237 19.6161C5.44068 19.4863 5.70958 19.3055 5.9414 19.0737C6.17321 18.8419 6.35171 18.573 6.48153 18.2647C6.61134 17.9564 6.67625 17.6249 6.67625 17.2679V8.01384C6.67625 7.38099 7.19088 6.86636 7.82373 6.86636" fill="var(--fill-0, #ED1C24)"/>
<path id="Vector_2" d="M17.1705 22.6715C16.3244 22.6715 15.5316 22.5115 14.7921 22.1893C14.0526 21.8671 13.4058 21.4289 12.8495 20.8749C12.2931 20.3185 11.855 19.6718 11.5351 18.9323C11.2129 18.1928 11.0529 17.4 11.0529 16.5539C11.0529 15.7078 11.2129 14.9265 11.5351 14.1824C11.8573 13.4383 12.2954 12.7892 12.8495 12.2329C13.4058 11.6765 14.0526 11.2384 14.7921 10.9185C15.5316 10.5963 16.3244 10.4363 17.1705 10.4363C18.0166 10.4363 18.7978 10.5963 19.5419 10.9185C20.2861 11.2407 20.9351 11.6788 21.4915 12.2329C22.0479 12.7892 22.486 13.4383 22.8059 14.1824C23.1281 14.9265 23.2881 15.717 23.2881 16.5539C23.2881 17.3907 23.1281 18.1928 22.8059 18.9323C22.4837 19.6718 22.0455 20.3185 21.4915 20.8749C20.9351 21.4313 20.2861 21.8694 19.5419 22.1893C18.7978 22.5115 18.0073 22.6715 17.1705 22.6715ZM17.1705 13.4823C16.7416 13.4823 16.3359 13.5635 15.9581 13.7281C15.5802 13.8927 15.2511 14.1129 14.9752 14.3887C14.6993 14.6646 14.4791 14.9891 14.3145 15.3647C14.1499 15.7379 14.0688 16.1343 14.0688 16.5539C14.0688 16.9735 14.1499 17.3884 14.3145 17.7663C14.4791 18.1441 14.6993 18.4733 14.9752 18.7492C15.2511 19.025 15.5779 19.2452 15.9581 19.4098C16.3359 19.5744 16.7416 19.6556 17.1705 19.6556C17.5993 19.6556 17.9865 19.5744 18.3597 19.4098C18.7329 19.2452 19.0574 19.025 19.3356 18.7492C19.6115 18.4733 19.8317 18.1464 19.9963 17.7663C20.1609 17.3884 20.242 16.9827 20.242 16.5539C20.242 16.125 20.1609 15.7379 19.9963 15.3647C19.8317 14.9915 19.6115 14.6669 19.3356 14.3887C19.0598 14.1129 18.7352 13.8927 18.3597 13.7281C17.9865 13.5635 17.5901 13.4823 17.1705 13.4823Z" fill="var(--fill-0, #ED1C24)"/>
<path id="Vector_3" d="M34.4314 21.6051C33.9654 22.4976 32.8573 22.8314 31.9788 22.3423C31.4178 22.0293 30.8545 21.5727 30.4465 20.9166C30.1243 20.3997 29.9226 19.3751 29.9226 18.7492V7.83534C29.9226 7.31608 30.3445 6.89418 30.8637 6.89418C31.9231 6.89418 32.7809 7.75189 32.7809 8.81128V18.7468C32.8272 19.6509 33.3187 20.0218 33.4624 20.1354C33.5435 20.2003 33.7522 20.351 34.0512 20.4901C34.4708 20.6871 34.6446 21.1902 34.4291 21.6028" fill="var(--fill-0, #ED1C24)"/>
<path id="Vector_4" d="M48.2197 10.7168C48.0806 10.3088 48.2359 9.87763 48.5767 9.72927C51.8406 8.87156 54.2608 7.87939 57.6777 5.26685C58.2966 4.95158 58.9457 5.54039 59.1242 6.06661C59.4928 7.13991 58.6351 8.76029 56.8988 9.46268C54.8681 10.2833 52.2579 10.8744 49.1029 11.2778C48.7134 11.3566 48.3611 11.1225 48.2197 10.7168Z" fill="var(--fill-0, #ED1C24)"/>
<path id="Vector_5" d="M48.5512 14.0248C48.5697 13.5983 48.9174 13.327 49.3115 13.3154C51.7062 13.4731 53.0646 13.6006 56.4769 13.1068C57.3717 12.9399 57.4946 13.378 57.5131 13.6701C57.6012 15.1978 55.3341 15.7402 54.0359 15.7634C52.4665 15.7912 51.173 15.6243 49.242 14.9289C48.6694 14.7179 48.5349 14.449 48.5535 14.0225" fill="var(--fill-0, #ED1C24)"/>
<path id="Vector_6" d="M46.3281 8.20626C46.0082 7.97676 45.9062 7.56181 46.0916 7.25582C47.7027 5.48476 48.8154 3.93855 50.3385 1.19387C50.6074 0.818335 51.1591 0.753427 51.5694 1.05015C52.4086 1.65055 52.3947 3.04839 51.5856 4.1356C50.3269 5.84407 49.0473 6.8571 47.2994 8.12512C46.8891 8.34766 46.6457 8.43111 46.3281 8.20394" fill="var(--fill-0, #ED1C24)"/>
<path id="Vector_7" d="M43.4281 7.38563C43.0015 7.35782 42.7234 7.01937 42.721 6.60906C42.9668 4.91449 42.9181 3.09707 42.575 0.897153C42.6098 0.368617 43.0804 -0.0324219 43.6298 0.00466841C44.7471 0.0765308 45.1528 1.82905 45.0856 2.90698C44.9928 4.51809 44.7332 5.18108 44.2835 6.71569C44.1513 7.10514 43.8546 7.41345 43.4304 7.38795" fill="var(--fill-0, #ED1C24)"/>
<path id="Vector_8" d="M29.3222 21.6051C28.8562 22.4976 27.7482 22.8314 26.8696 22.3423C26.3086 22.0293 25.7453 21.5727 25.3373 20.9166C25.0151 20.3997 24.8134 19.3751 24.8134 18.7492V7.83534C24.8134 7.31608 25.2353 6.89418 25.7546 6.89418C26.814 6.89418 27.6717 7.75189 27.6717 8.81128V18.7468C27.718 19.6509 28.2095 20.0218 28.3532 20.1354C28.4343 20.2003 28.643 20.351 28.942 20.4901C29.3616 20.6871 29.5355 21.1902 29.3199 21.6028" fill="var(--fill-0, #ED1C24)"/>
<path id="Vector_9" d="M42.8277 11.0923V15.9674L42.7999 16.0532C42.7999 16.3986 42.735 16.7254 42.6051 17.0268C42.4753 17.3305 42.2945 17.5971 42.065 17.8289C41.8332 18.0607 41.5666 18.2392 41.2629 18.3713C40.9593 18.5011 40.6347 18.566 40.2893 18.566C39.9439 18.566 39.6171 18.5011 39.3157 18.3713C39.012 18.2415 38.7454 18.0607 38.5136 17.8289C38.2818 17.5971 38.1033 17.3305 37.9712 17.0268C37.8414 16.7231 37.7764 16.3986 37.7764 16.0532V12.4183C37.7764 11.2639 36.8399 10.3274 35.6855 10.3274H35.6577C35.2334 10.3274 34.8904 10.6704 34.8904 11.0947V16.0555C34.8904 16.7973 35.0318 17.4951 35.3169 18.1488C35.5997 18.8025 35.9892 19.3751 36.4783 19.8665C36.9697 20.358 37.5423 20.7451 38.196 21.0279C38.8497 21.3107 39.5475 21.4544 40.2893 21.4544C41.0311 21.4544 41.7289 21.313 42.3826 21.0279C42.5356 20.9607 42.6863 20.8888 42.83 20.81V21.626C42.83 21.983 42.7651 22.3145 42.6353 22.6228C42.5055 22.9311 42.3246 23.2 42.0951 23.4318C41.8633 23.6636 41.5944 23.8421 41.2861 23.9719C40.9778 24.1018 40.6463 24.1667 40.2893 24.1667C39.8373 24.1667 39.0306 23.9627 38.3235 23.5547C37.9271 23.3252 37.4195 23.4712 37.1923 23.8699C36.6452 24.832 37.0254 26.0629 38.0291 26.5289C38.1334 26.5775 38.2331 26.6216 38.3258 26.6564C38.9425 26.9021 39.5962 27.0249 40.2893 27.0249C41.0311 27.0249 41.7289 26.8835 42.3826 26.5984C43.0363 26.3156 43.6089 25.9261 44.1003 25.437C44.5918 24.9456 44.9789 24.373 45.2617 23.7193C45.5445 23.0656 45.6883 22.3678 45.6883 21.626V12.4183C45.6883 11.2639 44.7517 10.3274 43.5973 10.3274C43.1731 10.3274 42.83 10.6704 42.83 11.0947" fill="var(--fill-0, #ED1C24)"/>
</g>
<defs>
<clipPath id="clip0_0_4">
<rect width="59.21" height="27.0226" fill="white"/>
</clipPath>
</defs>
</svg>
