<svg preserveAspectRatio="none" width="100%" height="100%" overflow="visible" style="display: block;" viewBox="0 0 75.1119 15.1741" fill="none" xmlns="http://www.w3.org/2000/svg">
<g id="Group">
<path id="Vector" d="M64.0826 0.12351H63.6077L60.0544 7.14596L56.4307 0.12351H55.903L54.9003 7.81644C54.7948 8.59279 54.654 8.92803 54.5133 9.24563H55.516C55.4456 8.96332 55.4632 8.41635 55.5512 7.74586L56.1668 3.03483L59.3507 9.24563H59.7201L62.9216 3.03483L63.5197 7.64C63.5901 8.15168 63.5901 8.78688 63.5021 9.22799H65.5074C65.2964 8.76923 65.226 8.5575 65.1205 7.78115L64.0826 0.12351ZM18.7692 0C15.8491 0 13.58 2.06439 13.58 4.72868C13.58 7.39298 15.8491 9.45736 18.7692 9.45736C21.6716 9.45736 23.9584 7.39298 23.9584 4.72868C23.9408 2.06439 21.6716 0 18.7692 0ZM18.9099 8.75159C16.9046 8.75159 15.3038 7.02244 15.2159 4.72868C15.1279 2.43492 16.4648 0.705773 18.6109 0.705773C20.6162 0.705773 22.2169 2.43492 22.3049 4.72868C22.3929 7.02244 20.9152 8.75159 18.9099 8.75159ZM73.0538 9.24563H75.1119C74.7601 8.91039 74.3907 8.38106 74.1268 7.74586L70.9078 0.12351H70.5208L67.2313 7.97524C66.9851 8.5575 66.7564 8.91039 66.4749 9.26328H67.4072L68.6562 6.21081H71.8049L73.0538 9.24563ZM68.92 5.57561L70.2393 2.36434L71.5586 5.57561H68.92ZM4.78465 3.93469C5.45309 3.61709 6.03358 3.08776 6.03358 2.27612C6.03358 1.35861 5.61141 0.793995 4.81983 0.458753C4.32729 0.247021 3.50053 0.158799 2.69136 0.158799H0C0.175906 0.40582 0.263859 0.793995 0.263859 1.32333V8.01053C0.263859 8.68101 0.175906 8.98097 0 9.24563H2.90245C3.79957 9.24563 4.85501 9.06919 5.36514 8.82217C6.1919 8.41635 6.70202 7.65764 6.70202 6.5284C6.70202 4.99335 5.55863 4.26993 4.78465 3.93469ZM1.77665 0.758706C1.91738 0.758706 2.12846 0.758706 2.40991 0.758706C2.65618 0.758706 3.06077 0.776351 3.27185 0.846928C3.97548 1.02337 4.46802 1.49977 4.46802 2.31141C4.46802 3.07011 3.99307 3.49358 3.3774 3.59944C3.23667 3.61709 2.83209 3.65238 2.67377 3.65238C2.33955 3.65238 2.00533 3.65238 1.75906 3.63473V0.758706H1.77665ZM3.58849 8.57515C3.41258 8.61043 2.95522 8.64572 2.83209 8.64572C2.70895 8.64572 1.95256 8.64572 1.77665 8.62808V4.23464C1.89979 4.23464 2.4275 4.23464 2.58582 4.23464C2.74414 4.23464 3.1839 4.25228 3.43017 4.30522C4.46802 4.53459 5.10128 5.25801 5.10128 6.56369C5.08369 7.56942 4.59115 8.36341 3.58849 8.57515ZM39.1919 8.62808V4.25228H42.3934L42.6045 3.63473H39.1919V0.776351H41.6898C42.2351 0.776351 42.6924 0.829284 43.2377 1.12924L42.798 0.141155H37.4328C37.5911 0.40582 37.6615 0.793995 37.6615 1.32333V8.01053C37.6615 8.68101 37.5736 8.98097 37.4152 9.24563H43.3081L43.7654 8.25755C43.2025 8.5575 42.6572 8.62808 42.0416 8.62808H39.1919ZM31.5576 0.335242C31.0826 0.211732 30.2031 0.158799 29.9216 0.158799H26.2804C26.4387 0.423464 26.5091 0.811639 26.5091 1.34097V8.02817C26.5091 8.69866 26.4211 8.99861 26.2628 9.26328H29.6754C30.0448 9.26328 30.7836 9.22799 31.2057 9.15741C33.774 8.80452 35.2516 7.07538 35.2516 4.78161C35.2516 2.52314 33.7212 0.864572 31.5576 0.335242ZM30.6077 8.57515C30.3614 8.61043 29.8161 8.62808 29.5346 8.62808C28.7958 8.62808 28.3209 8.62808 28.0394 8.61043V0.811639C28.3209 0.793995 28.9366 0.776351 29.2884 0.776351C29.7281 0.776351 30.6253 0.864572 31.1178 1.04102C32.5954 1.57035 33.5981 2.89367 33.5981 4.72868C33.5629 6.81071 32.6658 8.27519 30.6077 8.57515ZM11.2932 0.141155H9.30543C9.46375 0.40582 9.53411 0.793995 9.53411 1.32333V8.01053C9.53411 8.68101 9.44616 8.98097 9.28784 9.24563H11.2756C11.1173 8.98097 11.0293 8.59279 11.0293 8.06346V1.37626C11.0469 0.723418 11.1349 0.40582 11.2932 0.141155ZM49.3944 5.01099C50.5906 4.88748 52.0506 4.23464 52.0506 2.68194C52.0506 1.18217 51.0831 0.564619 49.9925 0.317598C49.1658 0.12351 48.1807 0.141155 47.6002 0.141155H45.7356C45.8939 0.40582 45.9819 0.793995 45.9819 1.32333V8.01053C45.9819 8.68101 45.8939 8.98097 45.7356 9.24563H47.7761C47.565 8.89274 47.5122 8.46928 47.5122 8.02817V0.758706C47.7761 0.758706 48.4621 0.723418 48.9899 0.846928C50.1684 1.11159 50.5027 1.8703 50.5027 2.69958C50.5027 3.72295 49.8694 4.90512 48.04 4.49931L47.8289 4.64046C49.3769 7.04009 50.7137 8.45164 51.7164 9.24563H54.0032C52.4024 8.18697 50.6786 6.65191 49.3944 5.01099ZM0.474947 14.2919H1.47761V14.6095H0.0175906V12.1569H0.492537L0.474947 14.2919ZM2.58582 14.6095H2.16365L3.25426 12.1569H3.53571L4.53838 14.6272H4.06343L3.81716 14.0272H2.84968L2.58582 14.6095ZM3.35981 12.8274L2.9904 13.7096H3.71162L3.35981 12.8274ZM5.52345 12.1569H6.29744C6.84275 12.1569 7.17697 12.404 7.17697 12.7216C7.17697 13.0215 6.9307 13.2156 6.7372 13.2685C7.1242 13.3038 7.40565 13.5685 7.40565 13.8861C7.40565 14.3096 6.9307 14.6095 6.43816 14.6095H5.50586C5.52345 14.6095 5.52345 12.1569 5.52345 12.1569ZM6.9307 13.9037C6.9307 13.6744 6.73721 13.4979 6.3678 13.4979H5.98081V14.3272H6.33262C6.71961 14.3272 6.9307 14.1508 6.9307 13.9037ZM6.20949 13.2156C6.50853 13.2156 6.71961 13.0568 6.71961 12.7921C6.71961 12.5804 6.5613 12.4216 6.20949 12.4216H5.98081V13.198L6.20949 13.2156ZM11.1173 13.392C11.1173 14.1684 10.5016 14.6624 9.7452 14.6624C8.95362 14.6624 8.37313 14.1684 8.37313 13.392C8.37313 12.6686 8.95362 12.1217 9.7452 12.1217C10.5895 12.1217 11.1173 12.651 11.1173 13.392ZM8.86567 13.392C8.86567 13.939 9.19989 14.3625 9.72761 14.3625C10.2553 14.3625 10.5895 13.9567 10.5895 13.392C10.5895 12.8451 10.2553 12.4216 9.72761 12.4216C9.21748 12.4216 8.86567 12.8274 8.86567 13.392ZM13.7207 14.6624L12.9643 13.5156H12.6828V14.6095H12.2255V12.1569H12.9819C13.6327 12.1569 13.9494 12.4745 13.9494 12.7921C13.9494 13.1274 13.6327 13.3568 13.4392 13.4097L14.266 14.6095C14.2484 14.6095 13.7207 14.6624 13.7207 14.6624ZM12.9291 13.2333C13.2985 13.2333 13.4744 13.0215 13.4744 12.8451C13.4744 12.651 13.3161 12.4569 12.9291 12.4569H12.6828V13.2333H12.9291ZM15.2862 14.6272H14.8641L15.9547 12.1746H16.2361L17.2212 14.6448H16.7463L16.5 14.0449H15.5325C15.5501 14.0096 15.2862 14.6272 15.2862 14.6272ZM16.0426 12.8451L15.6732 13.7273H16.3945L16.0426 12.8451ZM17.6258 12.1746H19.807V12.4922H18.9451V14.6272H18.4877V12.4922H17.6258V12.1746ZM23.1492 13.392C23.1492 14.1684 22.5336 14.6624 21.7772 14.6624C20.9856 14.6624 20.4051 14.1684 20.4051 13.392C20.4051 12.6686 20.968 12.1217 21.7772 12.1217C22.6215 12.1217 23.1492 12.651 23.1492 13.392ZM20.9152 13.392C20.9152 13.939 21.2495 14.3625 21.7772 14.3625C22.3049 14.3625 22.6391 13.9567 22.6391 13.392C22.6391 12.8451 22.3049 12.4216 21.7772 12.4216C21.2495 12.4393 20.9152 12.8274 20.9152 13.392ZM24.2575 14.6272V12.1746H24.7148V14.6272H24.2575ZM27.4414 14.6624L26.685 13.5156H26.4035V14.6272H25.9462V12.1746H26.7026C27.3534 12.1746 27.67 12.4922 27.67 12.8098C27.67 13.145 27.3534 13.3744 27.1599 13.4273L27.9867 14.6272L27.4414 14.6624ZM26.6498 13.2333C27.0192 13.2333 27.1951 13.0215 27.1951 12.8451C27.1951 12.651 27.0368 12.4569 26.6498 12.4569H26.4035V13.2333H26.6498ZM30.5725 14.6272H28.9366V12.1746H30.5197V12.4922H29.4115V13.2156H30.2207V13.5332H29.3939V14.3272H30.5549L30.5725 14.6272ZM33.2814 12.1746H34.1258C34.9877 12.1746 35.5858 12.6333 35.5858 13.392C35.5858 14.0978 34.8998 14.6272 34.1258 14.6272H33.2814C33.2638 14.6272 33.2814 12.1746 33.2814 12.1746ZM34.1258 14.3272C34.5831 14.3272 35.0757 13.9567 35.0757 13.4097C35.0757 12.7745 34.6007 12.5098 34.1082 12.5098H33.7388V14.3448C33.7388 14.3272 34.1258 14.3272 34.1258 14.3272ZM38.3124 14.6448H36.6764V12.1922H38.2596V12.5098H37.1514V13.2333H37.9781V13.5508H37.169V14.3448H38.3299V14.6448M40.863 14.6801L40.1066 13.5332H39.8251V14.6448H39.3678V12.1922H40.1242C40.775 12.1922 41.0917 12.5098 41.0917 12.8274C41.0917 13.1627 40.775 13.392 40.5815 13.445L41.4083 14.6448C41.3907 14.6448 40.863 14.6801 40.863 14.6801ZM40.0714 13.2509C40.4408 13.2509 40.6167 13.0392 40.6167 12.8627C40.6167 12.6686 40.4584 12.4745 40.0714 12.4745H39.8251V13.2509H40.0714ZM45.032 14.6448H44.5746L44.5394 12.9862L43.7654 14.6624H43.4664L42.7276 13.0215L42.6572 14.6448H42.2702L42.3758 12.1922H42.8156L43.6599 14.0978L44.5218 12.1922H44.944L45.032 14.6448ZM46.3689 14.6448H45.9467L47.0373 12.1746H47.3188L48.3038 14.6448H47.8465L47.6002 14.0449H46.6327L46.3689 14.6448ZM47.1428 12.8627L46.7734 13.7449H47.4947L47.1428 12.8627ZM48.7084 12.1922H50.8896V12.5098H50.0277V14.6448H49.5703V12.5098H48.7084V12.1922ZM54.2319 13.4273C54.2319 14.2037 53.6162 14.6977 52.8598 14.6977C52.0682 14.6977 51.4877 14.2037 51.4877 13.4273C51.4877 12.7039 52.0682 12.1569 52.8598 12.1569C53.7041 12.1393 54.2319 12.6863 54.2319 13.4273ZM51.9979 13.4273C51.9979 13.9743 52.3321 14.3978 52.8598 14.3978C53.3875 14.3978 53.7393 13.992 53.7393 13.4273C53.7393 12.8804 53.4051 12.4569 52.8774 12.4569C52.3321 12.4569 51.9979 12.8627 51.9979 13.4273ZM55.815 14.3448H56.8177V14.6448H55.3577V12.1922H55.815V14.3448ZM60.2479 13.4273C60.2479 14.2037 59.6322 14.6977 58.8758 14.6977C58.0842 14.6977 57.5037 14.2037 57.5037 13.4273C57.5037 12.7039 58.0666 12.1569 58.8758 12.1569C59.7201 12.1569 60.2479 12.6863 60.2479 13.4273ZM58.0138 13.4273C58.0138 13.9743 58.3481 14.3978 58.8758 14.3978C59.4035 14.3978 59.7377 13.992 59.7377 13.4273C59.7377 12.8804 59.4035 12.4569 58.8758 12.4569C58.3481 12.4569 58.0138 12.8627 58.0138 13.4273ZM62.6754 14.6977C61.831 14.6977 61.2505 14.1331 61.2505 13.4273C61.2505 12.7216 61.8486 12.1569 62.6754 12.1569C63.2031 12.1569 63.4493 12.2805 63.5725 12.3157L63.4318 12.6157C63.3438 12.5804 63.0799 12.4745 62.6929 12.4745C62.1652 12.4745 61.7431 12.898 61.7431 13.4273C61.7431 14.0096 62.2004 14.3801 62.7105 14.3801C62.992 14.3801 63.0975 14.3448 63.2031 14.3096V13.6038H63.6604V14.5213C63.5373 14.5742 63.2207 14.6977 62.6754 14.6977ZM64.751 14.6624V12.2099H65.2084V14.6624H64.751ZM69.0256 14.8212L68.8673 15.1741L67.2841 14.6624C66.6684 14.4507 66.3166 14.0802 66.3166 13.4273C66.3166 12.7039 66.8795 12.1569 67.6887 12.1569C68.533 12.1569 69.0608 12.6863 69.0608 13.4273C69.0608 14.0096 68.6562 14.486 68.1636 14.5919C68.1636 14.6095 69.0256 14.8212 69.0256 14.8212ZM66.8267 13.4273C66.8267 13.9743 67.161 14.3978 67.6887 14.3978C68.2164 14.3978 68.5682 13.992 68.5682 13.4273C68.5682 12.8804 68.234 12.4569 67.6887 12.4569C67.161 12.4745 66.8267 12.8804 66.8267 13.4273ZM72.2798 13.8508C72.2798 14.239 71.9632 14.7154 71.1892 14.7154C70.4856 14.7154 70.0986 14.3801 70.0986 13.8684V12.2099H70.5735V13.8155C70.5735 14.2037 70.767 14.3978 71.2244 14.3978C71.6642 14.3978 71.8577 14.1155 71.8577 13.8155V12.2099H72.2798V13.8508ZM75.1119 14.6624H73.476V12.2099H75.0592V12.5275H73.9509V13.2509H74.7601V13.5685H73.9509V14.3625H75.1119V14.6624Z" fill="var(--fill-0, #28303B)"/>
</g>
</svg>
