<svg preserveAspectRatio="none" width="100%" height="100%" overflow="visible" style="display: block;" viewBox="0 0 241.291 99.8613" fill="none" xmlns="http://www.w3.org/2000/svg">
<g id="Bu tatlar yak&#196;&#176;&#197;&#159;&#196;&#177;r diyorsan ac&#196;&#176; ve ek&#197;&#159;inin &#195;&#182;zel uyumunu dene!">
<path d="M39.8069 14.8248C39.8069 13.5429 39.5278 12.6125 38.9695 12.0336C38.4112 11.4339 37.5222 11.1341 36.3023 11.1341C35.4132 11.1341 34.6378 11.3306 33.9762 11.7234C33.7694 11.8268 33.666 11.9922 33.666 12.2196C33.666 12.3644 33.666 12.5815 33.666 12.8709C33.6867 13.1604 33.6971 13.3775 33.6971 13.5222C33.6971 13.8737 33.6867 14.401 33.666 15.104C33.666 15.7863 33.666 16.3032 33.666 16.6547C33.666 16.7374 33.6557 16.8821 33.635 17.0889C33.635 17.2957 33.635 17.4611 33.635 17.5851C33.635 18.5776 33.8004 19.0945 34.1313 19.1358C34.5448 19.1979 34.917 19.2289 35.2478 19.2289C36.6124 19.2289 37.7082 18.8464 38.5353 18.0814C39.383 17.3163 39.8069 16.2308 39.8069 14.8248ZM33.604 7.97068C33.604 8.23947 33.8211 8.37387 34.2553 8.37387C35.103 8.37387 36.0438 8.05339 37.0776 7.41242C38.1114 6.77146 38.6283 6.06847 38.6283 5.30345C38.6283 4.8279 38.5043 4.43505 38.2562 4.12491C38.0287 3.81476 37.6876 3.59766 37.2327 3.4736C36.7985 3.32887 36.3746 3.23583 35.9611 3.19448C35.5476 3.13245 35.0617 3.10143 34.5034 3.10143H33.7591C33.635 3.10143 33.573 4.01119 33.573 5.83069C33.573 6.22354 33.573 6.67842 33.573 7.19532C33.5937 7.69155 33.604 7.95 33.604 7.97068ZM30.6577 16.2205C30.6577 15.6002 30.668 14.7008 30.6887 13.5222C30.7093 12.3437 30.7197 11.4546 30.7197 10.855C30.7197 10.2347 30.7093 9.29396 30.6887 8.03271C30.668 6.77146 30.6577 5.82035 30.6577 5.17939C30.6577 5.05533 30.6577 4.87959 30.6577 4.65215C30.6783 4.42471 30.6887 4.2593 30.6887 4.15592L30.6577 3.78375C30.6577 3.63901 30.6473 3.42191 30.6266 3.13245C30.606 2.84298 30.5956 2.62588 30.5956 2.48115C30.5956 2.02627 30.6577 1.59207 30.7817 1.17854C30.9264 0.702991 32.1567 0.465215 34.4724 0.465215C35.4235 0.465215 36.3023 0.537582 37.1086 0.682315C37.9357 0.827049 38.7214 1.06483 39.4657 1.39564C40.2101 1.72646 40.7993 2.21236 41.2335 2.85332C41.6677 3.49428 41.8952 4.2593 41.9159 5.14838C41.9159 5.87204 41.7711 6.50267 41.4817 7.04025C41.1922 7.57783 40.8717 7.97068 40.5202 8.2188C40.1894 8.44623 39.8792 8.653 39.5898 8.83908C39.3003 9.02517 39.1556 9.15956 39.1556 9.24227C39.1556 9.26294 39.1659 9.27328 39.1866 9.27328C39.3313 9.27328 39.5898 9.40768 39.962 9.67647C40.3548 9.92458 40.789 10.2657 41.2646 10.6999C41.7401 11.1341 42.164 11.7338 42.5361 12.4988C42.9083 13.2431 43.1047 14.0392 43.1254 14.8869V15.166C43.1254 17.7092 42.2777 19.6734 40.5822 21.0587C38.8868 22.4234 36.7365 23.1057 34.1313 23.1057H33.4489C33.0768 23.1057 32.7666 23.0953 32.5185 23.0747C32.2704 23.054 31.9913 23.0023 31.6811 22.9196C31.3917 22.8369 31.1642 22.6921 30.9988 22.4854C30.8334 22.2786 30.7507 22.0202 30.7507 21.71C30.6887 19.9112 30.6577 18.0814 30.6577 16.2205Z" fill="var(--fill-0, white)"/>
<path d="M50.817 23.2607C49.9486 23.2607 49.1732 23.0953 48.4909 22.7645C47.8292 22.413 47.2813 21.9892 46.8471 21.4929C46.4129 20.976 46.0304 20.2834 45.6996 19.415C45.3895 18.5259 45.1517 17.7092 44.9863 16.9648C44.8415 16.1998 44.7278 15.228 44.6451 14.0495C44.5624 12.8709 44.5107 11.8888 44.49 11.1031C44.4694 10.3174 44.459 9.31463 44.459 8.09474V6.38895C44.459 5.29311 44.5624 4.23862 44.7692 3.22549C44.9553 2.35709 45.2137 1.70579 45.5445 1.27159C45.896 0.837387 46.2889 0.620286 46.7231 0.620286C47.6121 0.620286 48.1704 1.70579 48.3978 3.87679C48.4599 4.43505 48.4909 5.03466 48.4909 5.67562C48.4909 6.48199 48.4289 7.8673 48.3048 9.83154C48.2014 11.7751 48.1497 13.1914 48.1497 14.0805C48.1497 15.7553 48.4082 17.1302 48.9251 18.2054C49.442 19.2806 50.1967 19.8182 51.1891 19.8182C52.6985 19.8182 53.7426 18.8567 54.3216 16.9338C54.6938 15.776 54.9522 14.3906 55.0969 12.7779C55.2417 11.1652 55.314 9.67647 55.314 8.31184C55.3347 6.92653 55.3657 5.61359 55.4071 4.37302C55.4691 3.13245 55.6138 2.15033 55.8413 1.42666C56.0894 0.702991 56.4822 0.341158 57.0198 0.341158C57.3506 0.341158 57.6194 0.423862 57.8262 0.589272C58.0536 0.754682 58.1984 1.01313 58.2604 1.36463C58.3431 1.71613 58.3948 2.02627 58.4155 2.29506C58.4361 2.56385 58.4465 2.94636 58.4465 3.44259V3.56665C58.4465 4.43505 58.4155 5.23108 58.3534 5.95475C58.2914 6.69909 58.2087 7.77426 58.1053 9.18024C58.0226 10.5862 57.9503 11.7131 57.8882 12.5608C57.8262 13.4085 57.6815 14.3906 57.454 15.5072C57.2473 16.603 56.9785 17.5644 56.6477 18.3915C55.8413 20.5211 54.5077 22.0512 52.6468 22.9816C52.2746 23.1677 51.6647 23.2607 50.817 23.2607Z" fill="var(--fill-0, white)"/>
<path d="M74.5119 0.775358C75.6491 0.775358 76.4141 0.93043 76.807 1.24057C77.1998 1.53004 77.3962 2.0883 77.3962 2.91535C77.3962 3.99051 76.6622 4.52809 75.1942 4.52809H74.2328C73.9847 4.52809 73.8399 4.63147 73.7986 4.83823C73.7365 5.33446 73.7055 5.84103 73.7055 6.35794C73.7055 6.93687 73.6952 7.80527 73.6745 8.96314C73.6745 10.1003 73.6745 10.9687 73.6745 11.5683C73.7572 13.2638 73.7986 15.869 73.7986 19.384V20.2834C73.7986 20.4281 73.7882 20.6555 73.7676 20.9657C73.7676 21.2758 73.7676 21.5136 73.7676 21.679C73.7676 22.6508 73.1886 23.1367 72.0308 23.1367C71.5138 23.1367 71.1003 22.9713 70.7902 22.6405C70.5007 22.289 70.356 21.8444 70.356 21.3068C70.356 20.2317 70.3663 19.5804 70.387 19.3529C70.5938 17.3473 70.6971 13.8531 70.6971 8.8701C70.6971 6.01678 70.6041 4.59012 70.418 4.59012H69.5806C69.1878 4.59012 68.8053 4.55911 68.4331 4.49708C68.1643 4.45572 67.9369 4.30065 67.7508 4.03186C67.5647 3.76307 67.4716 3.48394 67.4716 3.19448C67.4716 2.92568 67.4923 2.62588 67.5337 2.29506C67.575 1.94356 67.6474 1.67477 67.7508 1.48869C67.8542 1.28193 68.0196 1.13719 68.247 1.05449C68.4744 0.971782 68.6605 0.93043 68.8053 0.93043C68.95 0.909753 69.2291 0.889077 69.6427 0.868401C71.5449 0.827049 72.7854 0.806372 73.3644 0.806372C73.4678 0.806372 73.6435 0.806372 73.8916 0.806372C74.1604 0.785696 74.3672 0.775358 74.5119 0.775358Z" fill="var(--fill-0, white)"/>
<path d="M83.1649 14.6077C83.3717 14.5664 83.475 14.432 83.475 14.2046V14.1115C83.0822 10.6586 82.6687 7.8673 82.2345 5.73765C82.1931 5.57224 82.1311 5.48953 82.0484 5.48953H82.0174C81.9553 5.48953 81.914 5.49987 81.8933 5.52055C81.8726 5.54123 81.8623 5.58258 81.8623 5.64461C81.8623 5.68596 81.8623 5.71697 81.8623 5.73765C80.8698 10.183 80.2599 13.0777 80.0324 14.4217V14.5147C80.0324 14.7215 80.1152 14.8248 80.2806 14.8248C81.3351 14.8248 82.2965 14.7525 83.1649 14.6077ZM87.8791 21.8651C87.8791 22.1959 87.693 22.5061 87.3208 22.7955C86.9486 23.085 86.6075 23.2297 86.2973 23.2297C85.2429 23.2297 84.6019 22.5578 84.3745 21.2138C84.3331 20.9243 84.2504 20.4901 84.1263 19.9112C84.0023 19.3116 83.9092 18.8154 83.8472 18.4225C83.8265 18.2778 83.7542 18.1537 83.6301 18.0503C83.5267 17.947 83.413 17.8953 83.289 17.8953H83.2579C82.8444 17.9366 82.4929 17.9573 82.2035 17.9573C82.038 17.9573 81.7899 17.9573 81.4591 17.9573C81.149 17.9366 80.9215 17.9263 80.7768 17.9263C80.446 17.9263 80.2082 17.9366 80.0635 17.9573C79.712 18.0193 79.5155 18.2985 79.4742 18.7947C79.4328 19.415 79.3812 19.9422 79.3191 20.3764C79.2571 20.8106 79.1434 21.2655 78.978 21.741C78.8332 22.2166 78.6058 22.5784 78.2956 22.8265C77.9855 23.0747 77.6133 23.1987 77.1791 23.1987C76.6209 23.1987 76.228 23.0953 76.0006 22.8886C75.7938 22.6611 75.6904 22.3303 75.6904 21.8961C75.6904 21.5653 75.7215 21.2138 75.7835 20.8416C76.6519 15.5278 78.1923 9.41802 80.4046 2.51216C80.6734 1.68511 80.9525 1.05449 81.242 0.620286C81.3247 0.496229 81.4901 0.361834 81.7382 0.2171C82.007 0.0723668 82.2758 0 82.5446 0C82.8754 0 83.1649 0.103381 83.413 0.310143C83.6818 0.516905 83.8886 0.827049 84.0333 1.24057C84.1987 1.6541 84.3228 2.00559 84.4055 2.29506C84.4882 2.56385 84.5709 2.91535 84.6536 3.34955C84.9637 5.00364 85.4393 7.75358 86.0802 11.5994C86.7212 15.4451 87.2381 18.3398 87.631 20.2834C87.7964 21.0691 87.8791 21.5963 87.8791 21.8651Z" fill="var(--fill-0, white)"/>
<path d="M96.9353 1.92289C96.9353 2.81197 96.7492 3.40124 96.377 3.6907C96.0048 3.98017 95.4776 4.12491 94.7953 4.12491C94.7126 4.12491 94.6505 4.12491 94.6092 4.12491C94.5885 4.10423 94.4851 4.09389 94.299 4.09389H93.8648C93.4306 4.09389 93.2032 4.24896 93.1825 4.55911C93.0791 6.54402 93.0275 8.94246 93.0275 11.7544V17.0889C93.0275 17.3784 93.0378 17.9366 93.0585 18.7637C93.0791 19.5907 93.0895 20.1386 93.0895 20.4074C93.0895 21.3172 92.9758 21.9581 92.7483 22.3303C92.5416 22.6818 92.066 22.8576 91.3217 22.8576C90.598 22.8576 90.2362 22.1235 90.2362 20.6555C90.2362 19.4977 90.2362 17.9676 90.2362 16.0654C90.2568 14.1425 90.2672 12.6538 90.2672 11.5994C90.2672 10.7103 90.2568 9.55241 90.2362 8.12575C90.2155 6.67842 90.2051 5.52055 90.2051 4.65215V4.55911C90.2051 4.24896 89.9364 4.09389 89.3988 4.09389H88.5304C88.3029 4.09389 88.1065 4.10423 87.9411 4.12491C87.7964 4.14558 87.6826 4.15592 87.5999 4.15592C86.7109 4.15592 86.2663 3.51496 86.2663 2.23303C86.2663 1.50936 86.4111 1.04415 86.7005 0.837387C87.0107 0.630625 87.5689 0.516905 88.3753 0.496229C88.52 0.496229 88.7475 0.496229 89.0576 0.496229C89.3678 0.475553 89.6055 0.465215 89.771 0.465215H91.4767C92.6139 0.465215 93.4617 0.454877 94.0199 0.434201H94.5161C95.5293 0.434201 96.1806 0.506567 96.47 0.651301C96.7802 0.796034 96.9353 1.2199 96.9353 1.92289Z" fill="var(--fill-0, white)"/>
<path d="M106.922 20.9967C106.922 21.741 106.488 22.2476 105.619 22.5164C104.772 22.7852 103.49 22.9196 101.773 22.9196C100.243 22.9196 99.251 22.7128 98.7961 22.2993C98.3619 21.8651 98.1448 20.9243 98.1448 19.477C98.1448 17.9263 98.1862 15.7966 98.2689 13.088C98.3723 10.3795 98.4239 8.3015 98.4239 6.85417V4.09389C98.4239 3.57699 98.4343 3.16346 98.455 2.85332C98.4963 2.5225 98.5583 2.18134 98.641 1.82985C98.7444 1.47835 98.9098 1.19922 99.1373 0.992458C99.3854 0.76502 99.6955 0.609948 100.068 0.527243H100.285C100.636 0.527243 100.946 0.754682 101.215 1.20956C101.484 1.66444 101.618 2.23303 101.618 2.91535C101.618 3.0394 101.608 3.2565 101.587 3.56665C101.587 3.85611 101.587 4.07321 101.587 4.21795C101.587 4.6108 101.577 5.16905 101.556 5.89272C101.556 6.59571 101.556 7.07127 101.556 7.31938C101.556 7.75358 101.546 8.44623 101.525 9.39734C101.525 10.3278 101.525 11.0308 101.525 11.5063C101.525 12.4161 101.546 13.698 101.587 15.3521C101.587 15.5175 101.587 15.869 101.587 16.4066C101.608 16.9235 101.618 17.4094 101.618 17.8643C101.639 18.2985 101.67 18.6396 101.711 18.8877C101.753 19.1772 101.939 19.3219 102.27 19.3219H103.541C103.748 19.3219 104.027 19.3219 104.379 19.3219C104.751 19.3012 105.02 19.2909 105.185 19.2909H105.247C105.661 19.2909 105.96 19.3116 106.147 19.3529C106.353 19.3943 106.529 19.5494 106.674 19.8182C106.839 20.0663 106.922 20.4591 106.922 20.9967Z" fill="var(--fill-0, white)"/>
<path d="M113.993 6.23388C113.766 6.23388 113.445 7.2987 113.032 9.42835C112.618 11.558 112.411 12.902 112.411 13.4602C112.411 13.4809 112.401 13.4912 112.38 13.4912C112.36 13.4912 112.349 13.5016 112.349 13.5222C112.349 13.729 112.504 13.8324 112.815 13.8324H112.846L113.807 13.7393C114.427 13.6773 114.944 13.5946 115.358 13.4912C115.792 13.3672 116.009 13.2121 116.009 13.026C116.009 12.6125 115.72 11.3823 115.141 9.33531C114.562 7.26769 114.179 6.23388 113.993 6.23388ZM109.806 23.2918C108.669 23.2918 108.1 22.5888 108.1 21.1828C108.1 21.038 108.162 20.3764 108.286 19.1979C109.382 11.0308 110.974 5.01398 113.063 1.14753C113.29 0.734006 113.621 0.527243 114.055 0.527243C114.903 0.527243 115.885 2.15033 117.002 5.39649C118.118 8.62198 119.038 11.9612 119.762 15.4141C120.485 18.8464 120.847 21.1208 120.847 22.2373C120.847 22.5681 120.692 22.8265 120.382 23.0126C120.072 23.2194 119.71 23.3228 119.297 23.3228C118.635 23.3228 118.139 22.9713 117.808 22.2683C117.477 21.5446 117.291 20.7589 117.25 19.9112C117.208 19.0428 117.105 18.2571 116.939 17.5541C116.774 16.8304 116.505 16.4686 116.133 16.4686H115.947C115.844 16.4893 115.389 16.5306 114.582 16.5927C113.776 16.634 113.125 16.7374 112.629 16.9028C112.132 17.0475 111.874 17.275 111.853 17.5851C111.853 17.6678 111.843 17.8953 111.822 18.2674C111.801 18.6189 111.781 18.8877 111.76 19.0738C111.76 19.2392 111.739 19.508 111.698 19.8802C111.677 20.2524 111.646 20.5418 111.605 20.7486C111.564 20.9553 111.512 21.2138 111.45 21.5239C111.388 21.8134 111.305 22.0512 111.202 22.2373C111.098 22.4234 110.985 22.6094 110.861 22.7955C110.737 22.9609 110.582 23.085 110.395 23.1677C110.209 23.2504 110.013 23.2918 109.806 23.2918Z" fill="var(--fill-0, white)"/>
<path d="M126.213 3.22549C125.861 3.22549 125.665 3.58732 125.624 4.31099C125.624 4.49708 125.613 4.76587 125.592 5.11736C125.572 5.46886 125.551 5.78934 125.53 6.07881C125.53 6.36827 125.53 6.6474 125.53 6.91619C125.53 7.41242 125.551 8.14643 125.592 9.11821C125.634 10.0693 125.655 10.6689 125.655 10.917C125.696 11.2479 125.799 11.4133 125.965 11.4133H125.996C127.05 11.2892 127.763 10.9791 128.136 10.4828C128.529 9.96594 128.725 9.13889 128.725 8.0017C128.725 7.27803 128.704 6.69909 128.663 6.26489C128.622 5.81002 128.518 5.32413 128.353 4.80722C128.208 4.26964 127.95 3.87679 127.577 3.62868C127.226 3.35988 126.771 3.22549 126.213 3.22549ZM123.546 23.1367C122.925 23.1367 122.501 22.9713 122.274 22.6405C122.067 22.3096 121.964 21.8237 121.964 21.1828C121.964 20.211 121.995 18.8154 122.057 16.9958C122.119 15.1763 122.15 13.8014 122.15 12.8709C122.15 12.0852 122.14 11.496 122.119 11.1031C122.036 8.49792 121.995 6.40963 121.995 4.83823V3.4736C121.995 2.19168 122.212 1.36463 122.646 0.992458C123.08 0.59961 123.949 0.403186 125.251 0.403186C126.389 0.403186 127.36 0.527243 128.167 0.775358C128.642 0.940768 129.004 1.09584 129.252 1.24057C130.431 1.90221 131.154 3.37022 131.423 5.64461C131.527 6.51301 131.578 7.37107 131.578 8.2188C131.578 9.25261 131.496 10.183 131.33 11.0101C131.185 11.8371 130.875 12.5608 130.4 13.1811C129.924 13.8014 129.314 14.1115 128.57 14.1115C128.301 14.1115 128.167 14.2046 128.167 14.3906C128.167 14.4734 128.229 14.5974 128.353 14.7628C130.379 17.5128 131.692 19.5287 132.292 20.8106C132.436 21.1001 132.509 21.3999 132.509 21.71C132.509 22.1442 132.385 22.5267 132.137 22.8576C131.909 23.1677 131.63 23.3228 131.299 23.3228C130.989 23.3228 130.689 23.2504 130.4 23.1057C130.131 22.9816 129.893 22.8472 129.686 22.7025C129.5 22.5371 129.294 22.289 129.066 21.9581C128.839 21.6066 128.673 21.3585 128.57 21.2138C128.487 21.0484 128.332 20.7589 128.105 20.3454C127.898 19.9319 127.784 19.7044 127.763 19.6631C127.474 19.1048 127.143 18.3812 126.771 17.4921C126.399 16.5823 126.089 15.869 125.841 15.3521C125.758 15.1867 125.644 15.104 125.499 15.104C125.334 15.104 125.251 15.4348 125.251 16.0964C125.251 16.2618 125.251 16.4789 125.251 16.7477C125.272 17.0165 125.282 17.1819 125.282 17.244C125.282 17.43 125.313 18.0814 125.375 19.1979C125.458 20.2937 125.499 21.0691 125.499 21.5239C125.499 22.1649 125.334 22.5991 125.003 22.8265C124.672 23.0333 124.187 23.1367 123.546 23.1367Z" fill="var(--fill-0, white)"/>
<path d="M147.675 18.1124C147.675 18.836 147.644 19.4667 147.582 20.0042C147.54 20.5418 147.447 21.0897 147.303 21.648C147.158 22.2063 146.92 22.6301 146.589 22.9196C146.258 23.2297 145.845 23.3848 145.349 23.3848C145.038 23.3848 144.78 23.2607 144.573 23.0126C144.387 22.7852 144.253 22.4234 144.17 21.9271C144.108 21.4102 144.067 20.9553 144.046 20.5625C144.025 20.149 144.015 19.6011 144.015 18.9187V15.0419C144.015 13.8634 144.036 12.902 144.077 12.1576C143.539 11.2065 143.157 10.5242 142.929 10.1107C142.723 9.67647 142.464 9.05618 142.154 8.24981C141.844 7.44344 141.586 6.5647 141.379 5.61359C141.193 4.8279 141.1 4.0422 141.1 3.2565C141.1 1.80917 141.472 1.0855 142.216 1.0855C143.229 1.0855 143.974 2.24337 144.449 4.55911C144.697 5.71697 144.987 6.81281 145.318 7.84662C145.669 8.88043 145.948 9.39734 146.155 9.39734C146.444 9.39734 147.23 7.53648 148.512 3.81476C148.781 3.02907 149.132 2.32607 149.567 1.70579C150.021 1.06483 150.445 0.744344 150.838 0.744344C151.624 0.744344 152.017 1.28193 152.017 2.35709C152.017 3.41158 151.665 4.77621 150.962 6.45098C149.742 9.26294 148.657 11.3409 147.706 12.6849C147.706 13.0364 147.695 13.3465 147.675 13.6153C147.675 13.8634 147.664 14.0805 147.644 14.2666C147.644 14.432 147.644 14.6594 147.644 14.9489C147.644 15.2797 147.644 15.7966 147.644 16.4996C147.664 17.1819 147.675 17.7195 147.675 18.1124Z" fill="var(--fill-0, white)"/>
<path d="M156.235 6.23388C156.007 6.23388 155.687 7.2987 155.273 9.42835C154.86 11.558 154.653 12.902 154.653 13.4602C154.653 13.4809 154.643 13.4912 154.622 13.4912C154.601 13.4912 154.591 13.5016 154.591 13.5222C154.591 13.729 154.746 13.8324 155.056 13.8324H155.087L156.049 13.7393C156.669 13.6773 157.186 13.5946 157.599 13.4912C158.033 13.3672 158.251 13.2121 158.251 13.026C158.251 12.6125 157.961 11.3823 157.382 9.33531C156.803 7.26769 156.421 6.23388 156.235 6.23388ZM152.048 23.2918C150.911 23.2918 150.342 22.5888 150.342 21.1828C150.342 21.038 150.404 20.3764 150.528 19.1979C151.624 11.0308 153.216 5.01398 155.304 1.14753C155.532 0.734006 155.862 0.527243 156.297 0.527243C157.144 0.527243 158.127 2.15033 159.243 5.39649C160.36 8.62198 161.28 11.9612 162.003 15.4141C162.727 18.8464 163.089 21.1208 163.089 22.2373C163.089 22.5681 162.934 22.8265 162.624 23.0126C162.313 23.2194 161.952 23.3228 161.538 23.3228C160.876 23.3228 160.38 22.9713 160.049 22.2683C159.719 21.5446 159.532 20.7589 159.491 19.9112C159.45 19.0428 159.346 18.2571 159.181 17.5541C159.016 16.8304 158.747 16.4686 158.375 16.4686H158.189C158.085 16.4893 157.63 16.5306 156.824 16.5927C156.018 16.634 155.366 16.7374 154.87 16.9028C154.374 17.0475 154.115 17.275 154.095 17.5851C154.095 17.6678 154.084 17.8953 154.064 18.2674C154.043 18.6189 154.022 18.8877 154.002 19.0738C154.002 19.2392 153.981 19.508 153.94 19.8802C153.919 20.2524 153.888 20.5418 153.847 20.7486C153.805 20.9553 153.753 21.2138 153.691 21.5239C153.629 21.8134 153.547 22.0512 153.443 22.2373C153.34 22.4234 153.226 22.6094 153.102 22.7955C152.978 22.9609 152.823 23.085 152.637 23.1677C152.451 23.2504 152.254 23.2918 152.048 23.2918Z" fill="var(--fill-0, white)"/>
<path d="M167.834 4.43505C167.834 4.43505 167.834 5.05533 167.834 6.29591C167.813 7.53648 167.803 8.2188 167.803 8.34285C167.803 9.25261 167.855 9.70748 167.958 9.70748C168.061 9.70748 168.692 8.94246 169.85 7.41242C170.036 7.12296 170.315 6.71977 170.687 6.20286C171.059 5.68596 171.339 5.28277 171.525 4.99331C171.835 4.53843 172.29 3.9078 172.889 3.10143C173.51 2.27438 173.913 1.72646 174.099 1.45767C174.409 1.06483 174.874 0.868401 175.495 0.868401C175.908 0.868401 176.26 0.971782 176.549 1.17854C176.859 1.36463 177.014 1.63342 177.014 1.98492C177.014 2.46047 176.766 3.0394 176.27 3.72172C176.063 4.01119 175.577 4.68316 174.812 5.73765C174.047 6.77146 173.468 7.57783 173.075 8.15677C172.889 8.44623 172.569 8.89077 172.114 9.49038C171.659 10.0693 171.339 10.5035 171.153 10.793C171.008 11.0204 170.935 11.1548 170.935 11.1962C170.935 11.2168 171.018 11.3719 171.184 11.6614C171.452 12.0542 171.856 12.6538 172.393 13.4602C172.931 14.2666 173.417 14.9592 173.851 15.5382C174.037 15.7863 174.306 16.1481 174.657 16.6237C175.009 17.0786 175.267 17.4197 175.432 17.6472C176.57 19.1152 177.138 20.1593 177.138 20.7796C177.138 21.1518 176.901 21.5653 176.425 22.0202C175.949 22.4544 175.308 22.6715 174.502 22.6715C173.861 22.6715 173.199 22.1959 172.517 21.2448C171.835 20.273 171.163 19.1255 170.501 17.8022C169.86 16.4789 169.426 15.6726 169.199 15.3831C168.744 14.8042 168.444 14.3803 168.299 14.1115C168.113 14.1115 168.02 14.2046 168.02 14.3906C168.02 16.6444 168.092 18.7947 168.237 20.8416C168.237 20.9037 168.237 20.9864 168.237 21.0897C168.258 21.1931 168.268 21.2655 168.268 21.3068C168.268 22.6921 167.648 23.3848 166.407 23.3848C165.849 23.3848 165.374 23.147 164.981 22.6715C164.608 22.1752 164.371 21.4619 164.267 20.5315C164.226 20.0559 164.205 19.4563 164.205 18.7327C164.205 18.4225 164.205 17.8953 164.205 17.1509C164.226 16.3859 164.236 15.7656 164.236 15.2901C164.236 13.9461 164.247 11.9922 164.267 9.42835C164.309 6.8645 164.329 4.93128 164.329 3.62868C164.329 1.56105 164.867 0.527243 165.942 0.527243C166.376 0.527243 166.728 0.620286 166.997 0.806372C167.286 0.992458 167.482 1.29226 167.586 1.70579C167.689 2.11931 167.751 2.49148 167.772 2.8223C167.813 3.15312 167.834 3.608 167.834 4.18693V4.43505Z" fill="var(--fill-0, white)"/>
<path d="M178.689 2.85332C178.689 2.171 178.823 1.61274 179.092 1.17854C179.361 0.744344 179.775 0.527243 180.333 0.527243C181.139 0.589272 181.542 1.13719 181.542 2.171V3.44259C181.542 4.20761 181.563 5.3448 181.604 6.85417C181.646 8.34285 181.666 9.42835 181.666 10.1107C181.666 10.5035 181.656 11.0825 181.635 11.8475C181.615 12.5918 181.604 13.1604 181.604 13.5533C181.604 13.9875 181.604 14.5871 181.604 15.3521C181.625 16.0964 181.635 16.665 181.635 17.0579C181.635 17.368 181.635 17.9056 181.635 18.6706C181.656 19.4356 181.666 19.9732 181.666 20.2834C181.666 22.0202 181.243 22.8886 180.395 22.8886C180.023 22.8886 179.712 22.8162 179.464 22.6715C179.216 22.5267 179.02 22.3613 178.875 22.1752C178.751 21.9685 178.658 21.648 178.596 21.2138C178.534 20.7796 178.493 20.4074 178.472 20.0973C178.472 19.7665 178.472 19.2702 178.472 18.6086V17.0579C178.472 16.8511 178.462 16.5513 178.441 16.1585C178.441 15.7656 178.441 15.4761 178.441 15.2901C178.441 11.465 178.524 7.31938 178.689 2.85332Z" fill="var(--fill-0, white)"/>
<path d="M188.179 0.434201C190.061 0.434201 191.364 0.889077 192.087 1.79883C192.811 2.68791 193.173 3.93882 193.173 5.55156C193.173 6.19253 193.038 6.65774 192.77 6.94721C192.501 7.23668 192.18 7.38141 191.808 7.38141C191.353 7.38141 190.96 7.23668 190.63 6.94721C190.319 6.65774 190.164 6.18219 190.164 5.52055C190.164 5.25176 190.144 5.02432 190.102 4.83823C190.082 4.65215 190.02 4.43505 189.916 4.18693C189.813 3.91814 189.627 3.71138 189.358 3.56665C189.089 3.42191 188.738 3.34955 188.303 3.34955C187.849 3.34955 187.445 3.59766 187.094 4.09389C186.763 4.56944 186.598 5.06567 186.598 5.58258C186.598 6.24422 186.856 6.92653 187.373 7.62952C187.89 8.31184 188.51 8.98382 189.234 9.64545C189.978 10.2864 190.712 10.9791 191.436 11.7234C192.18 12.4678 192.811 13.3672 193.328 14.4217C193.845 15.4761 194.103 16.6133 194.103 17.8332C194.103 19.3012 193.762 20.5211 193.08 21.4929C192.645 22.0925 192.211 22.5371 191.777 22.8265C191.343 23.116 190.805 23.3021 190.164 23.3848C190.123 23.5916 190.03 23.8604 189.885 24.1912C189.74 24.522 189.368 25.0079 188.769 25.6488L187.869 26.6103C187.27 27.334 186.639 27.6958 185.977 27.6958C185.274 27.6958 184.923 27.489 184.923 27.0755C184.923 26.8894 184.995 26.6516 185.14 26.3622C185.305 26.0727 185.471 25.8143 185.636 25.5868C185.822 25.3594 186.029 25.0906 186.257 24.7804C186.505 24.491 186.66 24.3049 186.722 24.2222C186.804 24.0775 187.063 23.788 187.497 23.3538C186.339 23.0436 185.367 22.3303 184.582 21.2138C183.796 20.0766 183.403 18.7637 183.403 17.275C183.403 16.5927 183.569 15.9931 183.899 15.4761C184.251 14.9386 184.726 14.6698 185.326 14.6698C185.719 14.6698 186.008 14.8248 186.194 15.135C186.401 15.4245 186.515 15.7243 186.536 16.0344C186.639 17.6058 186.804 18.6189 187.032 19.0738C187.342 19.6734 187.88 19.9732 188.645 19.9732C189.306 19.9732 189.802 19.7044 190.133 19.1669C190.464 18.6086 190.63 17.978 190.63 17.275C190.63 16.3652 190.454 15.5382 190.102 14.7938C189.751 14.0288 189.306 13.4085 188.769 12.933C188.252 12.4367 187.683 11.9302 187.063 11.4133C186.443 10.8757 185.864 10.3795 185.326 9.92458C184.809 9.46971 184.375 8.89077 184.023 8.18778C183.672 7.48479 183.496 6.71977 183.496 5.89272C183.496 4.38336 183.93 3.10143 184.799 2.04695C185.688 0.971782 186.815 0.434201 188.179 0.434201Z" fill="var(--fill-0, white)"/>
<path d="M195.902 2.85332C195.902 2.171 196.036 1.61274 196.305 1.17854C196.574 0.744344 196.987 0.527243 197.546 0.527243C198.352 0.589272 198.755 1.13719 198.755 2.171V3.44259C198.755 4.20761 198.776 5.3448 198.817 6.85417C198.859 8.34285 198.879 9.42835 198.879 10.1107C198.879 10.5035 198.869 11.0825 198.848 11.8475C198.828 12.5918 198.817 13.1604 198.817 13.5533C198.817 13.9875 198.817 14.5871 198.817 15.3521C198.838 16.0964 198.848 16.665 198.848 17.0579C198.848 17.368 198.848 17.9056 198.848 18.6706C198.869 19.4356 198.879 19.9732 198.879 20.2834C198.879 22.0202 198.455 22.8886 197.608 22.8886C197.236 22.8886 196.925 22.8162 196.677 22.6715C196.429 22.5267 196.233 22.3613 196.088 22.1752C195.964 21.9685 195.871 21.648 195.809 21.2138C195.747 20.7796 195.706 20.4074 195.685 20.0973C195.685 19.7665 195.685 19.2702 195.685 18.6086V17.0579C195.685 16.8511 195.675 16.5513 195.654 16.1585C195.654 15.7656 195.654 15.4761 195.654 15.2901C195.654 11.465 195.737 7.31938 195.902 2.85332Z" fill="var(--fill-0, white)"/>
<path d="M205.113 3.22549C204.762 3.22549 204.565 3.58732 204.524 4.31099C204.524 4.49708 204.514 4.76587 204.493 5.11736C204.472 5.46886 204.452 5.78934 204.431 6.07881C204.431 6.36827 204.431 6.6474 204.431 6.91619C204.431 7.41242 204.452 8.14643 204.493 9.11821C204.534 10.0693 204.555 10.6689 204.555 10.917C204.596 11.2479 204.7 11.4133 204.865 11.4133H204.896C205.951 11.2892 206.664 10.9791 207.036 10.4828C207.429 9.96594 207.625 9.13889 207.625 8.0017C207.625 7.27803 207.605 6.69909 207.563 6.26489C207.522 5.81002 207.419 5.32413 207.253 4.80722C207.108 4.26964 206.85 3.87679 206.478 3.62868C206.126 3.35988 205.671 3.22549 205.113 3.22549ZM202.446 23.1367C201.826 23.1367 201.402 22.9713 201.174 22.6405C200.968 22.3096 200.864 21.8237 200.864 21.1828C200.864 20.211 200.895 18.8154 200.957 16.9958C201.019 15.1763 201.05 13.8014 201.05 12.8709C201.05 12.0852 201.04 11.496 201.019 11.1031C200.937 8.49792 200.895 6.40963 200.895 4.83823V3.4736C200.895 2.19168 201.112 1.36463 201.547 0.992458C201.981 0.59961 202.849 0.403186 204.152 0.403186C205.289 0.403186 206.261 0.527243 207.067 0.775358C207.543 0.940768 207.904 1.09584 208.153 1.24057C209.331 1.90221 210.055 3.37022 210.324 5.64461C210.427 6.51301 210.479 7.37107 210.479 8.2188C210.479 9.25261 210.396 10.183 210.231 11.0101C210.086 11.8371 209.776 12.5608 209.3 13.1811C208.825 13.8014 208.215 14.1115 207.47 14.1115C207.202 14.1115 207.067 14.2046 207.067 14.3906C207.067 14.4734 207.129 14.5974 207.253 14.7628C209.279 17.5128 210.592 19.5287 211.192 20.8106C211.337 21.1001 211.409 21.3999 211.409 21.71C211.409 22.1442 211.285 22.5267 211.037 22.8576C210.81 23.1677 210.53 23.3228 210.2 23.3228C209.889 23.3228 209.59 23.2504 209.3 23.1057C209.031 22.9816 208.794 22.8472 208.587 22.7025C208.401 22.5371 208.194 22.289 207.967 21.9581C207.739 21.6066 207.574 21.3585 207.47 21.2138C207.388 21.0484 207.233 20.7589 207.005 20.3454C206.798 19.9319 206.685 19.7044 206.664 19.6631C206.374 19.1048 206.044 18.3812 205.671 17.4921C205.299 16.5823 204.989 15.869 204.741 15.3521C204.658 15.1867 204.545 15.104 204.4 15.104C204.234 15.104 204.152 15.4348 204.152 16.0964C204.152 16.2618 204.152 16.4789 204.152 16.7477C204.172 17.0165 204.183 17.1819 204.183 17.244C204.183 17.43 204.214 18.0814 204.276 19.1979C204.359 20.2937 204.4 21.0691 204.4 21.5239C204.4 22.1649 204.234 22.5991 203.904 22.8265C203.573 23.0333 203.087 23.1367 202.446 23.1367Z" fill="var(--fill-0, white)"/>
<path d="M3.78375 41.1536H3.62868C3.31853 41.1536 3.16346 41.3294 3.16346 41.6809V42.8904C3.16346 43.5521 3.15312 44.5032 3.13245 45.7437C3.11177 46.9636 3.10143 47.9664 3.10143 48.7521V51.3263C3.10143 55.4822 3.16346 57.5602 3.28752 57.5602C5.21041 57.5602 6.51301 56.9192 7.19532 55.6373C7.87764 54.3347 8.21879 52.2051 8.21879 49.2484V47.8527C8.21879 46.8603 8.19812 46.0849 8.15677 45.5266C8.11541 44.9684 8.01203 44.3894 7.84662 43.7898C7.70189 43.1696 7.47445 42.7043 7.16431 42.3942C6.85416 42.084 6.41996 41.8153 5.86171 41.5878C5.30345 41.3604 4.6108 41.2157 3.78375 41.1536ZM2.35709 60.9408C1.61274 60.9408 1.04415 60.7753 0.651301 60.4445C0.258453 60.093 0.0516905 59.4417 0.0310143 58.4906C0.0310143 58.47 0.0206762 58.3976 0 58.2735C0 58.1288 0 58.0461 0 58.0254C0 57.0123 0.0206762 55.6063 0.0620286 53.8075C0.103381 51.988 0.124057 50.5613 0.124057 49.5275V49.2484C0.124057 48.0698 0.16541 46.4261 0.248115 44.3171C0.351496 42.1874 0.403186 40.616 0.403186 39.6029C0.403186 39.2928 0.54792 38.9826 0.837387 38.6725C1.12685 38.3417 1.437 38.1762 1.76782 38.1762C3.81476 38.1762 5.46886 38.3417 6.73011 38.6725C7.99136 39.0033 9.00449 39.6029 9.76951 40.4713C10.5552 41.3397 11.0928 42.4355 11.3823 43.7588C11.6717 45.0614 11.8165 46.7775 11.8165 48.9072V49.0002C11.8165 50.9645 11.6717 52.6289 11.3823 53.9935C11.1135 55.3582 10.6379 56.5884 9.9556 57.6843C9.29396 58.7801 8.33251 59.5968 7.07126 60.1344C5.81002 60.672 4.23862 60.9408 2.35709 60.9408Z" fill="var(--fill-0, white)"/>
<path d="M13.6463 46.8269C13.6463 46.1445 13.7807 45.5863 14.0495 45.1521C14.3183 44.7179 14.7318 44.5008 15.2901 44.5008C16.0964 44.5628 16.4996 45.1107 16.4996 46.1445V47.4161C16.4996 48.1811 16.5203 49.3183 16.5616 50.8277C16.603 52.3164 16.6237 47.2945 16.6237 47.9768C16.6237 48.3696 16.6133 48.9486 16.5927 49.7136C16.572 50.4579 16.5616 51.0265 16.5616 51.4194C16.5616 51.8536 16.5616 52.4532 16.5616 53.2182C16.5823 53.9625 16.5927 54.5311 16.5927 54.924C16.5927 55.2341 16.5927 55.7717 16.5927 56.5367C16.6133 57.3017 16.6237 57.8393 16.6237 58.1495C16.6237 59.8863 16.1998 60.7547 15.3521 60.7547C14.9799 60.7547 14.6698 60.6823 14.4217 60.5376C14.1735 60.3928 13.9771 60.2274 13.8324 60.0413C13.7083 59.8346 13.6153 59.5141 13.5533 59.0799C13.4912 58.6457 13.4499 58.2735 13.4292 57.9634C13.4292 57.6326 13.4292 57.1363 13.4292 56.4747V54.924C13.4292 54.7172 13.4189 54.4174 13.3982 54.0246C13.3982 53.6317 13.3982 53.3422 13.3982 53.1562C13.3982 49.3311 13.4809 51.2929 13.6463 46.8269Z" fill="var(--fill-0, white)"/>
<path d="M17.7402 40.2232C17.7402 39.727 17.8642 39.3134 18.1124 38.9826C18.3812 38.6311 18.743 38.4554 19.1979 38.4554C19.5907 38.4554 20.0456 38.8379 20.5625 39.6029C20.976 40.2232 21.4412 41.2363 21.9581 42.6423C22.4957 44.0483 22.9713 45.2475 23.3848 46.24C23.819 47.2324 24.1808 47.7287 24.4703 47.7287C24.615 47.7287 24.9459 47.0257 25.4628 45.6197C26.0003 44.2137 26.3622 43.1799 26.5483 42.5182C26.8791 41.4224 27.3236 40.2645 27.8819 39.0446C28.13 38.5071 28.4195 38.2383 28.7503 38.2383H28.7813C29.0914 38.2383 29.3706 38.383 29.6187 38.6725C29.8875 38.9619 30.0219 39.3755 30.0219 39.913C30.0219 40.616 29.9495 41.3294 29.8048 42.053C29.66 42.7767 29.536 43.3039 29.4326 43.6348C29.3499 43.9449 29.1121 44.5652 28.7193 45.4956C28.3471 46.4261 28.1197 46.9947 28.0369 47.2014C27.8302 47.7183 27.52 48.3179 27.1065 49.0002C26.693 49.6826 26.3312 50.2718 26.021 50.7681C25.7315 51.2436 25.5868 51.5744 25.5868 51.7605C25.5868 52.2774 25.5868 52.9184 25.5868 53.6834C25.6075 54.4484 25.6178 55.2134 25.6178 55.9785C25.6178 56.1232 25.6282 56.4644 25.6488 57.0019C25.6695 57.5188 25.6799 57.9324 25.6799 58.2425C25.6799 60.124 25.256 61.0648 24.4083 61.0648C23.4985 61.0648 22.8886 60.734 22.5784 60.0724C22.2683 59.39 22.1132 58.4803 22.1132 57.3431C22.1132 56.7435 22.1649 55.8751 22.2683 54.7379C22.3717 53.6007 22.4234 52.8047 22.4234 52.3498C22.3406 51.8122 22.1649 51.2126 21.8961 50.551C21.6066 49.8893 21.1621 48.9486 20.5625 47.7287C19.9629 46.4881 19.4873 45.4233 19.1358 44.5342C19.0325 44.2861 18.8774 43.9036 18.6706 43.3867C18.4639 42.8697 18.2984 42.4769 18.1744 42.2081C18.071 41.9186 17.9676 41.5878 17.8642 41.2156C17.7815 40.8435 17.7402 40.5127 17.7402 40.2232Z" fill="var(--fill-0, white)"/>
<path d="M33.3714 48.2559C33.1853 49.269 33.0923 50.2925 33.0923 51.3263C33.0923 53.0424 33.3094 54.5105 33.7436 55.7304C34.1778 56.9502 34.8498 57.5602 35.7595 57.5602C37.641 57.5602 38.5818 54.7689 38.5818 49.1863V48.1008C38.5818 48.0595 38.5715 47.9354 38.5508 47.7287C37.6617 48.2662 36.4728 48.535 34.9842 48.535C34.2812 48.535 33.7436 48.442 33.3714 48.2559ZM29.7737 50.9231C29.7737 49.1036 30.0219 47.2634 30.5181 45.4026C31.035 43.521 31.8207 41.8876 32.8752 40.5023C33.9503 39.117 35.1496 38.4244 36.4728 38.4244C37.3826 38.4244 38.2096 38.9309 38.954 39.9441C39.6983 40.9365 40.3186 42.0944 40.8148 43.4177C41.125 43.1902 41.4972 43.0765 41.9314 43.0765C42.6343 43.0765 42.9858 43.4487 42.9858 44.193C42.9858 44.4618 42.9445 44.7306 42.8618 44.9994C42.7584 45.3716 42.6137 45.6507 42.4276 45.8368C42.2622 46.0229 41.9417 46.209 41.4661 46.395C41.5282 47.036 41.5592 47.7287 41.5592 48.473C41.5592 49.5895 41.5282 50.6337 41.4661 51.6054C41.4041 52.5772 41.249 53.6731 41.0009 54.893C40.7735 56.0922 40.4633 57.126 40.0705 57.9944C39.6777 58.8421 39.1194 59.5658 38.3957 60.1654C37.6927 60.7443 36.8553 61.0338 35.8836 61.0338C33.6712 61.0338 31.8931 59.5451 30.5491 56.5677C30.0322 55.4099 29.7737 53.5283 29.7737 50.9231ZM37.9615 44.8753C37.3826 42.6423 36.7726 41.5258 36.1317 41.5258C35.7802 41.5258 35.3667 41.9083 34.8911 42.6733C34.4362 43.4383 34.0537 44.2757 33.7436 45.1855C33.9297 45.2062 34.2708 45.2578 34.7671 45.3406C35.284 45.4026 35.6665 45.4336 35.9146 45.4336C36.5969 45.4336 37.2792 45.2475 37.9615 44.8753Z" fill="var(--fill-0, white)"/>
<path d="M54.4922 59.235C54.4922 59.5658 54.2957 59.8346 53.9029 60.0413C53.5307 60.2481 53.1379 60.3515 52.7243 60.3515C52.5589 60.3515 52.3832 60.3101 52.1971 60.2274C52.0317 60.1447 51.8559 60.0207 51.6699 59.8553C51.4838 59.6692 51.308 59.5038 51.1426 59.359C50.9979 59.1936 50.8325 58.9869 50.6464 58.7387C50.4603 58.47 50.3156 58.2735 50.2122 58.1495C50.1295 58.0047 50.0054 57.8083 49.84 57.5602C49.6953 57.3121 49.6126 57.1673 49.5919 57.126C49.3438 56.7952 48.9509 56.1129 48.4134 55.0791C47.8758 54.0246 47.4002 53.0528 46.9867 52.1637L46.3664 50.8301C46.2217 50.3959 46.0873 50.1788 45.9632 50.1788C45.9425 50.1788 45.9322 50.4579 45.9322 51.0162V51.1402C46.2424 54.7172 46.3974 56.8675 46.3974 57.5912C46.3974 59.7829 45.9942 60.8787 45.1879 60.8787C44.4228 60.8787 43.9059 60.6306 43.6371 60.1344C43.3684 59.6175 43.234 58.8938 43.234 57.9634C43.234 57.7153 43.2443 57.3431 43.265 56.8469C43.2857 56.33 43.296 55.9475 43.296 55.6993V49.7446C43.3787 45.1131 43.4821 41.9393 43.6061 40.2232C43.6475 39.789 43.8129 39.4065 44.1024 39.0757C44.4125 38.7448 44.795 38.5484 45.2499 38.4864C46.139 38.3623 46.9867 38.3003 47.7931 38.3003C48.9303 38.3003 49.9744 38.445 50.9255 38.7345C51.8973 39.0033 52.7243 39.5099 53.4067 40.2542C54.1096 40.9985 54.4611 41.929 54.4611 43.0455C54.4611 44.6169 53.9132 45.8885 52.8174 46.8603C51.7422 47.832 50.3879 48.5454 48.7545 49.0002C48.5477 49.0623 48.4444 49.1553 48.4444 49.2794V49.3414C48.8165 50.3339 49.7987 51.9569 51.3907 54.2107C52.9828 56.4644 53.9649 57.9634 54.3371 58.7077C54.4405 58.9145 54.4922 59.0902 54.4922 59.235ZM46.0873 46.9843C46.108 46.9843 46.1907 46.943 46.3354 46.8603C46.5008 46.7776 46.5938 46.7362 46.6145 46.7362C46.6972 46.7155 46.9764 46.6432 47.4519 46.5191C47.9481 46.3744 48.2583 46.2813 48.3823 46.24C48.5064 46.1779 48.7648 46.0746 49.1577 45.9298C49.5505 45.7851 49.809 45.6507 49.9331 45.5266C50.0571 45.4026 50.2329 45.2372 50.4603 45.0304C50.6877 44.803 50.8428 44.5549 50.9255 44.2861C51.0082 44.0173 51.0599 43.7175 51.0806 43.3867C51.1013 43.2419 51.1116 43.0455 51.1116 42.7974C51.1116 41.929 50.8531 41.3914 50.3362 41.1846C49.8193 40.9572 48.8372 40.8435 47.3899 40.8435H46.8006C46.5525 40.8435 46.3871 40.8952 46.3044 40.9986C46.2423 41.0813 46.1907 41.257 46.1493 41.5258L46.1183 41.6809C46.1183 41.7842 46.1183 41.8773 46.1183 41.96L46.0873 46.9843Z" fill="var(--fill-0, white)"/>
<path d="M60.4159 38.3003C62.2974 38.3003 63.6 38.7552 64.3237 39.6649C65.0474 40.554 65.4092 41.8049 65.4092 43.4177C65.4092 44.0586 65.2748 44.5238 65.006 44.8133C64.7372 45.1028 64.4167 45.2475 64.0446 45.2475C63.5897 45.2475 63.1968 45.1028 62.866 44.8133C62.5559 44.5238 62.4008 44.0483 62.4008 43.3867C62.4008 43.1179 62.3801 42.8904 62.3388 42.7043C62.3181 42.5183 62.2561 42.3012 62.1527 42.053C62.0493 41.7842 61.8632 41.5775 61.5944 41.4328C61.3256 41.288 60.9742 41.2156 60.54 41.2156C60.0851 41.2156 59.6819 41.4638 59.3304 41.96C58.9996 42.4355 58.8342 42.9318 58.8342 43.4487C58.8342 44.1103 59.0926 44.7926 59.6095 45.4956C60.1264 46.1779 60.7467 46.8499 61.4704 47.5116C62.2147 48.1525 62.9487 48.8452 63.6724 49.5895C64.4167 50.3339 65.0474 51.2333 65.5643 52.2878C66.0812 53.3422 66.3396 54.4794 66.3396 55.6993C66.3396 57.1673 65.9985 58.3872 65.3162 59.359C64.7372 60.1447 64.1273 60.672 63.4863 60.9408C62.866 61.2095 61.9459 61.3439 60.726 61.3439C59.3407 61.3439 58.1415 60.7443 57.1284 59.5451C56.1359 58.3252 55.6397 56.8572 55.6397 55.1411C55.6397 54.4588 55.8051 53.8592 56.1359 53.3423C56.4874 52.8047 56.963 52.5359 57.5626 52.5359C57.9554 52.5359 58.2449 52.6909 58.431 53.0011C58.6377 53.2906 58.7515 53.5904 58.7721 53.9005C58.8755 55.4719 59.0409 56.485 59.2684 56.9399C59.5785 57.5395 60.1161 57.8393 60.8811 57.8393C61.5427 57.8393 62.039 57.5705 62.3698 57.033C62.7006 56.4747 62.866 55.8441 62.866 55.1411C62.866 54.2313 62.6903 53.4043 62.3388 52.6599C61.9873 51.8949 61.5427 51.2746 61.0052 50.7991C60.4883 50.3028 59.9197 49.7963 59.2994 49.2794C58.6791 48.7418 58.1002 48.2456 57.5626 47.7907C57.0457 47.3358 56.6115 46.7569 56.26 46.0539C55.9085 45.3509 55.7327 44.5859 55.7327 43.7588C55.7327 42.2495 56.1669 40.9675 57.0353 39.913C57.9244 38.8379 59.0513 38.3003 60.4159 38.3003Z" fill="var(--fill-0, white)"/>
<path d="M74.1862 52.4738C74.393 52.4325 74.4964 52.2981 74.4964 52.0707V51.9776C74.1036 48.5247 73.69 45.7334 73.2558 43.6038C73.2145 43.4383 73.1524 43.3556 73.0697 43.3556H73.0387C72.9767 43.3556 72.9353 43.366 72.9147 43.3867C72.894 43.4073 72.8837 43.4487 72.8837 43.5107C72.8837 43.5521 72.8837 43.5831 72.8837 43.6038C71.8912 48.0491 71.2812 50.9438 71.0538 52.2878V52.3808C71.0538 52.5876 71.1365 52.6909 71.3019 52.6909C72.3564 52.6909 73.3178 52.6186 74.1862 52.4738ZM78.9004 59.7312C78.9004 60.062 78.7143 60.3722 78.3422 60.6616C77.97 60.9511 77.6288 61.0958 77.3187 61.0958C76.2642 61.0958 75.6233 60.4239 75.3958 59.0799C75.3545 58.7904 75.2718 58.3562 75.1477 57.7773C75.0236 57.1777 74.9306 56.6815 74.8686 56.2886C74.8479 56.1439 74.7755 56.0198 74.6515 55.9164C74.5481 55.8131 74.4344 55.7614 74.3103 55.7614H74.2793C73.8658 55.8027 73.5143 55.8234 73.2248 55.8234C73.0594 55.8234 72.8113 55.8234 72.4805 55.8234C72.1703 55.8027 71.9429 55.7924 71.7981 55.7924C71.4673 55.7924 71.2296 55.8027 71.0848 55.8234C70.7333 55.8854 70.5369 56.1646 70.4955 56.6608C70.4542 57.2811 70.4025 57.8083 70.3405 58.2425C70.2784 58.6767 70.1647 59.1316 69.9993 59.6071C69.8546 60.0827 69.6271 60.4445 69.317 60.6926C69.0069 60.9408 68.6347 61.0648 68.2005 61.0648C67.6422 61.0648 67.2494 60.9614 67.0219 60.7547C66.8152 60.5272 66.7118 60.1964 66.7118 59.7622C66.7118 59.4314 66.7428 59.0799 66.8048 58.7077C67.6732 53.3939 69.2136 47.2841 71.426 40.3783C71.6948 39.5512 71.9739 38.9206 72.2634 38.4864C72.3461 38.3623 72.5115 38.2279 72.7596 38.0832C73.0284 37.9385 73.2972 37.8661 73.566 37.8661C73.8968 37.8661 74.1862 37.9695 74.4344 38.1762C74.7032 38.383 74.9099 38.6931 75.0547 39.1067C75.2201 39.5202 75.3441 39.8717 75.4268 40.1612C75.5095 40.43 75.5922 40.7814 75.6749 41.2156C75.9851 42.8697 76.4606 45.6197 77.1016 49.4655C77.7426 53.3112 78.2595 56.2059 78.6523 58.1495C78.8177 58.9352 78.9004 59.4624 78.9004 59.7312Z" fill="var(--fill-0, white)"/>
<path d="M79.5827 54.6449C79.5827 53.7765 79.5517 52.2464 79.4897 50.0547C79.4483 47.8424 79.4277 46.2917 79.4277 45.4026C79.4277 41.9497 79.8412 39.8407 80.6682 39.0757C81.1231 38.6828 81.4746 38.4864 81.7227 38.4864C82.1776 38.4864 82.5808 38.5794 82.9323 38.7655C83.2838 38.9309 83.5629 39.117 83.7697 39.3238C83.9971 39.5305 84.2142 39.8717 84.421 40.3472C84.6484 40.8021 84.8035 41.164 84.8862 41.4328C84.9689 41.7015 85.093 42.1461 85.2584 42.7664C85.4238 43.366 85.5375 43.7795 85.5995 44.0069C85.7649 44.5859 86.0234 45.6817 86.3749 47.2945C86.747 48.8865 86.9848 49.879 87.0882 50.2718C87.1089 50.3339 87.1399 50.4579 87.1813 50.644C87.2226 50.8094 87.2536 50.9438 87.2743 51.0472C87.3156 51.1506 87.357 51.285 87.3984 51.4504C87.4604 51.6158 87.5121 51.7502 87.5534 51.8536C87.6154 51.9363 87.6775 52.0293 87.7395 52.1327C87.8222 52.2361 87.9049 52.3188 87.9876 52.3808C88.0703 52.4222 88.153 52.4428 88.2357 52.4428C88.3598 52.4428 88.4528 51.347 88.5149 49.1553C88.5976 46.943 88.6389 45.1131 88.6389 43.6658C88.6389 43.459 88.6286 43.1592 88.6079 42.7664C88.5872 42.3528 88.5769 42.0427 88.5769 41.8359C88.5769 40.7608 88.6803 39.913 88.887 39.2928C89.1145 38.6518 89.559 38.3313 90.2207 38.3313C91.0477 38.3313 91.4612 39.5202 91.4612 41.898C91.4612 42.8697 91.4302 44.4618 91.3682 46.6742C91.3268 48.8865 91.3062 50.4166 91.3062 51.2643C91.3062 51.7605 91.2958 52.5462 91.2751 53.6214C91.2545 54.6759 91.2441 55.4616 91.2441 55.9785C91.2441 57.5912 91.058 58.8318 90.6859 59.7002C90.5618 59.969 90.3447 60.2171 90.0346 60.4445C89.7244 60.672 89.4763 60.7857 89.2902 60.7857C88.794 60.7857 88.2668 60.3308 87.7085 59.4211C87.1502 58.5113 86.6127 57.3431 86.0957 55.9164C85.5995 54.4691 85.155 53.1045 84.7621 51.8225C84.39 50.5406 84.0385 49.2794 83.7076 48.0388C83.3975 46.7776 83.2424 46.1366 83.2424 46.1159C83.1184 45.7437 83.046 45.537 83.0253 45.4956C82.984 45.4129 82.922 45.3716 82.8392 45.3716H82.8082C82.7255 45.3716 82.6842 45.506 82.6842 45.7748C82.6842 45.8575 82.6945 46.0022 82.7152 46.209C82.7359 46.395 82.7462 46.5294 82.7462 46.6121C82.7669 47.1497 82.7772 48.5867 82.7772 50.9231C82.7772 54.3554 82.7462 56.6918 82.6842 57.9324C82.6428 58.9042 82.4774 59.6278 82.188 60.1034C81.8985 60.5582 81.4022 60.7857 80.6993 60.7857C79.9342 60.7857 79.5517 59.4934 79.5517 56.9089C79.5517 56.6608 79.5517 56.2783 79.5517 55.7614C79.5724 55.2445 79.5827 54.8723 79.5827 54.6449Z" fill="var(--fill-0, white)"/>
<path d="M106.658 44.1C106.431 44.1 106.11 45.1648 105.697 47.2945C105.283 49.4241 105.077 50.7681 105.077 51.3263C105.077 51.347 105.066 51.3573 105.046 51.3573C105.025 51.3573 105.014 51.3677 105.014 51.3883C105.014 51.5951 105.17 51.6985 105.48 51.6985H105.511L106.472 51.6054C107.092 51.5434 107.609 51.4607 108.023 51.3573C108.457 51.2333 108.674 51.0782 108.674 50.8921C108.674 50.4786 108.385 49.2484 107.806 47.2014C107.227 45.1338 106.844 44.1 106.658 44.1ZM102.471 61.1579C101.334 61.1579 100.766 60.4549 100.766 59.0489C100.766 58.9042 100.828 58.2425 100.952 57.064C102.047 48.8969 103.64 42.8801 105.728 39.0136C105.955 38.6001 106.286 38.3933 106.72 38.3933C107.568 38.3933 108.55 40.0164 109.667 43.2626C110.783 46.4881 111.703 49.8273 112.427 53.2802C113.151 56.7125 113.512 58.9869 113.512 60.1034C113.512 60.4342 113.357 60.6926 113.047 60.8787C112.737 61.0855 112.375 61.1889 111.962 61.1889C111.3 61.1889 110.804 60.8374 110.473 60.1344C110.142 59.4107 109.956 58.625 109.915 57.7773C109.873 56.9089 109.77 56.1232 109.605 55.4202C109.439 54.6965 109.17 54.3347 108.798 54.3347H108.612C108.509 54.3554 108.054 54.3967 107.248 54.4588C106.441 54.5001 105.79 54.6035 105.294 54.7689C104.797 54.9136 104.539 55.1411 104.518 55.4512C104.518 55.5339 104.508 55.7614 104.487 56.1335C104.467 56.485 104.446 56.7538 104.425 56.9399C104.425 57.1053 104.405 57.3741 104.363 57.7463C104.343 58.1185 104.311 58.4079 104.27 58.6147C104.229 58.8214 104.177 59.0799 104.115 59.39C104.053 59.6795 103.97 59.9173 103.867 60.1034C103.764 60.2895 103.65 60.4755 103.526 60.6616C103.402 60.827 103.247 60.9511 103.061 61.0338C102.874 61.1165 102.678 61.1579 102.471 61.1579Z" fill="var(--fill-0, white)"/>
<path d="M124.864 43.0145C124.864 43.0145 124.864 43.0455 124.864 43.1075C124.864 43.8105 124.698 44.2964 124.367 44.5652C124.037 44.834 123.52 44.9787 122.817 44.9994C121.824 44.9994 121.328 44.6996 121.328 44.1C121.328 43.4177 121.194 42.9214 120.925 42.6113C120.677 42.2805 120.408 42.1151 120.118 42.1151C118.092 42.1151 117.079 44.803 117.079 50.1788C117.079 55.017 117.844 57.4361 119.374 57.4361C119.829 57.4361 120.274 57.3017 120.708 57.033C121.142 56.7642 121.359 56.423 121.359 56.0095C121.359 54.6035 121.959 53.9005 123.158 53.9005C123.695 53.9005 124.099 54.1279 124.367 54.5828C124.636 55.0377 124.771 55.596 124.771 56.2576C124.771 57.7256 124.223 58.9042 123.127 59.7932C122.052 60.6616 120.801 61.0958 119.374 61.0958C115.57 61.0958 113.667 57.8186 113.667 51.2643C113.667 50.1271 113.688 49.114 113.73 48.2249C113.792 47.3358 113.895 46.364 114.04 45.3095C114.205 44.2551 114.443 43.3453 114.753 42.5803C115.063 41.8153 115.456 41.1019 115.932 40.4403C116.407 39.7787 117.027 39.2721 117.792 38.9206C118.557 38.5691 119.426 38.3933 120.398 38.3933C121.597 38.3933 122.631 38.8482 123.499 39.758C124.367 40.6677 124.822 41.7532 124.864 43.0145Z" fill="var(--fill-0, white)"/>
<path d="M126.538 40.7194C126.538 40.0371 126.673 39.4788 126.942 39.0446C127.21 38.6104 127.624 38.3933 128.182 38.3933C128.989 38.4554 129.392 39.0033 129.392 40.0371V41.3087C129.392 42.0737 129.412 43.2109 129.454 44.7203C129.495 46.209 129.516 47.2945 129.516 47.9768C129.516 48.3696 129.505 48.9486 129.485 49.7136C129.464 50.4579 129.454 51.0265 129.454 51.4194C129.454 51.8536 129.454 52.4532 129.454 53.2182C129.474 53.9625 129.485 54.5311 129.485 54.924C129.485 55.2341 129.485 55.7717 129.485 56.5367C129.505 57.3017 129.516 57.8393 129.516 58.1495C129.516 59.8863 129.092 60.7547 128.244 60.7547C127.872 60.7547 127.562 60.6823 127.314 60.5376C127.066 60.3928 126.869 60.2274 126.725 60.0413C126.6 59.8346 126.507 59.5141 126.445 59.0799C126.383 58.6457 126.342 58.2735 126.321 57.9634C126.321 57.6326 126.321 57.1363 126.321 56.4747V54.924C126.321 54.7172 126.311 54.4174 126.29 54.0246C126.29 53.6317 126.29 53.3422 126.29 53.1562C126.29 49.3311 126.373 45.1855 126.538 40.7194Z" fill="var(--fill-0, white)"/>
<path d="M149.489 38.3623C149.861 38.3623 150.223 38.5794 150.575 39.0136C150.926 39.4478 151.102 39.9027 151.102 40.3783C151.102 40.4816 151.081 40.5954 151.04 40.7194C150.895 41.4224 150.585 43.0145 150.109 45.4956C149.634 47.9561 149.179 50.0961 148.745 51.9156C148.331 53.7351 147.938 55.1204 147.566 56.0715C147.504 56.2162 147.39 56.5574 147.225 57.095C147.08 57.6119 146.925 58.0978 146.76 58.5527C146.594 59.0075 146.398 59.4831 146.17 59.9793C145.943 60.4755 145.674 60.8684 145.364 61.1579C145.054 61.4473 144.723 61.5921 144.372 61.5921H144.093C143.596 61.5921 143.265 61.4577 143.1 61.1889C142.583 60.3825 142.118 59.4211 141.704 58.3045C141.312 57.188 140.95 55.7407 140.619 53.9625C140.309 52.1637 140.081 50.8508 139.937 50.0237C139.792 49.176 139.585 47.5839 139.316 45.2475C139.048 42.8904 138.903 41.6498 138.882 41.5258C138.82 40.9675 138.789 40.523 138.789 40.1922C138.789 38.9723 139.223 38.3313 140.092 38.2693H140.247C141.198 38.2693 141.839 39.4478 142.17 41.8049C142.294 42.694 142.469 44.0276 142.697 45.8058C142.924 47.5839 143.141 49.0933 143.348 50.3339C143.555 51.5744 143.834 52.9701 144.186 54.5208C144.248 54.7069 144.32 54.7999 144.403 54.7999C144.527 54.7999 144.827 53.6007 145.302 51.2023C145.778 48.8038 146.274 46.3227 146.791 43.7588C147.308 41.1743 147.68 39.727 147.907 39.4168C148.404 38.7138 148.931 38.3623 149.489 38.3623Z" fill="var(--fill-0, white)"/>
<path d="M152.249 59.359C152.249 58.5733 152.27 57.3224 152.311 55.6063C152.353 53.8695 152.373 52.5876 152.373 51.7605V45.8678C152.373 44.2344 152.415 42.6423 152.497 41.0916V40.1922C152.497 39.5512 152.57 39.086 152.715 38.7965C152.859 38.5071 153.169 38.3623 153.645 38.3623C154.245 38.3623 154.782 38.3727 155.258 38.3933C155.733 38.3933 156.281 38.3933 156.901 38.3933H157.367C157.822 38.3933 158.194 38.4037 158.483 38.4244C158.773 38.445 159.083 38.4967 159.414 38.5794C159.765 38.6621 160.024 38.8069 160.189 39.0136C160.375 39.2204 160.468 39.4788 160.468 39.789C160.468 40.1612 160.427 40.461 160.344 40.6884C160.261 40.8952 160.096 41.0502 159.848 41.1536C159.62 41.2363 159.414 41.288 159.228 41.3087C159.041 41.3294 158.742 41.3397 158.328 41.3397H156.777C156.571 41.3397 156.416 41.35 156.312 41.3707C156.209 41.3914 156.116 41.4431 156.033 41.5258C155.971 41.6085 155.94 41.7429 155.94 41.929V42.2391C155.94 42.694 155.93 43.3763 155.909 44.2861C155.909 45.1958 155.909 45.8678 155.909 46.302L155.878 46.9223C155.857 46.9223 155.847 47.0463 155.847 47.2945C155.868 47.6666 156.24 47.8527 156.963 47.8527L157.429 47.8837C157.429 47.9044 157.511 47.9147 157.677 47.9147C158.07 47.9147 158.359 47.9354 158.545 47.9768C158.752 48.0181 158.948 48.1629 159.134 48.411C159.321 48.6591 159.414 49.0313 159.414 49.5275V49.7756C159.372 50.4786 158.783 50.8301 157.646 50.8301C157.501 50.8301 157.191 50.8301 156.715 50.8301C156.26 50.8094 155.971 50.7991 155.847 50.7991C155.702 50.7991 155.63 51.9673 155.63 54.3037C155.63 54.6345 155.64 55.0584 155.661 55.5753C155.702 56.0715 155.723 56.3403 155.723 56.3817C155.723 57.0433 155.919 57.3741 156.312 57.3741H156.343C156.819 57.3741 157.263 57.3741 157.677 57.3741C158.111 57.3534 158.566 57.3431 159.041 57.3431C160.055 57.3431 160.561 57.9014 160.561 59.0179C160.561 59.0385 160.551 59.0902 160.53 59.1729C160.53 59.2556 160.53 59.3073 160.53 59.328C160.489 59.9069 160.334 60.2998 160.065 60.5066C159.817 60.6926 159.424 60.7857 158.886 60.7857C158.7 60.7857 158.338 60.7753 157.801 60.7547C157.263 60.7133 156.819 60.6926 156.467 60.6926C156.116 60.6926 155.651 60.6926 155.072 60.6926C154.513 60.672 154.131 60.6616 153.924 60.6616H153.893C153.231 60.6616 152.787 60.5686 152.559 60.3825C152.353 60.1757 152.249 59.8346 152.249 59.359Z" fill="var(--fill-0, white)"/>
<path d="M177.96 58.5527C177.96 59.4624 177.629 60.062 176.968 60.3515C176.306 60.641 175.314 60.7857 173.99 60.7857H173.215C171.623 60.7857 170.703 60.5272 170.455 60.0103C170.227 59.5555 170.114 58.563 170.114 57.033C170.114 56.8469 170.114 56.5884 170.114 56.2576C170.134 55.9268 170.145 55.689 170.145 55.5443V54.5518C170.145 53.1045 170.114 51.0265 170.052 48.3179C169.989 45.5887 169.958 43.5417 169.958 42.1771C169.958 41.9703 169.948 41.6912 169.927 41.3397C169.927 40.9675 169.927 40.6987 169.927 40.5333C169.927 39.5409 170.269 38.9619 170.951 38.7965C171.509 38.6518 172.822 38.5794 174.89 38.5794H175.138C175.655 38.5794 176.037 38.5898 176.285 38.6104C176.554 38.6311 176.833 38.6932 177.123 38.7965C177.433 38.8999 177.65 39.0757 177.774 39.3238C177.898 39.5719 177.96 39.9027 177.96 40.3162C177.96 40.7918 177.722 41.1846 177.247 41.4948C176.792 41.8049 176.275 41.96 175.696 41.96H174.859C174.693 41.96 174.445 41.96 174.114 41.96C173.784 41.9393 173.577 41.929 173.494 41.929C173.205 41.929 173.06 42.084 173.06 42.3942V44.3791C173.06 45.537 173.081 46.3227 173.122 46.7362C173.163 47.0463 173.215 47.2531 173.277 47.3565C173.339 47.4392 173.494 47.4805 173.742 47.4805C173.763 47.4805 174.166 47.4805 174.952 47.4805C175.758 47.4599 176.182 47.4495 176.223 47.4495C176.327 47.4495 176.43 47.4702 176.534 47.5116C176.658 47.5322 176.802 47.6046 176.968 47.7287C177.154 47.832 177.299 48.0285 177.402 48.3179C177.505 48.6074 177.557 48.9692 177.557 49.4034C177.557 50.4166 176.864 50.9231 175.479 50.9231H175.138C173.835 50.9231 173.184 51.1816 173.184 51.6985C173.184 52.1327 173.174 52.8977 173.153 53.9935C173.132 55.0687 173.122 55.8027 173.122 56.1956C173.122 56.4437 173.194 56.5677 173.339 56.5677C173.504 56.5677 173.732 56.5677 174.021 56.5677C174.311 56.5471 174.518 56.5367 174.642 56.5367C175.779 56.5367 176.616 56.6608 177.154 56.9089C177.691 57.157 177.96 57.7049 177.96 58.5527Z" fill="var(--fill-0, white)"/>
<path d="M192.816 58.9558C192.816 59.328 192.547 59.7415 192.01 60.1964C191.472 60.6306 190.893 60.8477 190.273 60.8477C189.901 60.8477 189.601 60.7547 189.373 60.5686C189.043 60.2791 188.743 59.9276 188.474 59.5141C188.205 59.0799 187.926 58.594 187.637 58.0564C187.368 57.4982 187.13 57.064 186.923 56.7538C185.579 54.7276 184.752 53.5283 184.442 53.1562C184.359 53.0321 184.163 52.722 183.853 52.2257H183.822C183.656 52.2257 183.574 52.3084 183.574 52.4738V54.3657C183.574 55.751 183.625 57.033 183.729 58.2115C183.791 58.7698 183.822 59.266 183.822 59.7002C183.822 60.3411 183.708 60.796 183.481 61.0648C183.253 61.3336 182.778 61.468 182.054 61.468C181.206 61.468 180.638 61.2716 180.348 60.8787C180.079 60.5066 179.914 59.8449 179.852 58.8938C179.79 58.0254 179.759 57.126 179.759 56.1956C179.759 55.8441 179.759 55.2651 179.759 54.4588C179.78 53.6524 179.79 53.0218 179.79 52.5669C179.79 51.9259 179.811 50.9231 179.852 49.5585C179.893 48.1732 179.914 47.1394 179.914 46.4571C179.914 45.7334 179.945 44.6272 180.007 43.1385C180.069 41.6292 180.1 40.5954 180.1 40.0371C180.1 39.6649 180.266 39.3031 180.596 38.9516C180.927 38.5794 181.279 38.3933 181.651 38.3933C182.395 38.3933 182.84 38.5071 182.984 38.7345C183.15 38.9619 183.264 39.5512 183.326 40.5023C183.388 41.4741 183.419 42.9318 183.419 44.8753V45.9919C183.419 46.0952 183.47 46.1676 183.574 46.209H183.605C183.667 46.209 183.729 46.1779 183.791 46.1159C183.853 46.0332 183.915 45.9402 183.977 45.8368C184.06 45.7334 184.101 45.6714 184.101 45.6507C184.266 45.4026 184.504 45.0511 184.814 44.5962C185.145 44.1207 185.383 43.7692 185.528 43.5417C185.548 43.521 185.786 43.1489 186.241 42.4252C186.696 41.7015 187.089 41.1019 187.42 40.6264C187.75 40.1508 188.185 39.6753 188.722 39.1997C189.28 38.7242 189.777 38.4864 190.211 38.4864C190.48 38.4864 190.759 38.6001 191.048 38.8275C191.358 39.0343 191.513 39.2721 191.513 39.5409C191.513 39.7476 191.451 39.9544 191.327 40.1612C191.224 40.3679 191.048 40.616 190.8 40.9055C190.573 41.1743 190.438 41.3294 190.397 41.3707C190.128 41.7636 189.622 42.4666 188.877 43.4797C188.133 44.4722 187.564 45.2475 187.171 45.8058C187.006 46.0539 186.727 46.4674 186.334 47.0463C185.962 47.6046 185.683 48.0388 185.497 48.3489C185.373 48.535 185.311 48.6798 185.311 48.7831C185.311 48.8865 185.373 49.0313 185.497 49.2173C185.807 49.6515 186.448 50.3752 187.42 51.3883C187.957 51.9053 188.464 52.4842 188.939 53.1251C189.435 53.7454 189.983 54.5001 190.583 55.3892C191.183 56.2576 191.627 56.8882 191.917 57.2811C192.516 58.1288 192.816 58.6871 192.816 58.9558Z" fill="var(--fill-0, white)"/>
<path d="M197.964 38.3003C199.846 38.3003 201.149 38.7552 201.872 39.6649C202.596 40.554 202.958 41.8049 202.958 43.4177C202.958 44.0586 202.823 44.5238 202.555 44.8133C202.286 45.1028 201.965 45.2475 201.593 45.2475C201.138 45.2475 200.745 45.1028 200.415 44.8133C200.104 44.5238 199.949 44.0483 199.949 43.3867C199.949 43.1179 199.929 42.8904 199.887 42.7043C199.867 42.5183 199.805 42.3012 199.701 42.053C199.598 41.7842 199.412 41.5775 199.143 41.4328C198.874 41.288 198.523 41.2156 198.088 41.2156C197.634 41.2156 197.23 41.4638 196.879 41.96C196.548 42.4355 196.383 42.9318 196.383 43.4487C196.383 44.1103 196.641 44.7926 197.158 45.4956C197.675 46.1779 198.295 46.8499 199.019 47.5116C199.763 48.1525 200.497 48.8452 201.221 49.5895C201.965 50.3339 202.596 51.2333 203.113 52.2878C203.63 53.3422 203.888 54.4794 203.888 55.6993C203.888 57.1673 203.547 58.3872 202.865 59.359C202.43 59.9586 201.996 60.4032 201.562 60.6926C201.128 60.9821 200.59 61.1682 199.949 61.2509C199.908 61.4577 199.815 61.7265 199.67 62.0573C199.525 62.3881 199.153 62.874 198.554 63.5149L197.654 64.4764C197.055 65.2001 196.424 65.5619 195.762 65.5619C195.059 65.5619 194.708 65.3551 194.708 64.9416C194.708 64.7555 194.78 64.5177 194.925 64.2283C195.09 63.9388 195.256 63.6804 195.421 63.4529C195.607 63.2255 195.814 62.9567 196.042 62.6465C196.29 62.3571 196.445 62.171 196.507 62.0883C196.589 61.9436 196.848 61.6541 197.282 61.2199C196.124 60.9097 195.152 60.1964 194.367 59.0799C193.581 57.9427 193.188 56.6298 193.188 55.1411C193.188 54.4588 193.354 53.8592 193.684 53.3423C194.036 52.8047 194.511 52.5359 195.111 52.5359C195.504 52.5359 195.793 52.6909 195.979 53.0011C196.186 53.2906 196.3 53.5904 196.321 53.9005C196.424 55.4719 196.589 56.485 196.817 56.9399C197.127 57.5395 197.665 57.8393 198.43 57.8393C199.091 57.8393 199.587 57.5705 199.918 57.033C200.249 56.4747 200.415 55.8441 200.415 55.1411C200.415 54.2313 200.239 53.4043 199.887 52.6599C199.536 51.8949 199.091 51.2746 198.554 50.7991C198.037 50.3028 197.468 49.7963 196.848 49.2794C196.228 48.7418 195.649 48.2456 195.111 47.7907C194.594 47.3358 194.16 46.7569 193.808 46.0539C193.457 45.3509 193.281 44.5859 193.281 43.7588C193.281 42.2495 193.715 40.9675 194.584 39.913C195.473 38.8379 196.6 38.3003 197.964 38.3003Z" fill="var(--fill-0, white)"/>
<path d="M207.114 60.8477C206.576 60.827 206.183 60.6823 205.935 60.4135C205.708 60.1447 205.553 59.7415 205.47 59.204C205.408 58.8111 205.377 58.2115 205.377 57.4051C205.377 57.3017 205.377 57.126 205.377 56.8779C205.398 56.6298 205.408 56.454 205.408 56.3506C205.429 55.5029 205.439 54.1383 205.439 52.2567C205.46 50.3752 205.47 50.3975 205.47 49.8806V48.4849C205.47 47.7406 205.491 47.1306 205.532 46.6551C205.573 46.1795 205.656 45.6626 205.78 45.1044C205.904 44.5254 206.121 44.0912 206.431 43.8018C206.762 43.5123 207.176 43.3676 207.672 43.3676C207.837 43.3676 207.961 43.3779 208.044 43.3986C208.685 43.5226 209.005 44.9596 209.005 47.7096C209.005 47.9784 208.995 48.3092 208.974 48.702C208.974 49.0742 208.974 49.312 208.974 49.4154C208.974 50.4905 208.974 50.8714 208.974 53.0011C208.995 55.1101 209.005 56.6298 209.005 57.5602V57.9324C209.005 58.5113 208.995 58.9352 208.974 59.204C208.954 59.4727 208.881 59.7622 208.757 60.0724C208.654 60.3618 208.478 60.5686 208.23 60.6926C207.982 60.796 207.651 60.8477 207.238 60.8477H207.114Z" fill="var(--fill-0, white)"/>
<path d="M219.023 43.2626C219.023 40.0164 219.716 38.3933 221.101 38.3933C222.011 38.3933 222.466 40.9675 222.466 46.1159V46.271C222.466 48.442 222.455 51.0679 222.435 54.1486C222.435 57.2087 222.435 58.7801 222.435 58.8628C222.435 60.1654 221.876 60.8167 220.76 60.8167C220.243 60.8167 219.798 60.3928 219.426 59.5451C219.199 59.0489 218.692 57.8807 217.907 56.0405C217.121 54.2003 216.49 52.7943 216.015 51.8225C215.953 51.6985 215.405 50.1478 214.371 47.1704C214.288 46.9843 214.216 46.8913 214.154 46.8913C214.092 46.8913 214.061 46.9843 214.061 47.1704C214.061 47.3772 214.061 47.708 214.061 48.1629C214.082 48.5971 214.092 48.9279 214.092 49.1553C214.092 49.7342 214.123 50.7991 214.185 52.3498C214.247 53.8798 214.278 54.986 214.278 55.6683C214.278 55.9785 214.278 56.4023 214.278 56.9399C214.299 57.4568 214.309 57.829 214.309 58.0564C214.309 59.0489 214.144 59.7622 213.813 60.1964C213.503 60.6099 213.006 60.8167 212.324 60.8167C211.828 60.8167 211.466 60.672 211.239 60.3825C211.011 60.0724 210.897 59.4107 210.897 58.3976C210.897 57.9841 210.887 57.1157 210.866 55.7924C210.866 54.4484 210.866 53.5697 210.866 53.1562V50.3649C210.866 47.2841 210.949 45.0201 211.114 43.5727C211.507 40.1612 212.283 38.4554 213.441 38.4554C213.999 38.4554 214.753 39.6546 215.705 42.053C216.263 43.459 216.718 44.6582 217.069 45.6507C217.421 46.6225 217.814 47.801 218.248 49.1863C218.682 50.551 219.002 51.5331 219.209 52.1327C219.23 52.2154 219.271 52.2567 219.333 52.2567C219.437 52.2567 219.488 51.9776 219.488 51.4194C219.488 50.8611 219.406 49.5585 219.24 47.5116C219.095 45.4439 219.023 44.0276 219.023 43.2626Z" fill="var(--fill-0, white)"/>
<path d="M224.42 45.6054C224.42 44.9231 224.554 44.3648 224.823 43.9306C225.092 43.4964 225.505 43.2793 226.063 43.2793C226.87 43.3413 227.273 43.8892 227.273 44.9231V46.1946C227.273 46.9597 227.294 48.0969 227.335 49.6062C227.376 51.0949 227.397 47.2945 227.397 47.9768C227.397 48.3696 227.387 48.9486 227.366 49.7136C227.345 50.4579 227.335 51.0265 227.335 51.4194C227.335 51.8536 227.335 52.4532 227.335 53.2182C227.356 53.9625 227.366 54.5311 227.366 54.924C227.366 55.2341 227.366 55.7717 227.366 56.5367C227.387 57.3017 227.397 57.8393 227.397 58.1495C227.397 59.8863 226.973 60.7547 226.125 60.7547C225.753 60.7547 225.443 60.6823 225.195 60.5376C224.947 60.3928 224.75 60.2274 224.606 60.0413C224.482 59.8346 224.389 59.5141 224.327 59.0799C224.265 58.6457 224.223 58.2735 224.203 57.9634C224.203 57.6326 224.203 57.1363 224.203 56.4747V54.924C224.203 54.7172 224.192 54.4174 224.172 54.0246C224.172 53.6317 224.172 53.3422 224.172 53.1562C224.172 49.3311 224.254 50.0714 224.42 45.6054Z" fill="var(--fill-0, white)"/>
<path d="M229.413 54.6449C229.413 53.7765 229.382 52.2464 229.32 50.0547C229.279 47.8424 229.258 46.2917 229.258 45.4026C229.258 41.9497 229.671 39.8407 230.498 39.0757C230.953 38.6828 231.305 38.4864 231.553 38.4864C232.008 38.4864 232.411 38.5794 232.762 38.7655C233.114 38.9309 233.393 39.117 233.6 39.3238C233.827 39.5305 234.044 39.8717 234.251 40.3472C234.479 40.8021 234.634 41.164 234.716 41.4328C234.799 41.7015 234.923 42.1461 235.089 42.7664C235.254 43.366 235.368 43.7795 235.43 44.0069C235.595 44.5859 235.854 45.6817 236.205 47.2945C236.577 48.8865 236.815 49.879 236.918 50.2718C236.939 50.3339 236.97 50.4579 237.011 50.644C237.053 50.8094 237.084 50.9438 237.104 51.0472C237.146 51.1506 237.187 51.285 237.229 51.4504C237.291 51.6158 237.342 51.7502 237.384 51.8536C237.446 51.9363 237.508 52.0293 237.57 52.1327C237.652 52.2361 237.735 52.3188 237.818 52.3808C237.9 52.4222 237.983 52.4428 238.066 52.4428C238.19 52.4428 238.283 51.347 238.345 49.1553C238.428 46.943 238.469 45.1131 238.469 43.6658C238.469 43.459 238.459 43.1592 238.438 42.7664C238.417 42.3528 238.407 42.0427 238.407 41.8359C238.407 40.7608 238.51 39.913 238.717 39.2928C238.945 38.6518 239.389 38.3313 240.051 38.3313C240.878 38.3313 241.291 39.5202 241.291 41.898C241.291 42.8697 241.26 44.4618 241.198 46.6742C241.157 48.8865 241.136 50.4166 241.136 51.2643C241.136 51.7605 241.126 52.5462 241.105 53.6214C241.085 54.6759 241.074 55.4616 241.074 55.9785C241.074 57.5912 240.888 58.8318 240.516 59.7002C240.392 59.969 240.175 60.2171 239.865 60.4445C239.555 60.672 239.306 60.7857 239.12 60.7857C238.624 60.7857 238.097 60.3308 237.539 59.4211C236.98 58.5113 236.443 57.3431 235.926 55.9164C235.43 54.4691 234.985 53.1045 234.592 51.8225C234.22 50.5406 233.869 49.2794 233.538 48.0388C233.228 46.7776 233.073 46.1366 233.073 46.1159C232.949 45.7437 232.876 45.537 232.856 45.4956C232.814 45.4129 232.752 45.3716 232.669 45.3716H232.638C232.556 45.3716 232.514 45.506 232.514 45.7748C232.514 45.8575 232.525 46.0022 232.545 46.209C232.566 46.395 232.576 46.5294 232.576 46.6121C232.597 47.1497 232.607 48.5867 232.607 50.9231C232.607 54.3554 232.576 56.6918 232.514 57.9324C232.473 58.9042 232.308 59.6278 232.018 60.1034C231.729 60.5582 231.232 60.7857 230.529 60.7857C229.764 60.7857 229.382 59.4934 229.382 56.9089C229.382 56.6608 229.382 56.2783 229.382 55.7614C229.403 55.2445 229.413 54.8723 229.413 54.6449Z" fill="var(--fill-0, white)"/>
<path d="M25.3232 73.034C25.7574 73.034 26.0779 73.1373 26.2846 73.3441C26.5121 73.5509 26.6258 73.8093 26.6258 74.1195C26.6258 74.471 26.5017 74.7914 26.2536 75.0809C26.0055 75.3704 25.685 75.5151 25.2922 75.5151C25.0441 75.5151 24.7753 75.3704 24.4858 75.0809C24.1963 74.7914 24.0516 74.5123 24.0516 74.2435C24.0516 73.9127 24.186 73.6336 24.4548 73.4061C24.7443 73.158 25.0337 73.034 25.3232 73.034ZM20.0818 74.3366C20.0818 73.9437 20.2368 73.6129 20.547 73.3441C20.8778 73.0753 21.219 72.9409 21.5705 72.9409H21.7255C22.4492 73.127 22.811 73.4682 22.811 73.9644C22.811 74.2952 22.656 74.595 22.3458 74.8638C22.0357 75.1326 21.6428 75.2773 21.1673 75.298H21.1052C20.9605 75.298 20.7434 75.236 20.4539 75.1119C20.2058 75.0085 20.0818 74.7501 20.0818 74.3366ZM26.0365 85.0055C26.0365 84.0957 25.9435 83.186 25.7574 82.2762C25.592 81.3665 25.2818 80.5601 24.827 79.8571C24.3721 79.1334 23.8242 78.7716 23.1832 78.7716H23.1522C21.312 78.7716 20.3919 81.873 20.3919 88.0759C20.3919 89.2544 20.4436 90.2572 20.547 91.0843C20.671 92.573 20.9088 93.7102 21.2603 94.4959C21.6325 95.2816 22.2941 95.6848 23.2452 95.7054C23.8035 95.7054 24.279 95.3643 24.6719 94.682C25.0647 93.979 25.3542 93.0485 25.5403 91.8907C25.7264 90.7121 25.8504 89.5749 25.9125 88.4791C25.9952 87.3832 26.0365 86.2254 26.0365 85.0055ZM23.4623 76.1664C27.4735 76.1664 29.4791 80.405 29.4791 88.8823C29.4791 90.4537 29.2723 91.994 28.8588 93.5034C28.4453 95.0128 27.7526 96.3361 26.7809 97.4732C25.8091 98.5898 24.6616 99.148 23.3383 99.148C22.077 99.148 21.0225 98.8689 20.1748 98.3106C19.3271 97.7524 18.6965 96.946 18.2829 95.8915C17.8694 94.8164 17.5903 93.7205 17.4456 92.604C17.3008 91.4668 17.2285 90.1229 17.2285 88.5721C17.2285 87.3316 17.2801 86.1634 17.3835 85.0675C17.4869 83.9717 17.673 82.8655 17.9418 81.749C18.2313 80.6118 18.5931 79.6504 19.0273 78.8647C19.4822 78.079 20.0818 77.438 20.8261 76.9418C21.5911 76.4249 22.4699 76.1664 23.4623 76.1664Z" fill="var(--fill-0, white)"/>
<path d="M34.3484 94.9921C34.6792 94.9921 35.1961 94.9921 35.8991 94.9921C36.6021 94.9714 37.1293 94.9611 37.4808 94.9611C38.4319 94.9611 39.0625 95.1058 39.3727 95.3953C39.6828 95.6848 39.8379 96.243 39.8379 97.0701C39.8379 98.1452 39.1763 98.6828 37.853 98.6828H37.822C37.3671 98.6828 36.9329 98.6621 36.5194 98.6208C36.1058 98.5587 35.713 98.5277 35.3408 98.5277C34.7412 98.5277 33.9348 98.5691 32.9217 98.6518H32.6426C31.8362 98.6518 31.2056 98.4244 30.7507 97.9695C30.3165 97.5146 30.0994 96.9357 30.0994 96.2327C30.0994 95.6537 30.2338 95.0645 30.5026 94.4649C32.2394 90.495 33.7487 86.7526 35.0307 83.2377C35.4442 82.0798 35.7647 81.2217 35.9921 80.6635C36.0541 80.4981 36.0852 80.374 36.0852 80.2913C36.0852 80.0846 35.9921 79.9812 35.806 79.9812C35.5786 79.9605 34.8963 79.8881 33.7591 79.7641C32.6426 79.64 31.6811 79.578 30.8748 79.578C30.5439 79.578 30.2855 79.4643 30.0994 79.2368C29.9133 79.0094 29.8203 78.7199 29.8203 78.3684C29.8203 77.8308 30.0064 77.345 30.3785 76.9108C30.7507 76.4559 31.2263 76.2284 31.8052 76.2284C32.2187 76.2284 32.7873 76.2284 33.511 76.2284C34.2346 76.2078 34.7515 76.1974 35.0617 76.1974C35.9094 76.1974 36.54 76.2181 36.9536 76.2594C37.4705 76.2801 37.884 76.3215 38.1941 76.3835C38.5043 76.4455 38.7937 76.5903 39.0625 76.8177C39.3313 77.0451 39.4657 77.3656 39.4657 77.7792C39.4657 79.2472 39.2486 80.7358 38.8144 82.2452C38.4009 83.7546 37.915 85.0675 37.3567 86.184C36.8192 87.2799 36.2299 88.6031 35.5889 90.1539C34.948 91.6839 34.4724 93.1209 34.1623 94.4649C34.1623 94.4855 34.1519 94.5165 34.1313 94.5579C34.1313 94.5786 34.1313 94.5993 34.1313 94.6199C34.1313 94.868 34.2036 94.9921 34.3484 94.9921Z" fill="var(--fill-0, white)"/>
<path d="M49.1732 96.5118C49.1732 96.9667 49.0285 97.3802 48.739 97.7524C48.4702 98.1039 48.1497 98.3003 47.7776 98.3416C46.7231 98.445 45.5962 98.4967 44.397 98.4967C43.5079 98.4967 42.7119 98.3313 42.0089 98.0005C41.3266 97.649 40.9854 97.1114 40.9854 96.3877V90.3089C40.9854 84.7264 41.0578 80.4671 41.2025 77.531C41.2439 76.5799 42.4328 76.1044 44.7692 76.1044C46.4026 76.1044 47.5398 76.2491 48.1807 76.5386C48.8424 76.8074 49.1732 77.4793 49.1732 78.5545C49.1732 79.2575 48.5633 79.609 47.3434 79.609C47.302 79.609 47.24 79.609 47.1573 79.609C47.0746 79.5883 47.0125 79.578 46.9712 79.578C46.7024 79.5573 46.3509 79.516 45.9167 79.4539C45.5032 79.3712 45.2137 79.3299 45.0483 79.3299C44.49 79.3299 44.2109 79.5263 44.2109 79.9191V80.4464C44.2109 80.9013 44.2213 81.5215 44.2419 82.3072C44.2833 83.0723 44.304 83.6409 44.304 84.013C44.304 84.1991 44.2936 84.4369 44.2729 84.7264C44.2729 84.9951 44.2729 85.1709 44.2729 85.2536V86.091C44.2729 86.2771 44.335 86.3701 44.459 86.3701C44.4797 86.3701 44.5107 86.3701 44.5521 86.3701C44.6141 86.3494 44.6658 86.3391 44.7071 86.3391C45.5135 86.3391 45.9787 86.3494 46.1028 86.3701C47.2607 86.5355 47.8396 87.0834 47.8396 88.0139C47.8396 88.7169 46.9608 89.0684 45.2034 89.0684C44.7692 89.0684 44.5107 89.089 44.428 89.1304C44.3453 89.1511 44.304 89.2441 44.304 89.4095C44.304 89.7403 44.3143 90.3296 44.335 91.1773C44.3556 92.0251 44.366 92.7384 44.366 93.3173C44.366 93.3794 44.3556 93.5551 44.335 93.8446C44.335 94.1134 44.335 94.2788 44.335 94.3408C44.335 94.6509 44.5004 94.837 44.8312 94.8991C45.1 94.9404 45.4722 94.9714 45.9477 94.9921C46.4233 94.9921 46.8161 95.0024 47.1263 95.0231C47.4571 95.0231 47.7879 95.0645 48.1187 95.1472C48.4702 95.2299 48.7287 95.385 48.8941 95.6124C49.0802 95.8398 49.1732 96.1396 49.1732 96.5118Z" fill="var(--fill-0, white)"/>
<path d="M59.4389 96.7289C59.4389 97.4732 59.0047 97.9798 58.1363 98.2486C57.2886 98.5174 56.0067 98.6518 54.2906 98.6518C52.7605 98.6518 51.7681 98.445 51.3132 98.0315C50.879 97.5973 50.6619 96.6565 50.6619 95.2092C50.6619 93.6585 50.7032 91.5288 50.7859 88.8203C50.8893 86.1117 50.941 84.0337 50.941 82.5864V79.8261C50.941 79.3092 50.9514 78.8957 50.972 78.5855C51.0134 78.2547 51.0754 77.9135 51.1581 77.562C51.2615 77.2106 51.4269 76.9314 51.6544 76.7247C51.9025 76.4972 52.2126 76.3422 52.5848 76.2594H52.8019C53.1534 76.2594 53.4635 76.4869 53.7323 76.9418C54.0011 77.3966 54.1355 77.9652 54.1355 78.6476C54.1355 78.7716 54.1252 78.9887 54.1045 79.2989C54.1045 79.5883 54.1045 79.8054 54.1045 79.9501C54.1045 80.343 54.0941 80.9013 54.0735 81.6249C54.0735 82.3279 54.0735 82.8035 54.0735 83.0516C54.0735 83.4858 54.0631 84.1784 54.0424 85.1295C54.0424 86.06 54.0424 86.763 54.0424 87.2385C54.0424 88.1483 54.0631 89.4302 54.1045 91.0843C54.1045 91.2497 54.1045 91.6012 54.1045 92.1388C54.1252 92.6557 54.1355 93.1416 54.1355 93.5965C54.1562 94.0307 54.1872 94.3718 54.2285 94.6199C54.2699 94.9094 54.456 95.0541 54.7868 95.0541H56.0584C56.2651 95.0541 56.5443 95.0541 56.8958 95.0541C57.2679 95.0335 57.5367 95.0231 57.7021 95.0231H57.7642C58.1777 95.0231 58.4775 95.0438 58.6636 95.0851C58.8703 95.1265 59.0461 95.2816 59.1908 95.5504C59.3562 95.7985 59.4389 96.1913 59.4389 96.7289Z" fill="var(--fill-0, white)"/>
<path d="M80.3116 78.3684V79.8881C80.3116 80.7358 80.3219 81.9557 80.3426 83.5478C80.384 85.1192 80.4046 86.4425 80.4046 87.5176C80.4046 91.0326 80.0014 93.7722 79.1951 95.7364C78.7402 96.8323 78.0992 97.649 77.2722 98.1866C76.4451 98.7035 75.5871 98.9619 74.698 98.9619C74.0364 98.9619 73.4367 98.8482 72.8992 98.6208C72.3616 98.3727 71.8964 98.0625 71.5035 97.6903C71.1107 97.3182 70.7592 96.8219 70.449 96.2017C70.1389 95.5814 69.8804 94.9921 69.6737 94.4338C69.4669 93.8549 69.2912 93.1312 69.1464 92.2628C69.0224 91.3944 68.919 90.6501 68.8363 90.0298C68.7743 89.4095 68.7226 88.6135 68.6812 87.6417C68.6605 86.6699 68.6399 85.9256 68.6192 85.4087C68.6192 84.8711 68.6192 84.1578 68.6192 83.2687V81.5009C68.6192 78.0686 69.2188 76.3525 70.418 76.3525C70.9763 76.3525 71.2554 78.1823 71.2554 81.842V83.7339C71.2968 84.1888 71.3174 85.0262 71.3174 86.2461C71.3381 87.466 71.3795 88.5825 71.4415 89.5956C71.5035 90.6087 71.6069 91.6632 71.7516 92.7591C71.917 93.8549 72.1858 94.7233 72.558 95.3643C72.9508 95.9846 73.4471 96.2947 74.0467 96.2947C74.6876 96.212 75.2046 95.4263 75.5974 93.9376C76.0109 92.4489 76.2694 91.0119 76.3728 89.6266C76.4968 88.2206 76.5588 86.9491 76.5588 85.8119V84.7574C76.5588 84.3852 76.5382 83.7132 76.4968 82.7414C76.4555 81.749 76.4348 81.015 76.4348 80.5394C76.4348 79.1128 76.5899 78.0273 76.9 77.2829C77.2308 76.5179 77.8718 76.1354 78.8229 76.1354C79.4639 76.1354 79.867 76.3111 80.0324 76.6626C80.2185 76.9935 80.3116 77.5621 80.3116 78.3684Z" fill="var(--fill-0, white)"/>
<path d="M81.9864 94.5579C81.9864 93.6068 82.2241 92.6143 82.6997 91.5805C83.1959 90.526 83.8679 89.9988 84.7156 89.9988C85.5633 89.9988 85.9872 90.5364 85.9872 91.6115C85.9872 91.9837 85.9252 92.511 85.8011 93.1933C85.6771 93.8756 85.615 94.3201 85.615 94.5269C85.615 94.9818 85.7701 95.3539 86.0802 95.6434C86.3904 95.9122 86.7419 96.0466 87.1347 96.0466C88.6027 96.0466 89.3367 94.0203 89.3367 89.9678C89.3367 89.637 89.3264 89.1407 89.3057 88.4791C89.3057 87.8174 89.3057 87.3626 89.3057 87.1145C88.7682 88.0862 88.0652 88.5721 87.1968 88.5721C86.2457 88.5721 85.3979 88.293 84.6536 87.7347C83.9299 87.1765 83.3613 86.4425 82.9478 85.5327C82.555 84.6023 82.2551 83.6305 82.0484 82.6174C81.8416 81.5836 81.7382 80.5394 81.7382 79.4849C81.7382 78.8233 81.852 78.1823 82.0794 77.562C82.3275 76.9418 82.6997 76.6316 83.1959 76.6316C83.6301 76.6316 83.9919 76.797 84.2814 77.1278C84.5709 77.438 84.7156 77.8825 84.7156 78.4615C84.7156 79.1231 84.7363 79.7847 84.7776 80.4464C84.8397 81.108 84.9327 81.8524 85.0568 82.6794C85.2015 83.5065 85.4289 84.1784 85.7391 84.6953C86.0492 85.2122 86.4317 85.4707 86.8866 85.4707C88.5407 85.4707 89.3678 84.5609 89.3678 82.7414C89.3678 82.7208 89.3367 82.0281 89.2747 80.6635C89.2334 79.2782 89.2127 78.4718 89.2127 78.2444C89.2127 77.6241 89.3884 77.1175 89.7399 76.7247C90.1121 76.3111 90.6083 76.1044 91.2286 76.1044C91.6008 76.1044 91.8799 76.2698 92.066 76.6006C92.2728 76.9108 92.3865 77.2416 92.4072 77.5931C92.4485 77.9239 92.4692 78.3581 92.4692 78.8957V92.1078C92.4692 97.0494 90.7841 99.5202 87.4139 99.5202C85.8011 99.5202 84.4882 99.055 83.475 98.1245C82.4826 97.1734 81.9864 95.9846 81.9864 94.5579Z" fill="var(--fill-0, white)"/>
<path d="M100.006 98.8689C96.2013 98.8689 94.299 92.1801 94.299 78.8026C94.299 78.1617 94.4128 77.5931 94.6402 77.0968C94.8676 76.6006 95.2295 76.3525 95.7257 76.3525C96.1392 76.3525 96.5011 76.5179 96.8112 76.8487C97.142 77.1795 97.3074 77.6861 97.3074 78.3684C97.3074 83.3721 97.4625 87.1248 97.7726 89.6266C97.9794 91.3427 98.2999 92.6453 98.7341 93.5344C99.189 94.4235 99.6955 94.868 100.254 94.868C100.895 94.868 101.339 94.072 101.587 92.4799C101.856 90.8879 102.042 88.7169 102.146 85.9669C102.27 83.1963 102.394 81.3148 102.518 80.3223C102.787 78.5855 103.128 77.4483 103.541 76.9108C103.893 76.4972 104.317 76.2801 104.813 76.2594C105.247 76.2594 105.516 76.5179 105.619 77.0348C105.743 77.5517 105.805 78.3994 105.805 79.578V80.3533C105.805 81.4078 105.795 82.3176 105.774 83.0826C105.774 83.8269 105.743 84.7987 105.681 85.9979C105.64 87.1972 105.557 88.2413 105.433 89.1304C105.33 90.0195 105.185 91.0016 104.999 92.0768C104.834 93.1312 104.606 94.0307 104.317 94.775C104.027 95.5193 103.686 96.2223 103.293 96.884C102.9 97.5456 102.425 98.0418 101.867 98.3727C101.308 98.7035 100.688 98.8689 100.006 98.8689Z" fill="var(--fill-0, white)"/>
<path d="M124.352 81.0357C124.352 82.6691 124.383 85.2743 124.445 88.8513C124.507 92.4283 124.538 94.9197 124.538 96.3257V96.7289C124.538 98.2796 123.969 99.055 122.832 99.055C122.832 99.055 122.812 99.0653 122.77 99.086C122.729 99.086 122.698 99.086 122.677 99.086H122.646C122.625 99.0653 122.605 99.055 122.584 99.055C121.922 98.9516 121.488 98.6001 121.281 98.0005C121.075 97.4009 120.971 96.5842 120.971 95.5504V93.8446C120.971 92.9348 120.992 91.4565 121.033 89.4095C121.095 87.3626 121.126 85.8739 121.126 84.9435C121.126 84.5299 121.064 84.3232 120.94 84.3232C120.837 84.3232 120.63 84.747 120.32 85.5948C120.031 86.4425 119.731 87.3729 119.421 88.386C119.11 89.3992 118.924 89.9678 118.862 90.0918C118.656 90.6087 118.356 91.4151 117.963 92.511C117.57 93.6068 117.322 94.2994 117.219 94.5889C117.157 94.775 117.074 95.0335 116.971 95.3643C116.867 95.6744 116.784 95.9122 116.722 96.0776C116.66 96.243 116.567 96.4188 116.443 96.6048C116.319 96.7909 116.174 96.9253 116.009 97.008C115.844 97.0907 115.637 97.1321 115.389 97.1321C115.368 97.1321 115.337 97.1424 115.296 97.1631C115.275 97.1631 115.254 97.1631 115.234 97.1631C114.8 97.1631 114.438 96.8219 114.148 96.1396C113.879 95.4366 113.642 94.4855 113.435 93.2863C113.249 92.0664 113.135 91.3841 113.094 91.2394C112.308 88.1379 111.667 85.9049 111.171 84.5403C111.171 84.4989 111.14 84.4369 111.078 84.3542C111.016 84.2508 110.964 84.1991 110.923 84.1991H110.892C110.788 84.2198 110.737 84.3025 110.737 84.4472V85.2846C110.737 85.8429 110.757 86.918 110.799 88.5101C110.84 90.0815 110.861 91.26 110.861 92.0457C110.861 92.5833 110.85 93.3897 110.83 94.4649C110.83 95.5193 110.83 96.274 110.83 96.7289V97.039C110.83 97.4732 110.675 97.8247 110.364 98.0935C110.075 98.3416 109.672 98.4657 109.155 98.4657C108.514 98.4657 108.059 98.29 107.79 97.9385C107.521 97.587 107.387 97.0701 107.387 96.3877C107.387 95.0231 107.449 93.0279 107.573 90.402C107.697 87.7761 107.759 85.6981 107.759 84.1681C107.759 83.6512 107.77 82.8345 107.79 81.718C107.832 80.5808 107.852 79.7847 107.852 79.3299C107.852 78.5648 108.007 77.8308 108.318 77.1278C108.628 76.4042 109.083 76.0424 109.682 76.0424C110.178 76.0424 110.623 76.3215 111.016 76.8797C111.429 77.438 111.708 78.0273 111.853 78.6476C113.797 85.1192 114.944 89.1511 115.296 90.7431C115.296 91.0119 115.399 91.1463 115.606 91.1463C115.833 91.1463 116.092 90.6708 116.381 89.7197C116.712 88.8099 117.291 87.2489 118.118 85.0365C118.945 82.8241 119.7 80.7048 120.382 78.6786C120.961 76.8591 121.664 75.9493 122.491 75.9493C122.905 75.9493 123.246 76.063 123.515 76.2905C123.783 76.4972 123.969 76.828 124.073 77.2829C124.197 77.7171 124.269 78.141 124.29 78.5545C124.331 78.968 124.352 79.4953 124.352 80.1362V81.0357Z" fill="var(--fill-0, white)"/>
<path d="M137.905 78.3684V79.8881C137.905 80.7358 137.916 81.9557 137.936 83.5478C137.978 85.1192 137.998 86.4425 137.998 87.5176C137.998 91.0326 137.595 93.7722 136.789 95.7364C136.334 96.8323 135.693 97.649 134.866 98.1866C134.039 98.7035 133.181 98.9619 132.292 98.9619C131.63 98.9619 131.03 98.8482 130.493 98.6208C129.955 98.3727 129.49 98.0625 129.097 97.6903C128.704 97.3182 128.353 96.8219 128.043 96.2017C127.732 95.5814 127.474 94.9921 127.267 94.4338C127.06 93.8549 126.885 93.1312 126.74 92.2628C126.616 91.3944 126.513 90.6501 126.43 90.0298C126.368 89.4095 126.316 88.6135 126.275 87.6417C126.254 86.6699 126.233 85.9256 126.213 85.4087C126.213 84.8711 126.213 84.1578 126.213 83.2687V81.5009C126.213 78.0686 126.812 76.3525 128.012 76.3525C128.57 76.3525 128.849 78.1823 128.849 81.842V83.7339C128.89 84.1888 128.911 85.0262 128.911 86.2461C128.932 87.466 128.973 88.5825 129.035 89.5956C129.097 90.6087 129.2 91.6632 129.345 92.7591C129.511 93.8549 129.779 94.7233 130.152 95.3643C130.544 95.9846 131.041 96.2947 131.64 96.2947C132.281 96.212 132.798 95.4263 133.191 93.9376C133.605 92.4489 133.863 91.0119 133.966 89.6266C134.09 88.2206 134.152 86.9491 134.152 85.8119V84.7574C134.152 84.3852 134.132 83.7132 134.09 82.7414C134.049 81.749 134.028 81.015 134.028 80.5394C134.028 79.1128 134.183 78.0273 134.494 77.2829C134.824 76.5179 135.465 76.1354 136.416 76.1354C137.057 76.1354 137.461 76.3111 137.626 76.6626C137.812 76.9935 137.905 77.5621 137.905 78.3684Z" fill="var(--fill-0, white)"/>
<path d="M139.797 92.511C139.797 91.6426 139.766 90.1125 139.704 87.9208C139.663 85.7085 139.642 84.1578 139.642 83.2687C139.642 79.8158 140.056 77.7068 140.883 76.9418C141.337 76.5489 141.689 76.3525 141.937 76.3525C142.392 76.3525 142.795 76.4455 143.147 76.6316C143.498 76.797 143.777 76.9831 143.984 77.1899C144.211 77.3966 144.429 77.7378 144.635 78.2133C144.863 78.6682 145.018 79.0301 145.1 79.2989C145.183 79.5676 145.307 80.0122 145.473 80.6325C145.638 81.2321 145.752 81.6456 145.814 81.873C145.979 82.452 146.238 83.5478 146.589 85.1606C146.961 86.7526 147.199 87.7451 147.303 88.1379C147.323 88.2 147.354 88.324 147.396 88.5101C147.437 88.6755 147.468 88.8099 147.489 88.9133C147.53 89.0167 147.571 89.1511 147.613 89.3165C147.675 89.4819 147.726 89.6163 147.768 89.7197C147.83 89.8024 147.892 89.8954 147.954 89.9988C148.037 90.1022 148.119 90.1849 148.202 90.2469C148.285 90.2883 148.367 90.3089 148.45 90.3089C148.574 90.3089 148.667 89.2131 148.729 87.0214C148.812 84.8091 148.853 82.9792 148.853 81.5319C148.853 81.3251 148.843 81.0253 148.822 80.6325C148.802 80.2189 148.791 79.9088 148.791 79.702C148.791 78.6269 148.895 77.7791 149.101 77.1589C149.329 76.5179 149.773 76.1974 150.435 76.1974C151.262 76.1974 151.676 77.3863 151.676 79.7641C151.676 80.7359 151.645 82.3279 151.582 84.5403C151.541 86.7526 151.52 88.2827 151.52 89.1304C151.52 89.6266 151.51 90.4123 151.489 91.4875C151.469 92.542 151.458 93.3277 151.458 93.8446C151.458 95.4573 151.272 96.6979 150.9 97.5663C150.776 97.8351 150.559 98.0832 150.249 98.3106C149.939 98.5381 149.691 98.6518 149.505 98.6518C149.008 98.6518 148.481 98.1969 147.923 97.2872C147.365 96.3774 146.827 95.2092 146.31 93.7825C145.814 92.3352 145.369 90.9706 144.976 89.6887C144.604 88.4067 144.253 87.1455 143.922 85.9049C143.612 84.6437 143.457 84.0027 143.457 83.982C143.333 83.6098 143.26 83.4031 143.24 83.3617C143.198 83.279 143.136 83.2377 143.054 83.2377H143.023C142.94 83.2377 142.898 83.3721 142.898 83.6409C142.898 83.7236 142.909 83.8683 142.929 84.0751C142.95 84.2611 142.961 84.3955 142.961 84.4782C142.981 85.0158 142.992 86.4528 142.992 88.7892C142.992 92.2215 142.961 94.5579 142.898 95.7985C142.857 96.7703 142.692 97.4939 142.402 97.9695C142.113 98.4244 141.617 98.6518 140.914 98.6518C140.149 98.6518 139.766 97.3595 139.766 94.775C139.766 94.5269 139.766 94.1444 139.766 93.6275C139.787 93.1106 139.797 92.7384 139.797 92.511Z" fill="var(--fill-0, white)"/>
<path d="M158.933 98.8689C155.128 98.8689 153.226 92.1801 153.226 78.8026C153.226 78.1617 153.34 77.5931 153.567 77.0968C153.795 76.6006 154.157 76.3525 154.653 76.3525C155.066 76.3525 155.428 76.5179 155.738 76.8487C156.069 77.1795 156.235 77.6861 156.235 78.3684C156.235 83.3721 156.39 87.1248 156.7 89.6266C156.907 91.3427 157.227 92.6453 157.661 93.5344C158.116 94.4235 158.623 94.868 159.181 94.868C159.822 94.868 160.267 94.072 160.515 92.4799C160.783 90.8879 160.969 88.7169 161.073 85.9669C161.197 83.1963 161.321 81.3148 161.445 80.3223C161.714 78.5855 162.055 77.4483 162.469 76.9108C162.82 76.4972 163.244 76.2801 163.74 76.2594C164.174 76.2594 164.443 76.5179 164.546 77.0348C164.671 77.5517 164.733 78.3994 164.733 79.578V80.3533C164.733 81.4078 164.722 82.3176 164.702 83.0826C164.702 83.8269 164.671 84.7987 164.609 85.9979C164.567 87.1972 164.484 88.2413 164.36 89.1304C164.257 90.0195 164.112 91.0016 163.926 92.0768C163.761 93.1312 163.533 94.0307 163.244 94.775C162.954 95.5193 162.613 96.2223 162.22 96.884C161.828 97.5456 161.352 98.0418 160.794 98.3727C160.235 98.7035 159.615 98.8689 158.933 98.8689Z" fill="var(--fill-0, white)"/>
<path d="M174.347 94.1857V93.8756C174.326 93.276 174.316 92.3869 174.316 91.2084C174.316 89.9264 174.357 88.1069 174.44 85.7498C174.543 83.3927 174.605 81.9351 174.626 81.3768C174.647 80.2396 174.74 78.906 174.905 77.376C174.988 76.673 175.608 76.2801 176.766 76.1974H177.541C178.41 76.1974 179.237 76.2698 180.023 76.4145C182.648 76.9521 184.261 79.0507 184.861 82.7104C184.964 83.2894 185.016 84.4782 185.016 86.2771C185.016 88.5101 184.737 90.557 184.179 92.4179C183.62 94.2788 182.68 95.8502 181.356 97.1321C180.033 98.414 178.41 99.055 176.487 99.055C176.404 99.055 176.26 99.0446 176.053 99.024C175.846 99.024 175.681 99.024 175.557 99.024C174.916 99.024 174.574 98.5381 174.533 97.5663C174.533 97.1734 174.502 96.6152 174.44 95.8915C174.378 95.1472 174.347 94.5786 174.347 94.1857ZM178.441 94.8991C178.441 95.0851 178.524 95.1782 178.689 95.1782C179.495 95.1782 180.302 94.0617 181.108 91.8286C181.935 89.5749 182.349 87.559 182.349 85.7808C182.349 85.0985 182.338 84.5506 182.318 84.1371C182.297 83.7029 182.245 83.1963 182.163 82.6174C182.101 82.0385 181.987 81.5732 181.821 81.2217C181.677 80.8702 181.47 80.5291 181.201 80.1983C180.953 79.8468 180.612 79.5883 180.178 79.4229C179.764 79.2368 179.268 79.1334 178.689 79.1128H178.658C178.348 79.1128 178.193 79.3505 178.193 79.8261V83.951C178.234 84.8607 178.265 85.9566 178.286 87.2385C178.327 88.4998 178.358 89.5646 178.379 90.433V90.6501C178.4 90.8982 178.41 91.2704 178.41 91.7666V93.6585C178.41 94.1961 178.42 94.6096 178.441 94.8991Z" fill="var(--fill-0, white)"/>
<path d="M194.723 96.5118C194.723 96.9667 194.579 97.3802 194.289 97.7524C194.02 98.1039 193.7 98.3003 193.328 98.3416C192.273 98.445 191.146 98.4967 189.947 98.4967C189.058 98.4967 188.262 98.3313 187.559 98.0005C186.877 97.649 186.536 97.1114 186.536 96.3877V90.3089C186.536 84.7264 186.608 80.4671 186.753 77.531C186.794 76.5799 187.983 76.1044 190.319 76.1044C191.953 76.1044 193.09 76.2491 193.731 76.5386C194.393 76.8074 194.723 77.4793 194.723 78.5545C194.723 79.2575 194.113 79.609 192.894 79.609C192.852 79.609 192.79 79.609 192.707 79.609C192.625 79.5883 192.563 79.578 192.521 79.578C192.253 79.5573 191.901 79.516 191.467 79.4539C191.053 79.3712 190.764 79.3299 190.598 79.3299C190.04 79.3299 189.761 79.5263 189.761 79.9191V80.4464C189.761 80.9013 189.771 81.5215 189.792 82.3072C189.833 83.0723 189.854 83.6409 189.854 84.013C189.854 84.1991 189.844 84.4369 189.823 84.7264C189.823 84.9951 189.823 85.1709 189.823 85.2536V86.091C189.823 86.2771 189.885 86.3701 190.009 86.3701C190.03 86.3701 190.061 86.3701 190.102 86.3701C190.164 86.3494 190.216 86.3391 190.257 86.3391C191.064 86.3391 191.529 86.3494 191.653 86.3701C192.811 86.5355 193.39 87.0834 193.39 88.0139C193.39 88.7169 192.511 89.0684 190.754 89.0684C190.319 89.0684 190.061 89.089 189.978 89.1304C189.896 89.1511 189.854 89.2441 189.854 89.4095C189.854 89.7403 189.865 90.3296 189.885 91.1773C189.906 92.0251 189.916 92.7384 189.916 93.3173C189.916 93.3794 189.906 93.5551 189.885 93.8446C189.885 94.1134 189.885 94.2788 189.885 94.3408C189.885 94.6509 190.051 94.837 190.381 94.8991C190.65 94.9404 191.022 94.9714 191.498 94.9921C191.973 94.9921 192.366 95.0024 192.676 95.0231C193.007 95.0231 193.338 95.0645 193.669 95.1472C194.02 95.2299 194.279 95.385 194.444 95.6124C194.63 95.8398 194.723 96.1396 194.723 96.5118Z" fill="var(--fill-0, white)"/>
<path d="M204.493 81.1287C204.493 77.8825 205.186 76.2594 206.571 76.2594C207.481 76.2594 207.936 78.8336 207.936 83.982V84.1371C207.936 86.3081 207.925 88.934 207.904 92.0147C207.904 95.0748 207.904 96.6462 207.904 96.7289C207.904 98.0315 207.346 98.6828 206.23 98.6828C205.713 98.6828 205.268 98.2589 204.896 97.4112C204.669 96.915 204.162 95.7468 203.376 93.9066C202.591 92.0664 201.96 90.6604 201.485 89.6887C201.422 89.5646 200.875 88.0139 199.841 85.0365C199.758 84.8504 199.686 84.7574 199.624 84.7574C199.562 84.7574 199.531 84.8504 199.531 85.0365C199.531 85.2433 199.531 85.5741 199.531 86.029C199.551 86.4632 199.562 86.794 199.562 87.0214C199.562 87.6003 199.593 88.6652 199.655 90.2159C199.717 91.7459 199.748 92.8521 199.748 93.5344C199.748 93.8446 199.748 94.2684 199.748 94.806C199.768 95.3229 199.779 95.6951 199.779 95.9225C199.779 96.915 199.613 97.6283 199.283 98.0625C198.972 98.476 198.476 98.6828 197.794 98.6828C197.298 98.6828 196.936 98.5381 196.708 98.2486C196.481 97.9385 196.367 97.2768 196.367 96.2637C196.367 95.8502 196.357 94.9818 196.336 93.6585C196.336 92.3145 196.336 91.4358 196.336 91.0223V88.231C196.336 85.1502 196.419 82.8862 196.584 81.4388C196.977 78.0273 197.752 76.3215 198.91 76.3215C199.469 76.3215 200.223 77.5207 201.174 79.9191C201.733 81.3251 202.188 82.5243 202.539 83.5168C202.891 84.4886 203.283 85.6671 203.718 87.0524C204.152 88.4171 204.472 89.3992 204.679 89.9988C204.7 90.0815 204.741 90.1228 204.803 90.1228C204.906 90.1228 204.958 89.8437 204.958 89.2855C204.958 88.7272 204.875 87.4246 204.71 85.3777C204.565 83.31 204.493 81.8937 204.493 81.1287Z" fill="var(--fill-0, white)"/>
<path d="M209.641 93.5344C209.641 93.5344 209.641 92.7797 209.641 91.2704C209.641 89.699 209.672 87.4143 209.734 84.4162C209.817 81.4182 209.858 79.1128 209.858 77.5C209.858 76.6523 210.437 76.2284 211.595 76.2284H212.06C212.598 76.2284 213.311 76.2491 214.2 76.2905C215.11 76.3318 215.823 76.3525 216.34 76.3525C216.899 76.3525 217.302 76.6213 217.55 77.1589C217.633 77.3243 217.674 77.6758 217.674 78.2133V78.2754C217.674 78.5648 217.54 78.8233 217.271 79.0507C217.002 79.2575 216.702 79.3609 216.371 79.3609H213.022C212.877 79.3609 212.805 79.4953 212.805 79.7641C212.805 80.3844 212.794 81.4182 212.774 82.8655C212.753 84.3128 212.743 85.326 212.743 85.9049C212.743 86.1737 212.784 86.3494 212.867 86.4321C212.97 86.4942 213.177 86.5459 213.487 86.5872C213.673 86.6079 213.952 86.6286 214.324 86.6492C214.717 86.6492 215.027 86.6596 215.255 86.6803C215.503 86.7009 215.761 86.7423 216.03 86.8043C216.299 86.8663 216.495 86.9697 216.62 87.1145C216.744 87.2385 216.806 87.4143 216.806 87.6417C216.806 88.965 216.464 89.6266 215.782 89.6266C215.596 89.6266 215.141 89.6576 214.417 89.7197C213.694 89.7817 213.208 89.8127 212.96 89.8127C212.856 89.8127 212.805 89.9264 212.805 90.1539C212.805 90.5674 212.805 91.3531 212.805 92.511C212.825 93.6481 212.836 94.5165 212.836 95.1162V95.1782C212.836 95.447 213.167 95.5814 213.828 95.5814C215.379 95.5814 216.413 95.6744 216.93 95.8605C217.447 96.0259 217.705 96.3567 217.705 96.853C217.705 98.1142 216.899 98.7448 215.286 98.7448H213.766C213.683 98.7448 213.57 98.7448 213.425 98.7448C213.28 98.7655 213.177 98.7758 213.115 98.7758C211.647 98.7758 210.768 98.6311 210.479 98.3416C209.941 97.7627 209.672 97.0184 209.672 96.1086V95.8295C209.672 95.602 209.662 95.2299 209.641 94.713C209.641 94.1754 209.641 93.7825 209.641 93.5344Z" fill="var(--fill-0, white)"/>
<path d="M222.233 99.8613C221.654 99.8613 221.148 99.6339 220.713 99.179C220.279 98.7448 220.062 98.1659 220.062 97.4422V97.4112C220.062 96.9563 220.248 96.4808 220.62 95.9846C221.013 95.4883 221.509 95.2402 222.109 95.2402C222.585 95.2402 223.008 95.4883 223.381 95.9846C223.753 96.4808 223.939 97.039 223.939 97.6593C223.939 98.383 223.773 98.9309 223.443 99.3031C223.112 99.6753 222.709 99.8613 222.233 99.8613ZM223.381 84.6023C223.484 86.6699 223.536 88.7375 223.536 90.8052V90.9912C223.536 91.4461 223.525 91.808 223.505 92.0768C223.484 92.3249 223.432 92.6247 223.35 92.9762C223.267 93.3277 223.122 93.5861 222.915 93.7515C222.729 93.9169 222.471 93.9996 222.14 93.9996C221.892 93.9996 221.665 93.979 221.458 93.9376C221.272 93.8963 221.106 93.8136 220.962 93.6895C220.837 93.5654 220.734 93.4724 220.651 93.4104C220.569 93.3277 220.496 93.1623 220.434 92.9141C220.372 92.6453 220.331 92.4696 220.31 92.3869C220.29 92.3042 220.259 92.0871 220.217 91.7356C220.176 91.3841 220.145 91.1567 220.124 91.0533C220.021 90.3089 219.969 87.9002 219.969 83.8269V82.4313C219.969 82.1005 219.959 81.6353 219.938 81.0357C219.938 80.436 219.938 80.0122 219.938 79.7641C219.938 79.5987 219.928 79.3195 219.907 78.9267C219.907 78.5338 219.907 78.234 219.907 78.0273C219.907 75.8149 220.517 74.7087 221.737 74.7087C222.088 74.7087 222.378 74.9775 222.605 75.5151C222.853 76.032 223.019 76.7453 223.102 77.6551C223.205 78.5442 223.267 79.3919 223.288 80.1983C223.329 80.984 223.35 81.8627 223.35 82.8345C223.37 83.7856 223.381 84.3749 223.381 84.6023Z" fill="var(--fill-0, white)"/>
<path d="M13.6563 38.9206C13.3668 39.2307 13.2014 39.6546 13.1601 40.1922V40.3162C13.1601 40.9365 13.3358 41.5361 13.6873 42.1151C14.0595 42.6733 14.5144 42.9524 15.0519 42.9524C15.7136 42.9524 16.2098 42.756 16.5406 42.3632C16.8921 41.9703 17.0679 41.4844 17.0679 40.9055C17.0679 40.3472 16.9128 39.8407 16.6027 39.3858C16.3132 38.9309 15.9203 38.6415 15.4241 38.5174C15.2794 38.4761 15.0726 38.4554 14.8038 38.4554C14.3283 38.4554 13.9458 38.6104 13.6563 38.9206Z" fill="var(--fill-0, white)"/>
<path d="M224.412 38.5341C224.123 38.8442 223.958 39.2681 223.916 39.8057V39.9297C223.916 40.55 224.092 41.1496 224.443 41.7286C224.816 42.2868 225.271 42.566 225.808 42.566C226.47 42.566 226.966 42.3695 227.297 41.9767C227.648 41.5838 227.824 41.098 227.824 40.519C227.824 39.9608 227.669 39.4542 227.359 38.9993C227.069 38.5444 226.677 38.255 226.18 38.1309C226.036 38.0896 225.829 38.0689 225.56 38.0689C225.084 38.0689 224.702 38.224 224.412 38.5341Z" fill="var(--fill-0, white)"/>
<path d="M206.09 38.5341C205.801 38.8442 205.635 39.2681 205.594 39.8057V39.9297C205.594 40.55 205.77 41.1496 206.121 41.7286C206.493 42.2868 206.948 42.566 207.486 42.566C208.147 42.566 208.644 42.3695 208.974 41.9767C209.326 41.5838 209.502 41.098 209.502 40.519C209.502 39.9608 209.347 39.4542 209.037 38.9993C208.747 38.5444 208.354 38.255 207.858 38.1309C207.713 38.0896 207.506 38.0689 207.238 38.0689C206.762 38.0689 206.38 38.224 206.09 38.5341Z" fill="var(--fill-0, white)"/>
</g>
</svg>
