<svg width="167" height="61" viewBox="0 0 167 61" fill="none" xmlns="http://www.w3.org/2000/svg">

<g id="&#196;&#176;nteraktif Bundlestition">

<g id="iPhone 14 Pro">
<g id="Group 11">
<g id="iphone-12--screen">
<g id="MyBundle_Grid">

<g id="Mask group">
<g id="Citroen-Bundlesitition-1">
<g>

<g id="Citroen-Bundlesitition-4">

<g id="Swipe area">
<g id="Cover image">
<path id="Name" d="M1.85929 15.591C2.90303 15.591 3.4249 16.2759 3.4249 17.6458C3.4249 17.7763 3.4249 17.9938 3.4249 18.2982C3.44665 18.6026 3.45752 18.9288 3.45752 19.2767C3.45752 20.5814 4.04463 21.2337 5.21884 21.2337C5.7842 21.2337 6.20822 21.0489 6.4909 20.6792C6.79533 20.2878 6.98016 19.8855 7.04539 19.4724C7.11062 19.0375 7.14324 18.4939 7.14324 17.8415C7.14324 16.6021 6.95841 15.6236 6.58875 14.906C6.24084 14.1884 5.7842 13.6883 5.21884 13.4056C4.65348 13.1012 4.06637 12.8294 3.45752 12.5902C2.87041 12.351 2.27244 11.9596 1.66358 11.416C1.07648 10.8724 0.630713 10.1331 0.326287 9.19803C0.174075 8.74139 0.0979685 8.17603 0.0979685 7.50195C0.0979685 6.61042 0.184947 5.7515 0.358904 4.9252C0.554606 4.09891 0.84816 3.3161 1.23956 2.57678C1.63097 1.81572 2.18546 1.21774 2.90303 0.782845C3.6206 0.326207 4.45777 0.0978881 5.41454 0.0978881C7.37156 0.0978881 8.71973 0.521909 9.45905 1.36995C10.2201 2.21799 10.6006 3.66401 10.6006 5.70801C10.6006 6.51257 10.057 6.91484 8.96979 6.91484C8.46967 6.91484 8.08913 6.74088 7.8282 6.39297C7.58901 6.02331 7.43679 5.63191 7.37156 5.21876C7.32807 4.78386 7.16499 4.39246 6.88231 4.04455C6.59962 3.67489 6.19735 3.49006 5.67548 3.49006C5.11011 3.49006 4.6426 3.75099 4.27294 4.27286C3.92503 4.77299 3.69671 5.30574 3.58799 5.8711C3.47926 6.41471 3.4249 6.94746 3.4249 7.46933C3.4249 8.4261 3.87067 9.1328 4.7622 9.58944C5.76245 10.0896 6.55613 10.5462 7.14324 10.9593C7.73035 11.3508 8.3392 11.8726 8.96979 12.525C9.62213 13.1773 10.0896 13.9601 10.3723 14.8734C10.6767 15.7649 10.829 16.8087 10.829 18.0046C10.829 19.7877 10.3506 21.3098 9.39381 22.571C8.43705 23.8104 7.03452 24.4302 5.18622 24.4302C3.57712 24.4302 2.30505 23.8757 1.37003 22.7667C0.456755 21.636 0.000117451 20.19 0.000117451 18.4286C0.000117451 17.3414 0.130585 16.6021 0.391521 16.2107C0.652458 15.7975 1.14171 15.591 1.85929 15.591ZM21.0381 21.5273C21.0381 22.0056 20.8859 22.4405 20.5814 22.8319C20.2988 23.2016 19.9617 23.4082 19.5703 23.4517C18.4613 23.5604 17.2763 23.6147 16.0151 23.6147C15.08 23.6147 14.2429 23.4408 13.5036 23.0929C12.786 22.7232 12.4272 22.1579 12.4272 21.3968V15.0365V15.0039C12.4272 9.1328 12.5033 4.6534 12.6555 1.56565C12.699 0.565398 13.9493 0.065271 16.4065 0.065271C18.1243 0.065271 19.3203 0.217484 19.9943 0.521909C20.6902 0.80459 21.0381 1.51129 21.0381 2.64201C21.0381 3.38133 20.3966 3.75099 19.1137 3.75099C19.0702 3.75099 19.005 3.75099 18.918 3.75099C18.831 3.72925 18.7658 3.71838 18.7223 3.71838C18.4396 3.69663 18.0699 3.65314 17.6133 3.58791C17.1784 3.50093 16.874 3.45744 16.7 3.45744C16.1129 3.45744 15.8194 3.66401 15.8194 4.07716V4.63165C15.8194 5.11003 15.8302 5.76237 15.852 6.58867C15.8955 7.39322 15.9172 7.9912 15.9172 8.38261C15.9172 8.57831 15.9063 8.82837 15.8846 9.1328C15.8846 9.41548 15.8846 9.60031 15.8846 9.68729V10.5679C15.8846 10.7636 15.9498 10.8615 16.0803 10.8615C16.102 10.8615 16.1347 10.8615 16.1781 10.8615C16.2434 10.8398 16.2977 10.8289 16.3412 10.8289C17.1893 10.8289 17.6785 10.8398 17.809 10.8615C19.0267 11.0355 19.6356 11.6117 19.6356 12.5902C19.6356 13.3295 18.7114 13.6992 16.8631 13.6992C16.4065 13.6992 16.1347 13.7209 16.0477 13.7644C15.9607 13.7862 15.9172 13.884 15.9172 14.058C15.9172 14.4059 15.9281 15.0256 15.9498 15.9171C15.9716 16.8087 15.9824 17.5589 15.9824 18.1677C15.9824 18.2329 15.9716 18.4178 15.9498 18.7222C15.9498 19.0049 15.9498 19.1788 15.9498 19.2441C15.9498 19.5702 16.1238 19.7659 16.4717 19.8312C16.7544 19.8747 17.1458 19.9073 17.6459 19.929C18.146 19.929 18.5592 19.9399 18.8854 19.9616C19.2333 19.9616 19.5812 20.0051 19.9291 20.0921C20.2988 20.1791 20.5706 20.3422 20.7445 20.5814C20.9402 20.8206 21.0381 21.1359 21.0381 21.5273ZM31.3124 5.34923C31.3124 1.93531 32.0409 0.228356 33.4978 0.228356C34.4545 0.228356 34.9329 2.93557 34.9329 8.34999V8.51307C34.9329 10.7963 34.9221 13.5578 34.9003 16.7978C34.9003 20.016 34.9003 21.6686 34.9003 21.7556C34.9003 23.1255 34.3132 23.8104 33.139 23.8104C32.5954 23.8104 32.1279 23.3647 31.7365 22.4732C31.4973 21.9513 30.9645 20.7227 30.1382 18.7874C29.3119 16.8522 28.6487 15.3735 28.1486 14.3515C28.0834 14.2211 27.5071 12.5902 26.4199 9.45897C26.3329 9.26327 26.2568 9.16541 26.1916 9.16541C26.1263 9.16541 26.0937 9.26327 26.0937 9.45897C26.0937 9.67641 26.0937 10.0243 26.0937 10.5027C26.1155 10.9593 26.1263 11.3073 26.1263 11.5465C26.1263 12.1553 26.159 13.2752 26.2242 14.906C26.2894 16.5151 26.322 17.6785 26.322 18.396C26.322 18.7222 26.322 19.168 26.322 19.7333C26.3438 20.2769 26.3547 20.6683 26.3547 20.9075C26.3547 21.9513 26.1807 22.7015 25.8328 23.1581C25.5066 23.593 24.9847 23.8104 24.2672 23.8104C23.7453 23.8104 23.3648 23.6582 23.1256 23.3538C22.8864 23.0276 22.7668 22.3318 22.7668 21.2663C22.7668 20.8314 22.7559 19.9182 22.7342 18.5265C22.7342 17.1131 22.7342 16.1889 22.7342 15.754V14.1884V12.8185C22.7342 9.57856 22.8211 7.19752 22.9951 5.6754C23.4083 2.08753 24.2237 0.29359 25.4414 0.29359C26.0285 0.29359 26.8222 1.55478 27.8224 4.07716C28.4095 5.5558 28.8879 6.81699 29.2576 7.86073C29.6272 8.88273 30.0404 10.1222 30.497 11.5791C30.9537 13.0142 31.2907 14.0471 31.5081 14.6777C31.5299 14.7647 31.5734 14.8082 31.6386 14.8082C31.7473 14.8082 31.8017 14.5146 31.8017 13.9275C31.8017 13.3404 31.7147 11.9705 31.5408 9.81775C31.3885 7.64329 31.3124 6.15378 31.3124 5.34923ZM48.208 5.08829C48.208 5.08829 48.208 5.12091 48.208 5.18614C48.208 5.92546 48.0341 6.43646 47.6862 6.71914C47.3383 7.00182 46.7946 7.15403 46.0553 7.17578C45.0116 7.17578 44.4897 6.86048 44.4897 6.22988C44.4897 5.51231 44.3484 4.99044 44.0657 4.66427C43.8048 4.31635 43.5221 4.1424 43.2176 4.1424C41.0867 4.1424 40.0212 6.9692 40.0212 12.6228C40.0212 17.7111 40.8257 20.2552 42.4348 20.2552C42.9132 20.2552 43.3807 20.1139 43.8374 19.8312C44.294 19.5485 44.5223 19.1897 44.5223 18.7548C44.5223 17.2762 45.1529 16.5369 46.4141 16.5369C46.9795 16.5369 47.4035 16.776 47.6862 17.2544C47.9689 17.7328 48.1102 18.3199 48.1102 19.0157C48.1102 20.5596 47.534 21.7991 46.3815 22.7341C45.2508 23.6474 43.9352 24.104 42.4348 24.104C38.4338 24.104 36.4333 20.6575 36.4333 13.7644C36.4333 12.5685 36.4551 11.503 36.4985 10.5679C36.5638 9.63293 36.6725 8.61093 36.8247 7.50195C36.9987 6.39297 37.2487 5.4362 37.5749 4.63165C37.9011 3.8271 38.3142 3.07691 38.8144 2.38108C39.3145 1.68525 39.9668 1.1525 40.7714 0.782845C41.5759 0.413186 42.4892 0.228356 43.5112 0.228356C44.7724 0.228356 45.8596 0.706739 46.7729 1.6635C47.6862 2.62027 48.1646 3.76186 48.208 5.08829ZM49.7084 18.396C49.7084 18.396 49.7084 17.6023 49.7084 16.015C49.7084 14.3624 49.741 11.9596 49.8063 8.80663C49.8933 5.65365 49.9367 3.22912 49.9367 1.53304C49.9367 0.641505 50.5456 0.195739 51.7633 0.195739H52.2526C52.8179 0.195739 53.5681 0.217484 54.5031 0.260973C55.4599 0.304462 56.2101 0.326207 56.7537 0.326207C57.3408 0.326207 57.7648 0.608888 58.0258 1.17425C58.1127 1.34821 58.1562 1.71787 58.1562 2.28323V2.34846C58.1562 2.65289 58.0149 2.92469 57.7322 3.16389C57.4495 3.38133 57.1342 3.49006 56.7863 3.49006H53.2637C53.1115 3.49006 53.0354 3.6314 53.0354 3.91408C53.0354 4.56642 53.0245 5.65365 53.0027 7.17578C52.981 8.6979 52.9701 9.76339 52.9701 10.3722C52.9701 10.6549 53.0136 10.8398 53.1006 10.9267C53.2093 10.992 53.4268 11.0463 53.7529 11.0898C53.9486 11.1116 54.2422 11.1333 54.6336 11.1551C55.0467 11.1551 55.3729 11.1659 55.6121 11.1877C55.873 11.2094 56.1449 11.2529 56.4275 11.3181C56.7102 11.3834 56.9168 11.4921 57.0473 11.6443C57.1777 11.7748 57.243 11.9596 57.243 12.1988C57.243 13.5905 56.8842 14.2863 56.1666 14.2863C55.9709 14.2863 55.4925 14.3189 54.7314 14.3841C53.9704 14.4494 53.4594 14.482 53.1985 14.482C53.0897 14.482 53.0354 14.6016 53.0354 14.8408C53.0354 15.2757 53.0354 16.102 53.0354 17.3197C53.0571 18.5156 53.068 19.4289 53.068 20.0595V20.0921V20.1247C53.068 20.4074 53.4159 20.5487 54.1117 20.5487C55.7426 20.5487 56.8298 20.6466 57.3734 20.8423C57.917 21.0163 58.1889 21.3642 58.1889 21.886C58.1889 23.2125 57.3408 23.8757 55.6447 23.8757H54.0465C53.9595 23.8757 53.8399 23.8757 53.6877 23.8757C53.5355 23.8974 53.4268 23.9083 53.3615 23.9083C51.8177 23.9083 50.8935 23.7561 50.5891 23.4517C50.0237 22.8428 49.741 22.06 49.741 21.1032V20.8097C49.741 20.5705 49.7302 20.1791 49.7084 19.6355C49.7084 19.0701 49.7084 18.657 49.7084 18.396ZM76.7153 5.34923C76.7153 1.93531 77.4438 0.228356 78.9006 0.228356C79.8574 0.228356 80.3358 2.93557 80.3358 8.34999V8.51307C80.3358 10.7963 80.3249 13.5578 80.3032 16.7978C80.3032 20.016 80.3032 21.6686 80.3032 21.7556C80.3032 23.1255 79.7161 23.8104 78.5419 23.8104C77.9982 23.8104 77.5307 23.3647 77.1393 22.4732C76.9001 21.9513 76.3674 20.7227 75.5411 18.7874C74.7148 16.8522 74.0516 15.3735 73.5515 14.3515C73.4862 14.2211 72.91 12.5902 71.8228 9.45897C71.7358 9.26327 71.6597 9.16541 71.5944 9.16541C71.5292 9.16541 71.4966 9.26327 71.4966 9.45897C71.4966 9.67641 71.4966 10.0243 71.4966 10.5027C71.5183 10.9593 71.5292 11.3073 71.5292 11.5465C71.5292 12.1553 71.5618 13.2752 71.6271 14.906C71.6923 16.5151 71.7249 17.6785 71.7249 18.396C71.7249 18.7222 71.7249 19.168 71.7249 19.7333C71.7466 20.2769 71.7575 20.6683 71.7575 20.9075C71.7575 21.9513 71.5836 22.7015 71.2357 23.1581C70.9095 23.593 70.3876 23.8104 69.67 23.8104C69.1482 23.8104 68.7676 23.6582 68.5284 23.3538C68.2892 23.0276 68.1697 22.3318 68.1697 21.2663C68.1697 20.8314 68.1588 19.9182 68.137 18.5265C68.137 17.1131 68.137 16.1889 68.137 15.754V14.1884V12.8185C68.137 9.57856 68.224 7.19752 68.398 5.6754C68.8111 2.08753 69.6265 0.29359 70.8442 0.29359C71.4314 0.29359 72.225 1.55478 73.2253 4.07716C73.8124 5.5558 74.2908 6.81699 74.6604 7.86073C75.0301 8.88273 75.4432 10.1222 75.8999 11.5791C76.3565 13.0142 76.6936 14.0471 76.911 14.6777C76.9328 14.7647 76.9762 14.8082 77.0415 14.8082C77.1502 14.8082 77.2046 14.5146 77.2046 13.9275C77.2046 13.3404 77.1176 11.9705 76.9436 9.81775C76.7914 7.64329 76.7153 6.15378 76.7153 5.34923ZM82.1624 22.2774C82.1624 21.4512 82.1841 20.1356 82.2276 18.3308C82.2711 16.5042 82.2928 15.1561 82.2928 14.2863V8.08905C82.2928 6.37122 82.3363 4.69689 82.4233 3.06604V2.12014C82.4233 1.44606 82.4994 0.956802 82.6516 0.652377C82.8038 0.347952 83.13 0.195739 83.6301 0.195739C84.2607 0.195739 84.8261 0.206611 85.3262 0.228356C85.8263 0.228356 86.4026 0.228356 87.0549 0.228356H87.5442C88.0225 0.228356 88.4139 0.239228 88.7184 0.260973C89.0228 0.282718 89.349 0.337079 89.6969 0.424058C90.0665 0.511037 90.3383 0.663249 90.5123 0.880696C90.708 1.09814 90.8059 1.36995 90.8059 1.69612C90.8059 2.08753 90.7624 2.40282 90.6754 2.64201C90.5884 2.85946 90.4145 3.02255 90.1535 3.13127C89.9143 3.21825 89.6969 3.27261 89.5012 3.29435C89.3055 3.3161 88.9902 3.32697 88.5553 3.32697H88.4248H86.9571H86.9244C86.707 3.32697 86.5439 3.33784 86.4352 3.35959C86.3265 3.38133 86.2286 3.43569 86.1416 3.52267C86.0764 3.60965 86.0438 3.75099 86.0438 3.94669V4.27286C86.0438 4.75125 86.0329 5.46882 86.0112 6.42559C86.0112 7.38235 86.0112 8.08905 86.0112 8.54569L85.9785 9.19803C85.9568 9.19803 85.9459 9.3285 85.9459 9.58944C85.9677 9.98084 86.3591 10.1765 87.1201 10.1765L87.6094 10.2092C87.6094 10.2309 87.6964 10.2418 87.8703 10.2418C88.2835 10.2418 88.5879 10.2635 88.7836 10.307C89.001 10.3505 89.2076 10.5027 89.4033 10.7636C89.599 11.0246 89.6969 11.416 89.6969 11.9379V12.1988C89.6534 12.9381 89.0337 13.3078 87.8377 13.3078C87.6855 13.3078 87.3593 13.3078 86.8592 13.3078C86.3808 13.286 86.0764 13.2752 85.9459 13.2752C85.7937 13.2752 85.7176 14.5037 85.7176 16.9609C85.7176 17.3088 85.7285 17.7546 85.7502 18.2982C85.7937 18.82 85.8155 19.1027 85.8155 19.1462C85.8155 19.842 86.022 20.19 86.4352 20.19H86.4678C86.9679 20.19 87.4354 20.19 87.8703 20.19C88.327 20.1682 88.8053 20.1573 89.3055 20.1573C90.371 20.1573 90.9037 20.7445 90.9037 21.9187C90.9037 21.9404 90.8928 21.9948 90.8711 22.0817C90.8711 22.1687 90.8711 22.2231 90.8711 22.2448C90.8276 22.8537 90.6645 23.2668 90.3818 23.4843C90.1209 23.68 89.7078 23.7778 89.1424 23.7778C88.9467 23.7778 88.5662 23.767 88.0008 23.7452C87.4354 23.7017 86.9679 23.68 86.5983 23.68C86.2286 23.68 85.7393 23.68 85.1305 23.68C84.5434 23.6582 84.1411 23.6474 83.9237 23.6474H83.8911C83.1952 23.6474 82.7277 23.5495 82.4885 23.3538C82.2711 23.1364 82.1624 22.7776 82.1624 22.2774ZM104.701 17.5806C104.701 19.4941 104.57 21.0054 104.309 22.1144C104.07 23.2233 103.57 23.7778 102.809 23.7778C102.135 23.7778 101.624 23.4952 101.276 22.9298C100.928 22.3427 100.754 21.7012 100.754 21.0054C100.754 19.418 100.787 16.6238 100.852 12.6228C100.917 8.60005 100.95 5.8711 100.95 4.43595C100.95 4.32723 100.939 4.15327 100.917 3.91408C100.917 3.65314 100.917 3.44657 100.917 3.29435C100.917 1.09814 101.341 3.70443e-05 102.189 3.70443e-05C103.037 3.70443e-05 103.592 0.184867 103.853 0.554526C104.135 0.902441 104.32 1.56565 104.407 2.54416C104.429 2.78335 104.451 3.65314 104.472 5.15352C104.494 6.63216 104.538 7.55631 104.603 7.92597C104.625 8.07818 104.701 8.17603 104.831 8.21952H104.929C105.016 8.21952 105.103 8.15429 105.19 8.02382C105.233 7.98033 105.744 7.4041 106.723 6.29512C107.897 4.96869 108.963 3.85972 109.919 2.96818C110.68 2.25061 111.235 1.77223 111.583 1.53304C111.8 1.31559 112.116 1.10902 112.529 0.913313C112.964 0.717611 113.366 0.61976 113.736 0.61976C114.41 0.61976 114.747 0.978547 114.747 1.69612C114.747 2.63114 114.475 3.47918 113.931 4.24025C113.409 5.00131 112.659 5.79499 111.681 6.62129C110.702 7.44759 110.072 8.02382 109.789 8.34999C109.702 8.45871 109.408 8.8175 108.908 9.42635C108.408 10.0135 108.017 10.4484 107.734 10.731C107.538 10.9702 107.441 11.1224 107.441 11.1877C107.441 11.2312 107.484 11.2964 107.571 11.3834C107.658 11.4703 107.723 11.5465 107.767 11.6117C109.571 14.8082 111.137 17.2436 112.464 18.9179C112.572 19.0484 112.757 19.2767 113.018 19.6029C113.301 19.929 113.496 20.1682 113.605 20.3204C113.736 20.4726 113.888 20.6792 114.062 20.9402C114.236 21.2011 114.355 21.4512 114.421 21.6903C114.486 21.9078 114.518 22.1361 114.518 22.3753C114.518 23.2016 113.833 23.6147 112.464 23.6147C111.724 23.6147 110.963 23.2342 110.18 22.4732C109.398 21.7121 108.745 20.9184 108.223 20.0921C108.136 19.9399 107.832 19.3528 107.31 18.3308C106.81 17.287 106.321 16.352 105.842 15.5257C105.386 14.6994 105.07 14.2863 104.896 14.2863C104.744 14.2863 104.668 14.4385 104.668 14.7429V15.1017C104.668 15.4061 104.668 15.8084 104.668 16.3085C104.69 16.7869 104.701 17.2109 104.701 17.5806ZM123.553 19.081C123.423 19.081 123.195 19.1027 122.868 19.1462C122.564 19.1897 122.325 19.2115 122.151 19.2115C121.803 19.2115 121.292 19.2006 120.618 19.1788C119.944 19.1353 119.552 19.1136 119.444 19.1136C119.27 19.1136 119.15 19.2767 119.085 19.6029C118.867 20.7118 118.748 21.4185 118.726 21.723C118.661 22.4405 118.53 22.9515 118.335 23.256C118.161 23.5604 117.856 23.7126 117.421 23.7126C116.856 23.7126 116.378 23.5169 115.986 23.1255C115.703 22.8428 115.562 22.4079 115.562 21.8208V21.723C115.584 20.614 115.877 18.3743 116.443 15.0039C117.03 11.6334 117.769 8.32825 118.661 5.08829C119.574 1.84833 120.389 0.228356 121.107 0.228356C122.564 0.228356 123.662 1.95706 124.401 5.41446C124.423 5.47969 124.434 5.53406 124.434 5.57754C124.456 5.59929 124.467 5.63191 124.467 5.6754C124.532 6.00157 124.967 8.08905 125.771 11.9379C126.576 15.7867 127.174 18.6678 127.565 20.5814C127.587 20.7118 127.652 21.0054 127.761 21.462C127.87 21.8969 127.924 22.2122 127.924 22.4079C127.924 22.9733 127.609 23.3647 126.978 23.5821C126.587 23.7343 126.163 23.8104 125.706 23.8104C125.162 23.8104 124.793 23.5821 124.597 23.1255C124.488 22.7558 124.336 22.0817 124.14 21.1032C124.119 20.9293 124.075 20.6792 124.01 20.353C123.945 20.0269 123.901 19.7768 123.879 19.6029C123.814 19.2549 123.706 19.081 123.553 19.081ZM119.476 15.3953V15.4931C119.476 15.754 119.672 15.8845 120.063 15.8845H120.292C120.509 15.8845 120.9 15.8628 121.466 15.8193C122.031 15.754 122.444 15.7214 122.705 15.7214C122.901 15.7214 122.999 15.6127 122.999 15.3953L121.335 5.83848C121.292 5.83848 121.238 5.96895 121.172 6.22988C121.107 6.49082 121.053 6.7735 121.009 7.07793C120.966 7.38235 120.933 7.55631 120.911 7.5998C120.302 10.1004 119.824 12.6989 119.476 15.3953ZM129.066 19.081V18.7548C129.044 18.1242 129.033 17.1892 129.033 15.9498C129.033 14.6016 129.076 12.6881 129.163 10.2092C129.272 7.73027 129.337 6.19727 129.359 5.61016C129.381 4.4142 129.479 3.01167 129.653 1.40257C129.74 0.663249 130.392 0.250101 131.61 0.163122H132.425C133.338 0.163122 134.208 0.239228 135.035 0.391441C137.796 0.956802 139.492 3.16389 140.123 7.01269C140.231 7.62154 140.286 8.87186 140.286 10.7636C140.286 13.1121 139.992 15.2648 139.405 17.2218C138.818 19.1788 137.829 20.8314 136.437 22.1796C135.045 23.5278 133.338 24.2019 131.316 24.2019C131.229 24.2019 131.077 24.191 130.86 24.1692C130.642 24.1692 130.468 24.1692 130.338 24.1692C129.664 24.1692 129.305 23.6582 129.261 22.6362C129.261 22.2231 129.229 21.636 129.163 20.8749C129.098 20.0921 129.066 19.4941 129.066 19.081ZM133.371 19.8312C133.371 20.0269 133.458 20.1247 133.632 20.1247C134.48 20.1247 135.328 18.9505 136.176 16.6021C137.046 14.2319 137.481 12.1118 137.481 10.2418C137.481 9.5242 137.47 8.94797 137.448 8.51307C137.426 8.05644 137.372 7.52369 137.285 6.91484C137.22 6.30599 137.1 5.81674 136.926 5.44708C136.774 5.07742 136.557 4.71863 136.274 4.37072C136.013 4.00106 135.654 3.72925 135.198 3.55529C134.763 3.35959 134.241 3.25086 133.632 3.22912H133.599C133.273 3.22912 133.11 3.47918 133.11 3.97931V4.30548V4.50118V6.84961V7.82812V8.31737C133.154 9.27414 133.186 10.4266 133.208 11.7748C133.251 13.1012 133.284 14.2211 133.306 15.1343V15.3626C133.328 15.6236 133.338 16.015 133.338 16.5369V18.5265C133.338 19.0919 133.349 19.5267 133.371 19.8312ZM146.711 6.22988C146.472 6.22988 146.135 7.34973 145.7 9.58944C145.265 11.8291 145.048 13.2425 145.048 13.8296C145.048 13.8514 145.037 13.8623 145.015 13.8623C144.994 13.8623 144.983 13.8731 144.983 13.8949C144.983 14.1123 145.146 14.2211 145.472 14.2211H145.505L146.516 14.1232C147.168 14.058 147.712 13.971 148.147 13.8623C148.603 13.7318 148.831 13.5687 148.831 13.373C148.831 12.9381 148.527 11.6443 147.918 9.49158C147.309 7.31712 146.907 6.22988 146.711 6.22988ZM142.308 24.1692C141.112 24.1692 140.514 23.4299 140.514 21.9513C140.514 21.7991 140.579 21.1032 140.71 19.8638C141.862 11.2746 143.537 4.94695 145.733 0.880696C145.972 0.445803 146.32 0.228356 146.777 0.228356C147.668 0.228356 148.701 1.93531 149.875 5.34923C151.049 8.74139 152.017 12.2532 152.778 15.8845C153.539 19.4941 153.92 21.886 153.92 23.0603C153.92 23.4082 153.757 23.68 153.43 23.8757C153.104 24.0931 152.724 24.2019 152.289 24.2019C151.593 24.2019 151.071 23.8322 150.723 23.0929C150.375 22.3318 150.18 21.5055 150.136 20.614C150.093 19.7007 149.984 18.8744 149.81 18.1351C149.636 17.374 149.353 16.9935 148.962 16.9935H148.766C148.658 17.0152 148.179 17.0587 147.331 17.124C146.483 17.1675 145.798 17.2762 145.276 17.4501C144.754 17.6023 144.483 17.8415 144.461 18.1677C144.461 18.2547 144.45 18.4939 144.428 18.8853C144.406 19.2549 144.385 19.5376 144.363 19.7333C144.363 19.9073 144.341 20.19 144.298 20.5814C144.276 20.9728 144.243 21.2772 144.2 21.4946C144.156 21.7121 144.102 21.9839 144.037 22.3101C143.972 22.6145 143.885 22.8646 143.776 23.0603C143.667 23.256 143.548 23.4517 143.417 23.6474C143.287 23.8213 143.124 23.9518 142.928 24.0388C142.732 24.1257 142.526 24.1692 142.308 24.1692ZM158.551 3.13127H158.519C158.149 3.13127 157.953 3.27261 157.932 3.55529C157.866 3.85972 157.834 4.34897 157.834 5.02306C157.834 5.4362 157.888 6.49082 157.997 8.1869C158.019 8.40435 158.106 8.51307 158.258 8.51307C159.345 8.51307 160.454 8.13254 161.585 7.37148C162.715 6.58867 163.281 5.74063 163.281 4.82735C163.281 4.30548 162.694 3.89233 161.52 3.58791C160.367 3.28348 159.378 3.13127 158.551 3.13127ZM166.151 21.9839C166.151 22.4623 165.999 22.8428 165.694 23.1255C165.412 23.4082 165.064 23.5495 164.651 23.5495H164.618C164.009 23.5495 163.509 23.2451 163.118 22.6362C162.857 22.2013 162.596 21.7556 162.335 21.2989C162.074 20.8206 161.813 20.2878 161.552 19.7007C161.313 19.1136 161.106 18.6135 160.932 18.2003C160.758 17.7872 160.541 17.2218 160.28 16.5042C160.041 15.7867 159.867 15.2757 159.758 14.9712C159.649 14.6451 159.454 14.0797 159.171 13.2752C158.91 12.4706 158.747 11.9705 158.682 11.7748C158.53 11.4051 158.399 11.2203 158.29 11.2203C158.16 11.242 158.095 11.4595 158.095 11.8726C158.095 11.9813 158.095 12.1227 158.095 12.2966C158.116 12.4706 158.127 12.5793 158.127 12.6228C158.193 13.6883 158.225 15.2539 158.225 17.3197C158.247 19.3854 158.28 20.9184 158.323 21.9187V22.0491C158.323 23.1799 157.823 23.7452 156.823 23.7452C156.54 23.7452 156.279 23.6691 156.04 23.5169C155.322 23.1037 154.964 22.2448 154.964 20.9402V19.4072C154.964 18.059 154.974 16.1455 154.996 13.6666C155.04 11.1659 155.061 9.26327 155.061 7.95859C155.061 5.39271 155.159 3.41395 155.355 2.02229C155.464 1.23948 155.627 0.739356 155.844 0.521909C156.083 0.282718 156.486 0.163122 157.051 0.163122H157.671C158.649 0.163122 159.465 0.184867 160.117 0.228356C160.791 0.271845 161.53 0.391441 162.335 0.587143C163.161 0.7611 163.814 1.02204 164.292 1.36995C164.792 1.69612 165.205 2.1745 165.531 2.8051C165.879 3.43569 166.053 4.18589 166.053 5.05567C166.053 6.49082 165.608 7.73027 164.716 8.77401C163.846 9.79601 162.824 10.5027 161.65 10.8941C161.476 10.9593 161.389 11.0681 161.389 11.2203C161.389 11.3073 161.422 11.416 161.487 11.5465C161.944 12.351 162.476 13.5143 163.085 15.0365C163.694 16.5369 164.27 17.7219 164.814 18.5917C165.183 19.1788 165.564 20.0051 165.955 21.0706C166.086 21.3968 166.151 21.7012 166.151 21.9839ZM7.38787 34.1528C7.38787 33.6309 7.51834 33.196 7.77927 32.8481C8.06195 32.4784 8.44249 32.2936 8.92087 32.2936C9.33402 32.2936 9.8124 32.6959 10.356 33.5004C10.7909 34.1528 11.2802 35.2182 11.8238 36.6969C12.3891 38.1755 12.8893 39.4367 13.3242 40.4805C13.7808 41.5242 14.1613 42.0461 14.4658 42.0461C14.618 42.0461 14.9659 41.3068 15.5095 39.8281C16.0749 38.3495 16.4554 37.2622 16.6511 36.5664C16.999 35.4139 17.4665 34.1962 18.0536 32.9133C18.3146 32.348 18.619 32.0653 18.9669 32.0653H18.9995C19.3257 32.0653 19.6192 32.2175 19.8802 32.5219C20.1629 32.8263 20.3042 33.2612 20.3042 33.8266C20.3042 34.5659 20.2281 35.3161 20.0759 36.0772C19.9237 36.8382 19.7932 37.3927 19.6845 37.7406C19.5975 38.0668 19.3474 38.7191 18.9343 39.6976C18.5429 40.6762 18.3037 41.2741 18.2167 41.4916C17.9993 42.0352 17.6731 42.6658 17.2382 43.3834C16.8033 44.1009 16.4228 44.7207 16.0966 45.2425C15.7922 45.7427 15.64 46.0906 15.64 46.2863C15.64 46.8299 15.64 47.504 15.64 48.3085C15.6617 49.1131 15.6726 49.9176 15.6726 50.7222C15.6726 50.8744 15.6835 51.2332 15.7052 51.7986C15.727 52.3422 15.7378 52.7771 15.7378 53.1032C15.7378 55.082 15.2921 56.0714 14.4005 56.0714C13.4438 56.0714 12.8023 55.7235 12.4761 55.0276C12.15 54.3101 11.9869 53.3533 11.9869 52.1573C11.9869 51.5267 12.0412 50.6135 12.15 49.4175C12.2587 48.2216 12.313 47.3844 12.313 46.906C12.2261 46.3406 12.0412 45.7101 11.7585 45.0142C11.4541 44.3184 10.9866 43.329 10.356 42.0461C9.72542 40.7414 9.22529 39.6215 8.85563 38.6865C8.74691 38.4256 8.58383 38.0233 8.36638 37.4797C8.14893 36.9361 7.97498 36.5229 7.84451 36.2402C7.73578 35.9358 7.62706 35.5879 7.51834 35.1965C7.43136 34.8051 7.38787 34.4572 7.38787 34.1528ZM23.2071 47.2974C23.3158 47.2974 23.5659 47.3192 23.9573 47.3626C24.3705 47.3844 24.6858 47.3953 24.9032 47.3953C25.4251 47.3953 25.7295 47.3083 25.8165 47.1343L25.7512 46.7429C25.3381 44.3075 24.9793 41.7851 24.6749 39.1758C24.6749 39.1105 24.6314 39.0453 24.5444 38.9801C24.4139 39.1105 24.2835 39.5019 24.153 40.1543C24.0443 40.7849 23.8486 41.6873 23.5659 42.8615C23.305 44.014 23.131 44.8511 23.044 45.373C23.0223 45.46 22.9571 45.7209 22.8483 46.1558C22.7396 46.5907 22.6852 46.8951 22.6852 47.0691C22.6852 47.2213 22.8592 47.2974 23.2071 47.2974ZM21.3153 52.0269C21.1414 54.3101 20.4999 55.4517 19.3909 55.4517C18.4342 55.4517 17.9558 54.9298 17.9558 53.886C17.9558 53.7338 18.0862 53.0054 18.3472 51.7007C18.4994 50.9179 18.6842 50.1133 18.9017 49.287C19.1409 48.4608 19.4344 47.4822 19.7823 46.3515C20.152 45.1991 20.3912 44.4271 20.4999 44.0357C20.6086 43.6008 20.8043 42.8289 21.087 41.7199C21.3914 40.6109 21.6198 39.7738 21.772 39.2084C21.9242 38.643 22.1308 37.9363 22.3917 37.0883C22.6744 36.2185 22.9571 35.4466 23.2397 34.7725C23.5442 34.0767 23.8703 33.4134 24.2182 32.7828C24.4357 32.4349 24.7836 32.261 25.262 32.261C25.2837 32.261 25.3272 32.2718 25.3925 32.2936C26.2188 32.4893 26.8602 33.8157 27.3169 36.2729C27.5126 37.4036 27.7518 38.7952 28.0344 40.4478C28.3171 42.1004 28.5346 43.4051 28.6868 44.3619C28.8607 45.2969 29.0782 46.4494 29.3391 47.8193C29.6218 49.1892 29.9262 50.5482 30.2524 51.8964C30.2959 52.0921 30.372 52.3748 30.4807 52.7445C30.5894 53.0924 30.6764 53.4185 30.7416 53.723C30.8286 54.0056 30.8721 54.2666 30.8721 54.5058C30.8721 55.3756 30.2741 55.8104 29.0782 55.8104C28.6868 55.8104 28.3932 55.7017 28.1975 55.4843C27.9366 55.2016 27.7191 54.8319 27.5452 54.3753C27.393 53.9187 27.2299 53.2989 27.0559 52.5161C26.882 51.7116 26.7624 51.2115 26.6971 51.0157C26.4797 50.82 26.0774 50.6787 25.4903 50.5917C24.4466 50.4395 23.3593 50.3634 22.2286 50.3634C21.7285 50.3634 21.4241 50.9179 21.3153 52.0269ZM44.9627 54.3427C44.9627 54.7341 44.8322 55.0494 44.5712 55.2886C44.3321 55.5278 44.0494 55.6474 43.7232 55.6474C43.1796 55.6474 42.4294 55.0711 41.4726 53.9187C40.8638 53.1793 40.2549 52.353 39.6461 51.4398C39.0372 50.5047 38.5371 49.6893 38.1457 48.9935C37.776 48.2977 37.2542 47.3192 36.5801 46.058C36.4931 45.9275 36.3953 45.8623 36.2865 45.8623C36.1343 45.8623 36.0582 45.9492 36.0582 46.1232V46.1558C36.0365 47.5257 35.9821 49.5371 35.8951 52.19V52.8097C35.8951 53.462 35.8625 53.973 35.7973 54.3427C35.7538 54.6906 35.5907 55.0168 35.308 55.3212C35.0253 55.6039 34.6122 55.7452 34.0686 55.7452C33.351 55.7452 32.7856 55.5386 32.3725 55.1255C31.9811 54.7123 31.7854 53.9078 31.7854 52.7118C31.7854 51.5594 31.8506 50.0916 31.9811 48.3085C32.1116 46.5037 32.1768 45.0795 32.1768 44.0357C32.1768 43.4051 32.1333 42.4049 32.0463 41.0349C31.9811 39.665 31.9485 38.6213 31.9485 37.9037V37.8385C31.9485 36.2729 32.1224 35.0008 32.4703 34.0223C32.84 33.0438 33.5032 32.3914 34.46 32.0653C34.5904 32 34.7209 31.9674 34.8514 31.9674C35.8516 31.9674 36.3518 33.5983 36.3518 36.86C36.3518 36.9252 36.3191 37.3275 36.2539 38.0668C36.2104 38.8061 36.1887 39.3824 36.1887 39.7955C36.1887 40.6218 36.2865 41.0349 36.4822 41.0349C36.5475 41.0349 36.8628 40.4805 37.4281 39.3715C37.5803 39.1323 37.8304 38.7191 38.1783 38.132C38.5262 37.5232 38.8307 37.0339 39.0916 36.6643C40.592 34.5115 41.6466 33.1851 42.2554 32.685C42.7773 32.2501 43.234 32.0327 43.6254 32.0327C44.5604 32.0327 45.0279 32.6089 45.0279 33.7614C45.0279 34.5659 44.8104 35.2182 44.3755 35.7184C43.6797 36.5012 42.3315 38.4147 40.331 41.459C40.2875 41.5242 40.1136 41.7416 39.8092 42.1113C39.5265 42.481 39.2655 42.8289 39.0264 43.1551C38.8089 43.4812 38.7002 43.6987 38.7002 43.8074C38.7002 44.0901 39.0916 44.9272 39.8744 46.3189C40.6572 47.7106 41.4726 48.9174 42.3207 49.9394C43.4079 51.2441 44.2016 52.2335 44.7017 52.9075C44.8757 53.1467 44.9627 53.4838 44.9627 53.9187V54.3427ZM48.1591 55.8431C48.0504 55.8431 47.9417 55.8104 47.833 55.7452C46.8327 55.2233 46.3326 53.7338 46.3326 51.2767C46.3326 50.4504 46.3761 48.5586 46.463 45.6013C46.55 42.6223 46.5935 40.7088 46.5935 39.8607C46.5935 36.0119 47.061 34.0875 47.996 34.0875C48.3874 34.0875 48.7245 34.1962 49.0072 34.4137C49.2898 34.6094 49.4964 34.8595 49.6269 35.1639C49.7791 35.4683 49.8878 35.8923 49.9531 36.4359C50.04 36.9578 50.0944 37.4362 50.1161 37.8711C50.1379 38.306 50.1488 38.8714 50.1488 39.5672C50.1488 40.8284 50.1379 43.1442 50.1161 46.5146C50.0944 49.885 50.0835 52.0921 50.0835 53.1359C50.0835 53.636 50.0727 54.0056 50.0509 54.2448C50.0292 54.484 49.9639 54.7558 49.8552 55.0603C49.7682 55.3429 49.6051 55.5495 49.366 55.68C49.1268 55.7887 48.8006 55.8431 48.3874 55.8431H48.1591ZM53.704 47.591C54.7478 47.591 55.2696 48.2759 55.2696 49.6458C55.2696 49.7763 55.2696 49.9938 55.2696 50.2982C55.2914 50.6026 55.3022 50.9288 55.3022 51.2767C55.3022 52.5814 55.8894 53.2337 57.0636 53.2337C57.6289 53.2337 58.0529 53.0489 58.3356 52.6792C58.6401 52.2878 58.8249 51.8855 58.8901 51.4724C58.9554 51.0375 58.988 50.4939 58.988 49.8415C58.988 48.6021 58.8031 47.6236 58.4335 46.906C58.0856 46.1884 57.6289 45.6883 57.0636 45.4056C56.4982 45.1012 55.9111 44.8294 55.3022 44.5902C54.7151 44.351 54.1172 43.9596 53.5083 43.416C52.9212 42.8724 52.4754 42.1331 52.171 41.198C52.0188 40.7414 51.9427 40.176 51.9427 39.5019C51.9427 38.6104 52.0297 37.7515 52.2036 36.9252C52.3993 36.0989 52.6929 35.3161 53.0843 34.5768C53.4757 33.8157 54.0302 33.2177 54.7478 32.7828C55.4653 32.3262 56.3025 32.0979 57.2593 32.0979C59.2163 32.0979 60.5645 32.5219 61.3038 33.37C62.0648 34.218 62.4454 35.664 62.4454 37.708C62.4454 38.5126 61.9018 38.9148 60.8145 38.9148C60.3144 38.9148 59.9339 38.7409 59.6729 38.393C59.4337 38.0233 59.2815 37.6319 59.2163 37.2188C59.1728 36.7839 59.0097 36.3925 58.727 36.0445C58.4444 35.6749 58.0421 35.4901 57.5202 35.4901C56.9548 35.4901 56.4873 35.751 56.1177 36.2729C55.7698 36.773 55.5414 37.3057 55.4327 37.8711C55.324 38.4147 55.2696 38.9475 55.2696 39.4693C55.2696 40.4261 55.7154 41.1328 56.6069 41.5894C57.6072 42.0896 58.4009 42.5462 58.988 42.9593C59.5751 43.3508 60.1839 43.8726 60.8145 44.525C61.4669 45.1773 61.9344 45.9601 62.2171 46.8734C62.5215 47.7649 62.6737 48.8087 62.6737 50.0046C62.6737 51.3745 62.3801 52.614 61.793 53.723C61.2277 54.8102 60.3796 55.5821 59.2489 56.0388C59.2054 56.2997 59.0858 56.6476 58.8901 57.0825C58.7814 57.3434 58.5966 57.6261 58.3356 57.9306C58.0747 58.2567 57.7811 58.5829 57.455 58.9091C57.1288 59.257 56.9114 59.4962 56.8026 59.6266C56.172 60.3877 55.5088 60.7682 54.813 60.7682C54.0519 60.7682 53.6714 60.5508 53.6714 60.1159C53.6714 59.855 53.7801 59.5397 53.9976 59.17C54.215 58.8221 54.5303 58.3981 54.9435 57.8979C55.3566 57.3978 55.5741 57.1369 55.5958 57.1151C55.6828 57.0064 55.8894 56.7672 56.2155 56.3976C54.8456 56.2019 53.7692 55.5604 52.9864 54.4732C52.2254 53.3859 51.8448 52.0377 51.8448 50.4286C51.8448 49.3414 51.9753 48.6021 52.2362 48.2107C52.4972 47.7975 52.9864 47.591 53.704 47.591ZM66.0332 55.8431C65.9245 55.8431 65.8158 55.8104 65.7071 55.7452C64.7068 55.2233 64.2067 53.7338 64.2067 51.2767C64.2067 50.4504 64.2502 48.5586 64.3372 45.6013C64.4241 42.6223 64.4676 40.7088 64.4676 39.8607C64.4676 36.0119 64.9351 34.0875 65.8702 34.0875C66.2616 34.0875 66.5986 34.1962 66.8813 34.4137C67.164 34.6094 67.3705 34.8595 67.501 35.1639C67.6532 35.4683 67.7619 35.8923 67.8272 36.4359C67.9142 36.9578 67.9685 37.4362 67.9903 37.8711C68.012 38.306 68.0229 38.8714 68.0229 39.5672C68.0229 40.8284 68.012 43.1442 67.9903 46.5146C67.9685 49.885 67.9576 52.0921 67.9576 53.1359C67.9576 53.636 67.9468 54.0056 67.925 54.2448C67.9033 54.484 67.8381 54.7558 67.7293 55.0603C67.6424 55.3429 67.4793 55.5495 67.2401 55.68C67.0009 55.7887 66.6747 55.8431 66.2616 55.8431H66.0332ZM73.4373 47.2974C73.4373 46.9495 73.3938 46.6777 73.3068 46.482C72.8719 45.3948 72.2305 43.6008 71.3824 41.1002C70.5344 38.5778 70.0451 37.1427 69.9147 36.7947C69.4145 35.3378 69.1645 34.3267 69.1645 33.7614C69.1645 32.7394 69.719 32.2284 70.8279 32.2284C71.6325 32.2284 72.3501 32.9351 72.9807 34.3485C73.6113 35.7401 74.1657 37.4906 74.6441 39.5998C75.1225 41.6873 75.3834 42.7854 75.4269 42.8941C75.5574 42.5679 75.8401 41.4264 76.275 39.4693C76.7316 37.4906 77.2317 35.7727 77.7754 34.3158C78.319 32.859 78.8952 32.1305 79.5041 32.1305H79.5367C79.8194 32.1305 80.1129 32.2392 80.4173 32.4567C80.5913 32.6089 80.6783 33.0329 80.6783 33.7287V33.9244C80.6783 34.555 80.5587 35.5879 80.3195 37.0231C80.189 37.8059 79.8737 38.9692 79.3736 40.5131C78.8735 42.0569 78.406 43.4051 77.9711 44.5576L77.3513 46.2863C77.3948 46.8734 77.4166 47.5583 77.4166 48.3412C77.4166 48.5586 77.4057 49.0044 77.384 49.6785C77.384 50.3308 77.384 50.9396 77.384 51.505C77.384 53.3533 77.2426 54.6471 76.9599 55.3864C76.6773 56.104 76.014 56.4628 74.9703 56.4628C74.4267 56.4628 74.0027 56.2019 73.6982 55.68C73.3938 55.1581 73.2416 54.5275 73.2416 53.7882C73.2416 53.0706 73.2742 52.016 73.3394 50.6243C73.4047 49.2327 73.4373 48.1237 73.4373 47.2974ZM84.6902 42.6006C84.4945 43.6661 84.3966 44.7424 84.3966 45.8296C84.3966 47.6345 84.6249 49.1783 85.0816 50.4613C85.5382 51.7442 86.2449 52.3857 87.2017 52.3857C89.1804 52.3857 90.1698 49.4501 90.1698 43.5791V42.8615V42.4375C90.1698 42.394 90.1589 42.2635 90.1372 42.0461C89.2022 42.6114 87.9519 42.8941 86.3862 42.8941C85.6469 42.8941 85.0816 42.7963 84.6902 42.6006ZM80.9066 45.4056C80.9066 43.4921 81.1675 41.5568 81.6894 39.5998C82.233 37.621 83.0593 35.9032 84.1683 34.4463C85.299 32.9894 86.5602 32.261 87.9519 32.261C88.9086 32.261 89.7784 32.7937 90.5612 33.8592C91.344 34.903 91.9964 36.1207 92.5182 37.5123C92.8444 37.2731 93.2358 37.1535 93.6925 37.1535C94.4318 37.1535 94.8014 37.5449 94.8014 38.3277C94.8014 38.6104 94.7579 38.8931 94.671 39.1758C94.5622 39.5672 94.41 39.8607 94.2143 40.0564C94.0404 40.2521 93.7033 40.4478 93.2032 40.6435C93.2684 41.3176 93.3011 42.0461 93.3011 42.8289C93.3011 44.0031 93.2684 45.1012 93.2032 46.1232C93.138 47.1452 92.9749 48.2977 92.7139 49.5806C92.4748 50.8418 92.1486 51.929 91.7354 52.8423C91.3223 53.7338 90.7352 54.4949 89.9741 55.1255C89.2348 55.7343 88.3541 56.0388 87.3321 56.0388C85.0055 56.0388 83.1354 54.4732 81.722 51.3419C81.1784 50.1242 80.9066 48.1455 80.9066 45.4056ZM89.5175 39.0453C88.9086 36.6969 88.2672 35.5227 87.5931 35.5227C87.2234 35.5227 86.7885 35.9249 86.2884 36.7295C85.81 37.5341 85.4077 38.4147 85.0816 39.3715C85.2773 39.3932 85.6361 39.4476 86.1579 39.5346C86.7015 39.5998 87.1038 39.6324 87.3648 39.6324C88.0823 39.6324 88.7999 39.4367 89.5175 39.0453ZM106.902 54.147C106.902 54.4949 106.696 54.7776 106.283 54.995C105.891 55.2125 105.478 55.3212 105.043 55.3212C104.869 55.3212 104.684 55.2777 104.489 55.1907C104.315 55.1037 104.13 54.9733 103.934 54.7993C103.739 54.6036 103.554 54.4297 103.38 54.2774C103.228 54.1035 103.054 53.886 102.858 53.6251C102.662 53.3424 102.51 53.1359 102.401 53.0054C102.314 52.8532 102.184 52.6466 102.01 52.3857C101.858 52.1247 101.771 51.9725 101.749 51.929C101.488 51.5811 101.075 50.8635 100.509 49.7763C99.9441 48.6673 99.4439 47.6453 99.009 46.7103L98.3567 45.3078C98.2045 44.8511 98.0631 44.6228 97.9327 44.6228C97.9109 44.6228 97.9001 44.9164 97.9001 45.5035V45.6339C98.2262 49.3958 98.3893 51.6572 98.3893 52.4183C98.3893 54.7232 97.9653 55.8757 97.1172 55.8757C96.3127 55.8757 95.7691 55.6147 95.4864 55.0929C95.2037 54.5493 95.0624 53.7882 95.0624 52.8097C95.0624 52.5487 95.0733 52.1573 95.095 51.6355C95.1167 51.0919 95.1276 50.6896 95.1276 50.4286V44.1662C95.2146 39.2954 95.3233 35.9576 95.4538 34.1528C95.4973 33.6961 95.6712 33.2938 95.9757 32.9459C96.3018 32.598 96.7041 32.3914 97.1825 32.3262C98.1175 32.1957 99.009 32.1305 99.8571 32.1305C101.053 32.1305 102.151 32.2827 103.151 32.5871C104.173 32.8698 105.043 33.4026 105.761 34.1854C106.5 34.9682 106.87 35.9467 106.87 37.1209C106.87 38.7735 106.293 40.1108 105.141 41.1328C104.01 42.1548 102.586 42.905 100.868 43.3834C100.651 43.4486 100.542 43.5465 100.542 43.6769V43.7422C100.933 44.7859 101.966 46.4929 103.641 48.863C105.315 51.2332 106.348 52.8097 106.739 53.5925C106.848 53.8099 106.902 53.9948 106.902 54.147ZM98.0631 41.2633C98.0849 41.2633 98.1719 41.2198 98.3241 41.1328C98.498 41.0458 98.5959 41.0023 98.6176 41.0023C98.7046 40.9806 98.9982 40.9045 99.4983 40.774C100.02 40.6218 100.346 40.5239 100.477 40.4805C100.607 40.4152 100.879 40.3065 101.292 40.1543C101.705 40.0021 101.977 39.8607 102.108 39.7303C102.238 39.5998 102.423 39.4258 102.662 39.2084C102.901 38.9692 103.064 38.7083 103.151 38.4256C103.238 38.1429 103.293 37.8276 103.314 37.4797C103.336 37.3275 103.347 37.1209 103.347 36.86C103.347 35.9467 103.075 35.3813 102.532 35.1639C101.988 34.9247 100.955 34.8051 99.4331 34.8051H98.8133C98.5524 34.8051 98.3784 34.8595 98.2915 34.9682C98.2262 35.0552 98.1719 35.24 98.1284 35.5227L98.0958 35.6858C98.0958 35.7945 98.0958 35.8923 98.0958 35.9793L98.0631 41.2633ZM108.403 38.4582C108.403 37.5884 108.424 36.8491 108.468 36.2402C108.533 35.6097 108.642 34.9682 108.794 34.3158C108.946 33.6418 109.196 33.1308 109.544 32.7828C109.892 32.4132 110.327 32.2284 110.849 32.2284C111.784 32.2284 112.252 34.4463 112.252 38.8822C112.252 39.3824 112.241 39.9912 112.219 40.7088C112.219 41.4264 112.219 41.8504 112.219 41.9808C112.219 42.8941 112.186 44.3728 112.121 46.4168C112.078 48.4608 112.056 49.972 112.056 50.9505C112.056 51.081 112.099 51.2223 112.186 51.3745C112.273 51.505 112.382 51.5702 112.512 51.5702C112.752 51.5702 112.947 51.5702 113.1 51.5702C113.252 51.5485 113.426 51.5376 113.621 51.5376C115.448 51.5376 116.644 51.7116 117.209 52.0595C117.557 52.2769 117.796 52.4835 117.927 52.6792C118.057 52.8749 118.123 53.1576 118.123 53.5273C118.123 54.2883 117.883 54.8863 117.405 55.3212C116.927 55.7343 116.263 55.9409 115.415 55.9409H114.665C114.274 55.9409 113.839 55.9627 113.361 56.0062C112.882 56.0714 112.458 56.104 112.088 56.104C110.936 56.104 110.044 55.8974 109.414 55.4843C108.783 55.0711 108.435 54.2883 108.37 53.1359C108.327 52.1791 108.305 51.4615 108.305 50.9831V48.015C108.305 47.2322 108.327 46.0797 108.37 44.5576C108.414 43.0137 108.435 41.8504 108.435 41.0676C108.435 40.8066 108.424 40.3935 108.403 39.8281C108.403 39.241 108.403 38.7844 108.403 38.4582ZM125.494 38.2299C125.255 38.2299 124.918 39.3497 124.483 41.5894C124.048 43.8291 123.831 45.2425 123.831 45.8296C123.831 45.8514 123.82 45.8623 123.798 45.8623C123.776 45.8623 123.765 45.8731 123.765 45.8949C123.765 46.1123 123.928 46.2211 124.255 46.2211H124.287L125.298 46.1232C125.951 46.058 126.494 45.971 126.929 45.8623C127.386 45.7318 127.614 45.5687 127.614 45.373C127.614 44.9381 127.31 43.6443 126.701 41.4916C126.092 39.3171 125.69 38.2299 125.494 38.2299ZM121.091 56.1692C119.895 56.1692 119.297 55.4299 119.297 53.9513C119.297 53.7991 119.362 53.1032 119.492 51.8638C120.645 43.2746 122.319 36.9469 124.516 32.8807C124.755 32.4458 125.103 32.2284 125.559 32.2284C126.451 32.2284 127.484 33.9353 128.658 37.3492C129.832 40.7414 130.8 44.2532 131.561 47.8845C132.322 51.4941 132.702 53.886 132.702 55.0603C132.702 55.4082 132.539 55.68 132.213 55.8757C131.887 56.0931 131.506 56.2019 131.072 56.2019C130.376 56.2019 129.854 55.8322 129.506 55.0929C129.158 54.3318 128.962 53.5055 128.919 52.614C128.875 51.7007 128.767 50.8744 128.593 50.1351C128.419 49.374 128.136 48.9935 127.745 48.9935H127.549C127.44 49.0152 126.962 49.0587 126.114 49.124C125.266 49.1675 124.581 49.2762 124.059 49.4501C123.537 49.6023 123.265 49.8415 123.243 50.1677C123.243 50.2547 123.233 50.4939 123.211 50.8853C123.189 51.2549 123.167 51.5376 123.146 51.7333C123.146 51.9073 123.124 52.19 123.08 52.5814C123.059 52.9728 123.026 53.2772 122.983 53.4946C122.939 53.7121 122.885 53.9839 122.819 54.3101C122.754 54.6145 122.667 54.8646 122.558 55.0603C122.45 55.256 122.33 55.4517 122.2 55.6474C122.069 55.8213 121.906 55.9518 121.71 56.0388C121.515 56.1257 121.308 56.1692 121.091 56.1692ZM138.345 35.066C137.975 35.066 137.769 35.4466 137.725 36.2076C137.725 36.4033 137.715 36.686 137.693 37.0557C137.671 37.4253 137.649 37.7624 137.628 38.0668C137.628 38.3712 137.628 38.6648 137.628 38.9475C137.628 39.4693 137.649 40.2413 137.693 41.2633C137.736 42.2635 137.758 42.8941 137.758 43.1551C137.802 43.503 137.91 43.6769 138.084 43.6769H138.117C139.226 43.5465 139.976 43.2203 140.367 42.6984C140.781 42.1548 140.987 41.285 140.987 40.0891C140.987 39.328 140.965 38.7191 140.922 38.2625C140.878 37.7841 140.77 37.2731 140.596 36.7295C140.443 36.1641 140.172 35.751 139.78 35.4901C139.411 35.2074 138.932 35.066 138.345 35.066ZM135.54 56.0062C134.888 56.0062 134.442 55.8322 134.203 55.4843C133.985 55.1364 133.877 54.6254 133.877 53.9513C133.877 52.9293 133.909 51.4615 133.974 49.548C134.04 47.6345 134.072 46.1884 134.072 45.2099C134.072 44.3836 134.061 43.7639 134.04 43.3508C133.953 40.6109 133.909 38.4147 133.909 36.7621V35.327C133.909 33.9788 134.138 33.109 134.594 32.7176C135.051 32.3045 135.964 32.0979 137.334 32.0979C138.53 32.0979 139.552 32.2284 140.4 32.4893C140.9 32.6632 141.281 32.8263 141.542 32.9785C142.781 33.6744 143.542 35.2182 143.825 37.6102C143.934 38.5234 143.988 39.4258 143.988 40.3174C143.988 41.4046 143.901 42.3831 143.727 43.2529C143.575 44.1227 143.249 44.8838 142.748 45.5361C142.248 46.1884 141.607 46.5146 140.824 46.5146C140.541 46.5146 140.4 46.6125 140.4 46.8082C140.4 46.8951 140.465 47.0256 140.596 47.1996C142.727 50.0916 144.107 52.2117 144.738 53.5599C144.89 53.8643 144.966 54.1796 144.966 54.5058C144.966 54.9624 144.836 55.3647 144.575 55.7126C144.336 56.0388 144.042 56.2019 143.694 56.2019C143.368 56.2019 143.053 56.1257 142.748 55.9735C142.466 55.8431 142.216 55.7017 141.998 55.5495C141.803 55.3756 141.585 55.1146 141.346 54.7667C141.107 54.397 140.933 54.1361 140.824 53.9839C140.737 53.8099 140.574 53.5055 140.335 53.0706C140.117 52.6357 139.998 52.3965 139.976 52.353C139.672 51.7659 139.324 51.0049 138.932 50.0699C138.541 49.1131 138.215 48.3629 137.954 47.8193C137.867 47.6453 137.747 47.5583 137.595 47.5583C137.421 47.5583 137.334 47.9063 137.334 48.6021C137.334 48.776 137.334 49.0044 137.334 49.287C137.356 49.5697 137.367 49.7437 137.367 49.8089C137.367 50.0046 137.399 50.6896 137.464 51.8638C137.551 53.0163 137.595 53.8317 137.595 54.3101C137.595 54.9842 137.421 55.4408 137.073 55.68C136.725 55.8974 136.214 56.0062 135.54 56.0062ZM151.946 31.3477C153.556 31.3477 154.925 31.8043 156.056 32.7176C157.209 33.6091 157.785 34.7942 157.785 36.2729C157.785 37.3384 157.557 38.3604 157.1 39.3389C156.643 40.2956 156.132 41.0784 155.567 41.6873C155.023 42.2961 154.523 42.9811 154.067 43.7422C153.61 44.4815 153.382 45.1773 153.382 45.8296C153.382 46.1341 153.447 46.6777 153.577 47.4605C153.729 48.2433 153.806 48.7978 153.806 49.124C153.806 49.4719 153.566 49.8307 153.088 50.2003C152.631 50.5482 152.164 50.7222 151.685 50.7222C150.837 50.7222 150.305 50.4069 150.087 49.7763C149.761 48.776 149.598 47.7432 149.598 46.6777C149.598 45.0468 150.011 43.5899 150.837 42.307C151.098 41.8939 151.544 41.3176 152.175 40.5783C152.827 39.839 153.295 39.1758 153.577 38.5887C153.86 37.9798 154.001 37.2405 154.001 36.3707C154.001 35.8706 153.784 35.4357 153.349 35.066C152.936 34.6964 152.468 34.5115 151.946 34.5115C151.011 34.5115 150.392 34.7072 150.087 35.0987C149.783 35.4683 149.631 36.2946 149.631 37.5775C149.631 38.5561 149.228 39.0453 148.424 39.0453C147.076 39.0453 146.402 38.0559 146.402 36.0772C146.402 34.729 146.956 33.6091 148.065 32.7176C149.196 31.8043 150.49 31.3477 151.946 31.3477ZM154.327 54.147C154.327 54.8211 154.143 55.4082 153.773 55.9083C153.425 56.4084 152.979 56.6585 152.436 56.6585C150.957 56.6585 150.218 55.93 150.218 54.4732C150.218 53.7773 150.37 53.1793 150.674 52.6792C150.979 52.1573 151.414 51.8964 151.979 51.8964C152.544 51.8964 153.077 52.1247 153.577 52.5814C154.077 53.0163 154.327 53.5381 154.327 54.147Z" fill="white"/>
</g>
</g>
</g>
</g>
</g>
</g>
</g>
</g>
</g>
</g>
</g>
<defs>
<linearGradient id="paint0_linear_1271_117" x1="158.295" y1="0" x2="158.295" y2="591.661" gradientUnits="userSpaceOnUse">
<stop stop-color="#C9BA91"/>
<stop offset="1" stop-color="#871713"/>
</linearGradient>
<clipPath id="clip0_1271_117">

</clipPath>
<clipPath id="clip1_1271_117">

</clipPath>
</defs>
</svg>
