<svg preserveAspectRatio="none" width="100%" height="100%" overflow="visible" style="display: block;" viewBox="0 0 62 23" fill="none" xmlns="http://www.w3.org/2000/svg">
<g id="Dyson_logo (2) 2" clip-path="url(#clip0_0_4)">
<path id="Vector" d="M8.76766 11.4085C8.76766 12.9337 7.51514 14.1538 5.94948 14.1538C4.38382 14.1538 3.1313 12.9337 3.1313 11.4085C3.1313 9.88326 4.38382 8.6631 5.94948 8.6631H8.76766V11.4085ZM11.899 0.121986H8.76766V5.67371C7.70302 5.67371 6.63837 5.67371 5.94948 5.67371C2.69291 5.67371 0.062611 8.23604 0.062611 11.4085C0.062611 14.5809 2.69291 17.1432 5.94948 17.1432C9.20605 17.1432 11.8363 14.5809 11.8363 11.4085C11.8363 9.82225 11.8363 5.67371 11.8363 5.67371L11.899 0.121986Z" fill="var(--fill-0, white)"/>
<path id="Vector_2" d="M43.0243 14.1539C44.5899 14.1539 45.8424 12.9337 45.8424 11.4085C45.8424 9.88332 44.5899 8.66316 43.0243 8.66316C41.4586 8.66316 40.2061 9.88332 40.2061 11.4085C40.2687 12.9337 41.5212 14.1539 43.0243 14.1539ZM37.2 11.4085C37.2 8.2361 39.8303 5.67377 43.0869 5.67377C46.3435 5.67377 48.9738 8.2361 48.9738 11.4085C48.9738 14.5809 46.3435 17.1433 43.0869 17.1433C39.8303 17.1433 37.2 14.5809 37.2 11.4085Z" fill="var(--fill-0, white)"/>
<path id="Vector_3" d="M58.806 11.4085C58.806 9.94433 57.5535 8.72417 56.0505 8.72417C54.5474 8.72417 53.2949 9.94433 53.2949 11.4085C53.2949 12.1406 53.2949 16.8992 53.2949 16.8992C51.7293 16.8992 50.2262 16.8992 50.2262 16.8992C50.2262 16.8992 50.2262 12.9947 50.2262 11.4085C50.2262 8.2361 52.8565 5.67377 56.1131 5.67377C59.3697 5.67377 62 8.2361 62 11.4085C62 12.9947 62 16.8992 62 16.8992C62 16.8992 60.4969 16.8992 58.9313 16.8992C58.806 16.8992 58.806 12.1406 58.806 11.4085Z" fill="var(--fill-0, white)"/>
<path id="Vector_4" d="M29.998 9.4562C29.5596 9.15116 29.6849 8.6631 30.4364 8.48007C31.3758 8.23604 33.0041 8.41906 34.3818 9.02914L35.8222 7.07689C35.196 6.58883 33.8182 5.91774 31.8142 5.79572C31.8142 5.79572 28.4323 5.36867 27.0546 7.86999C27.0546 7.86999 25.8647 10.1883 28.2445 11.6525C29.6849 12.5066 32.1899 12.8726 33.0041 13.2387C33.6303 13.6047 33.4424 14.2758 32.503 14.4589C30.8748 14.8249 28.7455 13.9098 28.0566 13.4217L26.5535 15.435C27.5556 16.1671 28.8081 16.8382 30.8121 17.1432C30.8121 17.1432 34.0061 17.6923 35.7596 15.557C36.0727 15.1909 37.5131 12.5676 34.6323 11.0424C33.1293 10.2493 30.7495 9.88325 29.998 9.4562Z" fill="var(--fill-0, white)"/>
<path id="Vector_5" d="M15.5939 19.0955C15.7192 19.1565 17.1596 20.1326 18.5374 20.1326C21.9192 20.1936 22.1071 16.7772 22.1071 15.9841C21.4808 16.6551 20.1656 17.0822 19.3515 17.0822C16.0949 17.0822 13.5273 14.6419 13.5273 11.4695C13.5273 9.88326 13.5273 5.91774 13.5273 5.91774C13.5273 5.91774 15.0303 5.91774 16.5959 5.91774C16.5959 5.91774 16.5959 10.7984 16.5959 11.4695C16.5959 12.9337 17.8485 14.1538 19.3515 14.1538C20.8545 14.1538 22.1071 12.9337 22.1071 11.4695C22.1071 10.8594 22.1071 5.91774 22.1071 5.91774C23.6727 5.91774 25.1757 5.91774 25.1757 5.91774V11.4695C25.1757 16.4111 25.4262 21.4748 20.4788 22.6339C16.7838 23.488 14.1535 21.2307 13.9656 21.1087L15.5939 19.0955Z" fill="var(--fill-0, white)"/>
</g>
<defs>
<clipPath id="clip0_0_4">
<rect width="62" height="23" fill="white"/>
</clipPath>
</defs>
</svg>
